<svg width="88" height="96" viewBox="0 0 88 96" fill="none" xmlns="http://www.w3.org/2000/svg">
<mask id="mask0_2140_17544" style="mask-type:alpha" maskUnits="userSpaceOnUse" x="0" y="0" width="88" height="96">
<path d="M0 0H88V81C88 89.2843 81.2843 96 73 96H0V0Z" fill="#D9D9D9"/>
</mask>
<g mask="url(#mask0_2140_17544)">
<path d="M26.0004 52.2994C25.0504 52.2994 24.0504 51.8994 23.3504 51.1994C22.3004 50.0994 21.9504 48.4994 22.5504 47.0994L31.8504 24.8994C32.0504 24.4494 32.1504 24.1494 32.3004 23.8994C39.7004 6.84939 49.1504 2.69938 65.8504 9.09938C66.8004 9.44938 67.5504 10.1994 67.9504 11.1494C68.3504 12.0994 68.3504 13.1494 67.9504 14.0994L53.3004 48.0994C52.7004 49.4994 51.3504 50.3494 49.8504 50.3494H35.6004C32.7504 50.3494 30.0504 50.8994 27.4504 51.9994C27.0004 52.1994 26.5004 52.2994 26.0004 52.2994ZM53.0504 13.7494C46.8504 13.7494 43.0504 17.7994 39.1004 26.9994C39.0504 27.1494 38.9504 27.2994 38.9004 27.4494L32.3504 42.9994C33.4504 42.8994 34.5004 42.8494 35.6004 42.8494H47.3504L59.4004 14.8494C57.0504 14.0994 54.9504 13.7494 53.0504 13.7494Z" fill="#C8FADA"/>
<path d="M91.4492 51.3492C91.0992 51.3492 90.6992 51.2992 90.3492 51.1992C88.4492 50.6492 86.4492 50.3492 84.3492 50.3492H49.8492C48.5992 50.3492 47.3992 49.6992 46.6992 48.6492C46.0492 47.5992 45.8992 46.2492 46.3992 45.0992L60.8992 11.4492C61.6492 9.64924 63.8492 8.39924 65.6992 9.04924C66.2992 9.24924 66.8492 9.49924 67.4492 9.74924L79.2492 14.6992C86.1492 17.5492 90.7492 20.5492 93.7492 24.1492C94.3492 24.8492 94.8492 25.5992 95.3492 26.3992C95.8992 27.2492 96.3992 28.2492 96.7492 29.2992C96.8992 29.6492 97.1492 30.2992 97.2992 30.9992C98.6992 35.7492 97.9992 41.5492 94.9992 49.0492C94.3492 50.4492 92.9492 51.3492 91.4492 51.3492ZM55.5492 42.8492H84.3992C85.9992 42.8492 87.5492 42.9992 89.0992 43.2492C90.4992 38.8992 90.7992 35.5492 89.9992 32.8492C89.8992 32.3992 89.7992 32.1992 89.7492 31.9992C89.4492 31.1992 89.2492 30.7492 88.9992 30.3492C88.6492 29.7992 88.3992 29.3492 87.9992 28.8992C85.8492 26.2992 82.0492 23.8992 76.3492 21.5492L66.4992 17.4492L55.5492 42.8492Z" fill="#C8FADA"/>
<path d="M79.5 113.75H40.5C39.1 113.75 37.8 113.65 36.5 113.5C18.95 112.35 8.95 102.3 7.75 84.5496C7.6 83.4496 7.5 82.0996 7.5 80.7496V70.9996C7.5 59.7496 14.2 49.5996 24.55 45.0996C28.1 43.5996 31.8 42.8496 35.65 42.8496H84.45C87.3 42.8496 90.05 43.2496 92.6 44.0496C104.35 47.5996 112.6 58.6996 112.6 70.9996V80.7496C112.6 81.8496 112.55 82.8996 112.5 83.8996C111.4 103.45 100 113.75 79.5 113.75ZM35.6 50.3496C32.75 50.3496 30.05 50.8996 27.45 51.9996C19.85 55.2996 14.95 62.7496 14.95 70.9996V80.7496C14.95 81.7996 15.05 82.8496 15.15 83.8496C16.1 98.0996 23.1 105.1 37.15 106.05C38.4 106.2 39.4 106.3 40.45 106.3H79.45C95.95 106.3 104.05 99.0496 104.85 83.5496C104.9 82.6496 104.95 81.7496 104.95 80.7496V70.9996C104.95 61.9496 98.9 53.8496 90.3 51.1996C88.4 50.6496 86.4 50.3496 84.3 50.3496H35.6Z" fill="#C8FADA"/>
<path d="M11.1992 74.751C9.14922 74.751 7.44922 73.051 7.44922 71.001V56.351C7.44922 40.601 18.5992 27.001 33.9992 24.001C35.3492 23.751 36.7492 24.251 37.6492 25.301C38.4992 26.351 38.7492 27.851 38.1992 29.101L29.4492 50.001C29.0492 50.901 28.3492 51.601 27.4992 52.001C19.8992 55.301 14.9992 62.751 14.9992 71.001C14.9492 73.051 13.2992 74.751 11.1992 74.751ZM27.9992 34.101C21.5992 37.701 16.9492 44.001 15.4992 51.351C17.6992 49.101 20.2492 47.201 23.1492 45.801L27.9992 34.101Z" fill="#C8FADA"/>
<path d="M108.802 74.7508C106.752 74.7508 105.052 73.0508 105.052 71.0008C105.052 61.9508 99.0017 53.8508 90.4017 51.2008C89.4017 50.9008 88.5517 50.2008 88.1017 49.2508C87.6517 48.3008 87.6017 47.2008 88.0017 46.2508C90.3517 40.4008 90.9517 36.1508 90.0017 32.8508C89.9017 32.4008 89.8017 32.2008 89.7517 32.0008C89.1017 30.5508 89.4517 28.8508 90.6017 27.7508C91.7517 26.6508 93.5017 26.4008 94.9017 27.1508C105.802 32.8508 112.552 44.0508 112.552 56.3508V71.0008C112.552 73.0508 110.852 74.7508 108.802 74.7508ZM96.2517 45.4508C99.4017 46.9008 102.202 48.9508 104.552 51.4008C103.602 46.5008 101.252 42.0508 97.8017 38.5508C97.5517 40.6508 97.0517 42.9508 96.2517 45.4508Z" fill="#C8FADA"/>
</g>
</svg>
