<svg width="80" height="80" viewBox="0 0 80 80" fill="none" xmlns="http://www.w3.org/2000/svg">
<rect width="80" height="80" rx="40" fill="#C8FADA"/>
<path d="M39.9013 23.6837L35.8846 33.0337H31.868C31.2013 33.0337 30.5513 33.0837 29.918 33.217L31.5846 29.217L31.6513 29.067L31.7513 28.8004C31.8013 28.6837 31.8346 28.5837 31.8846 28.5004C33.818 24.017 35.9846 22.617 39.9013 23.6837Z" fill="#0C9E41"/>
<path d="M51.2159 33.4826L51.1826 33.4659C50.1826 33.1826 49.1659 33.0326 48.1326 33.0326H37.6992L41.4492 24.3159L41.4992 24.1992C41.7326 24.2826 41.9826 24.3992 42.2326 24.4826L45.9159 26.0326C47.9659 26.8826 49.3992 27.7659 50.2826 28.8326C50.4326 29.0326 50.5659 29.2159 50.6992 29.4326C50.8492 29.6659 50.9659 29.8992 51.0326 30.1492C51.0992 30.2992 51.1492 30.4326 51.1826 30.5826C51.4326 31.4326 51.4492 32.3992 51.2159 33.4826Z" fill="#0C9E41"/>
<path d="M40.8672 49.4335H41.2839C41.7839 49.4335 42.2005 48.9835 42.2005 48.4335C42.2005 47.7335 42.0005 47.6335 41.5672 47.4668L40.8672 47.2168V49.4335Z" fill="#0C9E41"/>
<path d="M50.4844 35.8665C49.7344 35.6499 48.951 35.5332 48.1344 35.5332H31.8677C30.7344 35.5332 29.6677 35.7499 28.6677 36.1832C25.7677 37.4332 23.7344 40.3165 23.7344 43.6665V46.9165C23.7344 47.3165 23.7677 47.6999 23.8177 48.0999C24.1844 53.3999 27.0177 56.2332 32.3177 56.5832C32.701 56.6332 33.0844 56.6665 33.501 56.6665H46.501C52.6677 56.6665 55.9177 53.7332 56.2344 47.8999C56.251 47.5832 56.2677 47.2499 56.2677 46.9165V43.6665C56.2677 39.9832 53.8177 36.8832 50.4844 35.8665ZM42.1344 45.8332C42.901 46.0999 43.9344 46.6665 43.9344 48.4332C43.9344 49.9499 42.751 51.1665 41.2844 51.1665H40.8677V51.5332C40.8677 52.0165 40.4844 52.3999 40.001 52.3999C39.5177 52.3999 39.1344 52.0165 39.1344 51.5332V51.1665H38.9844C37.3844 51.1665 36.0677 49.8165 36.0677 48.1499C36.0677 47.6665 36.451 47.2832 36.9344 47.2832C37.4177 47.2832 37.801 47.6665 37.801 48.1499C37.801 48.8499 38.3344 49.4332 38.9844 49.4332H39.1344V46.6165L37.8677 46.1665C37.101 45.8999 36.0677 45.3332 36.0677 43.5665C36.0677 42.0499 37.251 40.8332 38.7177 40.8332H39.1344V40.4665C39.1344 39.9832 39.5177 39.5999 40.001 39.5999C40.4844 39.5999 40.8677 39.9832 40.8677 40.4665V40.8332H41.0177C42.6177 40.8332 43.9344 42.1832 43.9344 43.8499C43.9344 44.3332 43.551 44.7165 43.0677 44.7165C42.5844 44.7165 42.201 44.3332 42.201 43.8499C42.201 43.1499 41.6677 42.5665 41.0177 42.5665H40.8677V45.3832L42.1344 45.8332Z" fill="#0C9E41"/>
<path d="M37.8008 43.5664C37.8008 44.2664 38.0008 44.3664 38.4341 44.5331L39.1341 44.7831V42.5664H38.7174C38.2008 42.5664 37.8008 43.0164 37.8008 43.5664Z" fill="#0C9E41"/>
</svg>
