<svg width="32" height="33" viewBox="0 0 32 33" fill="none" xmlns="http://www.w3.org/2000/svg">
<rect y="0.5" width="32" height="32" rx="16" fill="#D52C2C"/>
<path d="M22.8032 11.4225C21.5957 11.3025 20.3882 11.2125 19.1732 11.145V11.1375L19.0082 10.1625C18.8957 9.4725 18.7307 8.4375 16.9757 8.4375H15.0107C13.2632 8.4375 13.0982 9.4275 12.9782 10.155L12.8207 11.115C12.1232 11.16 11.4257 11.205 10.7282 11.2725L9.19823 11.4225C8.88323 11.4525 8.65823 11.73 8.68823 12.0375C8.71823 12.345 8.98823 12.57 9.30323 12.54L10.8332 12.39C14.7632 12 18.7232 12.15 22.6982 12.5475C22.7207 12.5475 22.7357 12.5475 22.7582 12.5475C23.0432 12.5475 23.2907 12.33 23.3207 12.0375C23.3432 11.73 23.1182 11.4525 22.8032 11.4225Z" fill="white"/>
<path d="M21.1015 13.0425C20.9215 12.855 20.674 12.75 20.419 12.75H10.939C10.684 12.75 10.429 12.855 10.2565 13.0425C10.084 13.23 9.98651 13.485 10.0015 13.7475L10.4665 21.4425C10.549 22.5825 10.654 24.0075 13.2715 24.0075H18.0865C20.704 24.0075 20.809 22.59 20.8915 21.4425L21.3565 13.755C21.3715 13.485 21.274 13.23 21.1015 13.0425ZM16.924 20.25H14.4265C14.119 20.25 13.864 19.995 13.864 19.6875C13.864 19.38 14.119 19.125 14.4265 19.125H16.924C17.2315 19.125 17.4865 19.38 17.4865 19.6875C17.4865 19.995 17.2315 20.25 16.924 20.25ZM17.554 17.25H13.804C13.4965 17.25 13.2415 16.995 13.2415 16.6875C13.2415 16.38 13.4965 16.125 13.804 16.125H17.554C17.8615 16.125 18.1165 16.38 18.1165 16.6875C18.1165 16.995 17.8615 17.25 17.554 17.25Z" fill="white"/>
</svg>
