<svg width="25" height="26" viewBox="0 0 25 26" fill="none" xmlns="http://www.w3.org/2000/svg">
<path d="M20.2026 9.45893L20.2025 9.45909C20.7012 9.50014 21.0735 9.93611 21.0336 10.4353L21.0335 10.4363C21.0331 10.4409 21.0301 10.477 21.0249 10.5411C20.9524 11.4286 20.4407 17.6964 20.1374 20.4329C20.0336 21.3674 19.6715 22.1289 19.0931 22.6612C18.5145 23.1936 17.7294 23.4874 16.7967 23.5045L16.7965 23.5045C15.4074 23.5285 14.0671 23.542 12.7569 23.542C11.3445 23.542 9.96758 23.5264 8.60534 23.4982C7.7073 23.4805 6.93993 23.1799 6.37126 22.6469C5.80284 22.1141 5.44115 21.357 5.33993 20.4402C5.01225 17.4858 4.45238 10.5349 4.44476 10.4352M20.2026 9.45893L6.78438 16.5604L6.73416 15.9984C6.48405 13.1812 6.25459 10.3344 6.25133 10.2901L6.25127 10.2893C6.21086 9.78478 5.76248 9.44572 5.28162 9.45872L5.28162 9.45854L5.27504 9.45907C4.7761 9.49894 4.4039 9.93617 4.44476 10.4352M20.2026 9.45893L20.1963 9.45873M20.2026 9.45893L20.1963 9.45873M4.44476 10.4352C4.44475 10.435 4.44473 10.4348 4.44472 10.4346L4.56938 10.4253M4.44476 10.4352C4.44477 10.4353 4.44479 10.4355 4.4448 10.4356L4.56938 10.4253M4.56938 10.4253C4.53396 9.99513 4.85479 9.61805 5.285 9.58367M4.56938 10.4253C4.57458 10.4951 5.13604 17.468 5.46417 20.4264L5.285 9.58367M5.285 9.58367C5.70896 9.57221 6.09229 9.87013 6.12667 10.2993L5.285 9.58367ZM20.1963 9.45873C19.7119 9.44334 19.2674 9.78564 19.2271 10.2893L19.3517 10.2993M20.1963 9.45873L7.14153 20.2407M7.14153 20.2407L7.14154 20.2408C7.19519 20.7287 7.35169 21.0816 7.59531 21.315C7.83809 21.5477 8.1827 21.6763 8.64277 21.6858L8.64286 21.6858C11.2452 21.741 13.9008 21.7441 16.7638 21.692C17.2565 21.6825 17.6179 21.5551 17.8696 21.322C18.1215 21.0887 18.2805 20.7335 18.3358 20.2335L18.3358 20.2334C18.6359 17.5287 19.143 11.318 19.2179 10.4015C19.2235 10.3325 19.2267 10.2935 19.2272 10.2883L19.3517 10.2993M7.14153 20.2407C7.03796 19.3053 6.91036 17.9608 6.78439 16.5605L7.14153 20.2407ZM19.3517 10.2993C19.386 9.87013 19.7663 9.57013 20.1923 9.58367L16.7663 21.817C17.7913 21.7972 18.3454 21.2847 18.46 20.2472C18.7607 17.5373 19.269 11.3109 19.3427 10.4086C19.3482 10.3418 19.3512 10.3042 19.3517 10.2993ZM17.1094 4.12805L17.1097 4.128L17.1076 4.12047C16.8461 3.14176 15.9559 2.45898 14.9431 2.45898H10.5338C9.51931 2.45898 8.63019 3.14339 8.35876 4.16759L8.35852 4.16753L8.35701 4.17511L8.10391 5.44165C8.03529 5.78311 7.75471 6.04066 7.41704 6.08618L7.31999 6.09232L3.90625 6.09336C3.90624 6.09336 3.90622 6.09336 3.90621 6.09336C3.40594 6.09338 3 6.49934 3 6.99961C3 7.49989 3.40596 7.90586 3.90625 7.90586H3.90629L7.28972 7.90482L7.30169 7.9056L7.30168 7.90586H7.30979L7.33503 7.90573L7.33629 7.90573L18.1391 7.90482L18.162 7.90575L18.162 7.90586H18.1671L18.1829 7.9057L21.5708 7.90586C22.0711 7.90586 22.4771 7.49989 22.4771 6.99961C22.4771 6.49932 22.0711 6.09336 21.5708 6.09336L18.1543 6.09326C18.154 6.09325 18.1537 6.09325 18.1534 6.09324C17.7751 6.08683 17.448 5.8144 17.3741 5.44193L17.374 5.44159L17.1094 4.12805ZM15.5966 5.79817C15.6169 5.89902 15.6428 5.99762 15.6741 6.09364H9.803C9.83424 5.99759 9.86013 5.89896 9.88029 5.79806L9.8803 5.79798L10.1222 4.58325C10.1723 4.40002 10.341 4.27148 10.5338 4.27148H14.9431C15.1419 4.27148 15.3059 4.40546 15.3444 4.53627L15.5966 5.79806L15.5966 5.79817Z" fill="#DD5853" stroke="#DD5853" stroke-width="0.25"/>
</svg>
