<svg width="32" height="32" viewBox="0 0 32 32" fill="none" xmlns="http://www.w3.org/2000/svg">
<g clip-path="url(#clip0_2690_42033)">
<path d="M15.9985 8.79475C18.8861 7.05681 20.9128 5.187 20.8758 3.18575C20.8757 1.42912 19.4467 0 17.69 0C17.0916 9.85204e-05 16.5054 0.168817 15.9985 0.486813C15.4916 0.168823 14.9053 0.000105276 14.3069 0C12.5503 0 11.1212 1.42912 11.1212 3.18575C11.1079 5.06194 12.8162 6.88569 15.9985 8.79475ZM14.3069 1.875C15.0716 1.85206 15.5634 2.65756 15.9985 3.12875C16.3913 2.68819 17.0025 1.80519 17.69 1.875C18.4128 1.875 19.0008 2.463 19.0008 3.18575C19.0008 3.83619 18.4646 4.93975 15.9985 6.57381C13.5324 4.93975 12.9962 3.83619 12.9962 3.18575C12.9962 2.463 13.5842 1.875 14.3069 1.875Z" fill="#FF8762"/>
<path d="M26.9476 18.6072C28.3008 17.5751 29.1758 15.9465 29.1758 14.1171C29.1758 11.0047 26.6437 8.47259 23.5313 8.47259C20.4189 8.47259 17.8868 11.0047 17.8868 14.1171C17.8868 15.9464 18.7618 17.5749 20.1149 18.607C19.7852 18.7529 19.4651 18.9197 19.1567 19.1064C18.3215 18.3488 17.2138 17.8867 16.0001 17.8867C15.3825 17.8862 14.771 18.008 14.2008 18.2452C13.5172 17.615 12.7348 17.1014 11.8848 16.7247C13.2382 15.6926 14.1133 14.0638 14.1133 12.2343C14.1133 9.12191 11.5812 6.58984 8.46881 6.58984C5.35644 6.58984 2.82431 9.12197 2.82431 12.2343C2.82431 14.0637 3.69931 15.6923 5.0525 16.7244C2.07956 18.0402 0 21.0179 0 24.4725V31.9999H32V26.3554C32 22.9007 29.9204 19.923 26.9476 18.6072ZM19.7617 14.1171C19.7617 12.0385 21.4527 10.3476 23.5312 10.3476C25.6098 10.3476 27.3008 12.0386 27.3008 14.1171C27.3008 16.1956 25.6098 17.8866 23.5312 17.8866C21.4527 17.8866 19.7617 16.1957 19.7617 14.1171ZM18.8281 22.5898C18.8281 24.1492 17.5594 25.4179 16 25.4179C14.4406 25.4179 13.1719 24.1492 13.1719 22.5898C13.1719 21.0303 14.4406 19.7617 16 19.7617C17.5594 19.7617 18.8281 21.0303 18.8281 22.5898ZM4.69919 12.2343C4.69919 10.1557 6.39019 8.46478 8.46875 8.46478C10.5473 8.46478 12.2382 10.1558 12.2382 12.2343C12.2382 14.3128 10.5472 16.0038 8.46875 16.0038C6.39025 16.0038 4.69919 14.3128 4.69919 12.2343ZM10.4338 30.1249H1.875V24.4725C1.875 20.8367 4.83294 17.8788 8.46875 17.8788C10.0334 17.8788 11.4723 18.427 12.6041 19.341C11.7954 20.186 11.2969 21.3304 11.2969 22.5897C11.2969 24.0677 11.9827 25.3878 13.0522 26.2507C11.6897 27.0885 10.7085 28.4883 10.4338 30.1249ZM12.3484 30.1249C12.7662 28.4984 14.2449 27.2929 16 27.2929C17.7551 27.2929 19.2337 28.4984 19.6516 30.1249H12.3484ZM30.125 30.1249H21.5662C21.2915 28.4883 20.3103 27.0885 18.9478 26.2507C20.0173 25.3878 20.7031 24.0677 20.7031 22.5897C20.7036 21.9116 20.5564 21.2415 20.2719 20.626C21.2339 20.0765 22.3463 19.7616 23.5312 19.7616C27.1671 19.7616 30.125 22.7195 30.125 26.3553V30.1249Z" fill="#FF8762"/>
</g>
<defs>
<clipPath id="clip0_2690_42033">
<rect width="32" height="32" fill="white"/>
</clipPath>
</defs>
</svg>
