<svg width="40" height="40" viewBox="0 0 40 40" fill="none" xmlns="http://www.w3.org/2000/svg">
<rect width="40" height="40" rx="20" fill="white"/>
<path fill-rule="evenodd" clip-rule="evenodd" d="M28.153 14.7536C28.5042 14.5964 28.9174 14.7514 29.0758 15.0999C29.5103 16.0554 30 17.655 30 20C30 22.023 29.6356 23.4919 29.2558 24.4716C29.0663 24.9606 28.8738 25.3254 28.7232 25.5745C28.648 25.6989 28.5832 25.7944 28.5347 25.8619C28.5104 25.8956 28.4901 25.9224 28.4746 25.9423C28.4668 25.9523 28.4602 25.9605 28.4549 25.9671L28.448 25.9756L28.4452 25.979L28.444 25.9804C28.444 25.9804 28.4429 25.9817 27.907 25.5385L28.4429 25.9817C28.1963 26.2754 27.7563 26.3151 27.4603 26.0703C27.1658 25.8267 27.1247 25.3932 27.3675 25.0995C27.3675 25.0995 27.3691 25.0974 27.3707 25.0954C27.3756 25.0891 27.3854 25.0763 27.3992 25.0571C27.4269 25.0186 27.4712 24.9539 27.5267 24.8621C27.6378 24.6784 27.7942 24.3855 27.9535 23.9746C28.2714 23.1543 28.6046 21.8539 28.6046 20C28.6046 17.8526 28.1576 16.4471 27.804 15.6694C27.6455 15.3209 27.8018 14.9109 28.153 14.7536Z" fill="#5A53DD"/>
<path fill-rule="evenodd" clip-rule="evenodd" d="M26.1991 17.476C26.5763 17.3983 26.9457 17.6387 27.024 18.0131C27.1265 18.5028 27.2093 19.159 27.2093 20C27.2093 21.0247 27.0863 21.7749 26.9549 22.2835C26.8892 22.5375 26.8217 22.7304 26.767 22.8662C26.7396 22.9341 26.7155 22.9877 26.6964 23.0274C26.6869 23.0472 26.6786 23.0636 26.6719 23.0766L26.6629 23.0936L26.6593 23.1001L26.6578 23.1029L26.6571 23.1042C26.6571 23.1042 26.6564 23.1054 26.0465 22.7692L26.6564 23.1054C26.4693 23.4397 26.0445 23.5601 25.7077 23.3744C25.3737 23.1903 25.2516 22.7744 25.4319 22.4416L25.4366 22.4321C25.443 22.4188 25.4552 22.3923 25.4714 22.352C25.5039 22.2715 25.5526 22.1355 25.6033 21.9396C25.7044 21.5481 25.814 20.9137 25.814 20C25.814 19.2498 25.7401 18.688 25.6578 18.2946C25.5795 17.9202 25.8218 17.5537 26.1991 17.476Z" fill="#5A53DD"/>
<path d="M29.3305 12.1818C29.603 11.9115 29.603 11.4731 29.3305 11.2028C29.0581 10.9324 28.6163 10.9324 28.3439 11.2028L24.2051 15.3097C24.1624 14.8265 24.1066 14.3987 24.0251 14.0275C23.8653 13.2997 23.5817 12.6669 22.9869 12.2521C22.7683 12.0996 22.5248 11.9767 22.2719 11.8911C21.5108 11.6333 20.7543 11.8393 19.9859 12.2097C19.2291 12.5746 18.3108 13.1754 17.1658 13.9245L16.9176 14.0869C16.501 14.3595 16.3577 14.4506 16.2094 14.5155C16.0507 14.585 15.8839 14.6347 15.7129 14.6633C15.5531 14.6901 15.3829 14.6923 14.8838 14.6923L14.734 14.6923C13.602 14.6917 12.8154 14.6913 12.1162 15.0123C11.4699 15.309 10.8478 15.8898 10.51 16.5119C10.1448 17.1846 10.1019 17.888 10.041 18.8882L10.0337 19.0086C10.0128 19.3486 10 19.6847 10 20C10 20.3153 10.0128 20.6515 10.0337 20.9914L10.041 21.1119C10.1019 22.1121 10.1448 22.8155 10.51 23.4881C10.8478 24.1102 11.4699 24.691 12.1162 24.9878C12.6842 25.2485 13.3098 25.2972 14.1314 25.306L11.5997 27.8182C11.3272 28.0885 11.3272 28.5269 11.5997 28.7972C11.8722 29.0676 12.3139 29.0676 12.5864 28.7972L29.3305 12.1818Z" fill="#5A53DD"/>
<path d="M24.4186 20C24.4186 19.6176 24.1062 19.3077 23.7209 19.3077C23.5399 19.3077 23.3749 19.3761 23.2509 19.4883L23.1846 19.5572L17.6046 25.3484C17.2832 25.6819 17.3577 26.2253 17.7571 26.4616C18.7235 27.0899 19.5232 27.5921 20.2051 27.8913C20.8956 28.1944 21.5816 28.3427 22.2719 28.109C22.5248 28.0233 22.7683 27.9004 22.9869 27.7479C23.6437 27.2899 23.9217 26.5662 24.0724 25.7359C24.2204 24.9196 24.2711 23.8378 24.3342 22.4902L24.3367 22.4371C24.3849 21.4079 24.4186 20.5095 24.4186 20Z" fill="#5A53DD"/>
</svg>
