<svg width="80" height="80" viewBox="0 0 80 80" fill="none" xmlns="http://www.w3.org/2000/svg">
<rect width="80" height="80" rx="40" fill="#F9EED3"/>
<path d="M47.9184 25.934V23.334C47.9184 22.6507 47.3517 22.084 46.6684 22.084C45.985 22.084 45.4184 22.6507 45.4184 23.334V25.834H34.585V23.334C34.585 22.6507 34.0184 22.084 33.335 22.084C32.6517 22.084 32.085 22.6507 32.085 23.334V25.934C27.585 26.3507 25.4017 29.034 25.0684 33.0173C25.035 33.5007 25.435 33.9007 25.9017 33.9007H54.1017C54.585 33.9007 54.985 33.484 54.935 33.0173C54.6017 29.034 52.4184 26.3507 47.9184 25.934Z" fill="#D29A08"/>
<path d="M53.3333 36.4004H26.6667C25.75 36.4004 25 37.1504 25 38.0671V48.3337C25 53.3337 27.5 56.6671 33.3333 56.6671H46.6667C52.5 56.6671 55 53.3337 55 48.3337V38.0671C55 37.1504 54.25 36.4004 53.3333 36.4004ZM35.35 50.3504C35.1833 50.5004 35 50.6171 34.8 50.7004C34.6 50.7837 34.3833 50.8337 34.1667 50.8337C33.95 50.8337 33.7333 50.7837 33.5333 50.7004C33.3333 50.6171 33.15 50.5004 32.9833 50.3504C32.6833 50.0337 32.5 49.6004 32.5 49.1671C32.5 48.7337 32.6833 48.3004 32.9833 47.9837C33.15 47.8337 33.3333 47.7171 33.5333 47.6337C33.9333 47.4671 34.4 47.4671 34.8 47.6337C35 47.7171 35.1833 47.8337 35.35 47.9837C35.65 48.3004 35.8333 48.7337 35.8333 49.1671C35.8333 49.6004 35.65 50.0337 35.35 50.3504ZM35.7 43.9671C35.6167 44.1671 35.5 44.3504 35.35 44.5171C35.1833 44.6671 35 44.7837 34.8 44.8671C34.6 44.9504 34.3833 45.0004 34.1667 45.0004C33.95 45.0004 33.7333 44.9504 33.5333 44.8671C33.3333 44.7837 33.15 44.6671 32.9833 44.5171C32.8333 44.3504 32.7167 44.1671 32.6333 43.9671C32.55 43.7671 32.5 43.5504 32.5 43.3337C32.5 43.1171 32.55 42.9004 32.6333 42.7004C32.7167 42.5004 32.8333 42.3171 32.9833 42.1504C33.15 42.0004 33.3333 41.8837 33.5333 41.8004C33.9333 41.6337 34.4 41.6337 34.8 41.8004C35 41.8837 35.1833 42.0004 35.35 42.1504C35.5 42.3171 35.6167 42.5004 35.7 42.7004C35.7833 42.9004 35.8333 43.1171 35.8333 43.3337C35.8333 43.5504 35.7833 43.7671 35.7 43.9671ZM41.1833 44.5171C41.0167 44.6671 40.8333 44.7837 40.6333 44.8671C40.4333 44.9504 40.2167 45.0004 40 45.0004C39.7833 45.0004 39.5667 44.9504 39.3667 44.8671C39.1667 44.7837 38.9833 44.6671 38.8167 44.5171C38.5167 44.2004 38.3333 43.7671 38.3333 43.3337C38.3333 42.9004 38.5167 42.4671 38.8167 42.1504C38.9833 42.0004 39.1667 41.8837 39.3667 41.8004C39.7667 41.6171 40.2333 41.6171 40.6333 41.8004C40.8333 41.8837 41.0167 42.0004 41.1833 42.1504C41.4833 42.4671 41.6667 42.9004 41.6667 43.3337C41.6667 43.7671 41.4833 44.2004 41.1833 44.5171Z" fill="#D29A08"/>
</svg>
