<svg version="1.0" xmlns="http://www.w3.org/2000/svg"
 width="60" height="60" viewBox="0 0 200.000000 200.000000"
 preserveAspectRatio="xMidYMid meet">

<g transform="translate(0.000000,200.000000) scale(0.100000,-0.100000)"
fill="#b5b5b5" stroke="none">
<path d="M873 1805 c-194 -53 -331 -211 -358 -416 -6 -46 -7 -47 -53 -59 -100
-25 -192 -104 -240 -208 -22 -48 -27 -71 -26 -142 0 -113 32 -188 115 -264 96
-89 132 -99 395 -104 l221 -4 11 -62 c55 -295 372 -452 634 -314 194 102 281
327 208 536 -18 51 -19 59 -5 106 57 193 -53 397 -246 454 l-55 16 -11 69
c-44 278 -324 463 -590 392z m280 -123 c78 -39 148 -111 185 -190 22 -47 27
-73 28 -152 l2 -95 74 -5 c107 -8 178 -57 224 -155 21 -44 35 -155 19 -155 -2
0 -28 18 -57 40 -235 178 -585 62 -678 -223 l-12 -39 -222 4 c-207 3 -224 4
-268 26 -65 32 -123 99 -142 163 -20 65 -20 92 -1 155 32 108 135 184 251 184
l60 0 0 93 c-1 89 1 98 37 170 42 84 103 147 177 180 68 31 98 36 182 33 62
-2 89 -9 141 -34z m363 -763 c202 -97 253 -359 103 -524 -30 -32 -73 -65 -107
-82 -49 -24 -69 -28 -142 -28 -71 0 -94 4 -140 26 -70 33 -132 95 -167 167
-23 48 -28 70 -28 137 0 67 5 90 29 142 80 175 279 246 452 162z"/>
<path d="M1332 838 c-15 -15 -17 -241 -2 -269 7 -12 21 -19 40 -19 19 0 33 7
40 19 13 25 13 237 0 262 -12 22 -59 26 -78 7z"/>
<path d="M1337 482 c-24 -27 -21 -59 8 -78 23 -15 27 -15 50 0 32 21 33 59 3
80 -29 21 -41 20 -61 -2z"/>
</g>
</svg>
