<svg width="115" height="114" viewBox="0 0 115 114" fill="none" xmlns="http://www.w3.org/2000/svg">
<g opacity="0.2">
<path d="M78.34 108.344C60.8392 108.344 46.6337 94.6287 46.6337 77.7068C46.6337 60.785 60.8392 47.0693 78.34 47.0693C91.7884 47.0693 110.046 58.4248 110.046 77.7068C110.046 94.6287 95.8407 108.344 78.34 108.344ZM78.2064 51.6561C63.3329 51.6561 51.265 63.3232 51.265 77.6623C51.265 92.0459 63.3329 103.669 78.2064 103.669C93.0798 103.669 105.148 92.0014 105.148 77.6623C105.148 63.3232 93.0798 51.6561 78.2064 51.6561ZM94.8165 90.799L91.6993 93.8272L78.5626 80.9576L65.4259 93.8272L62.3087 90.799L75.4454 77.9295L61.9524 64.7482L65.0696 61.7201L78.6071 74.9459L92.1446 61.7201L95.2618 64.7482L81.7243 77.974L94.8165 90.799ZM36.8814 74.2334C37.1931 74.2334 37.4603 75.3912 37.4603 76.7717C37.4603 78.1967 37.1931 79.31 36.8814 79.31H20.1821C19.8704 79.31 19.6032 78.1522 19.6032 76.7717C19.6032 75.3467 19.8704 74.2334 20.1821 74.2334H36.8814ZM43.8282 62.8779H20.4048C19.9595 62.8779 19.6032 61.7201 19.6032 60.3397C19.6032 58.9592 19.9595 57.8014 20.4048 57.8014H43.8282C44.2735 57.8014 44.6298 58.9592 44.6298 60.3397C44.6298 61.7201 44.2735 62.8779 43.8282 62.8779ZM71.8384 28.4998H21.34C20.3603 28.4998 19.6032 27.342 19.6032 25.9615C19.6032 24.5365 20.4048 23.4232 21.34 23.4232H71.8384C72.8181 23.4232 73.5751 24.5811 73.5751 25.9615C73.5751 27.3865 72.7735 28.4998 71.8384 28.4998ZM71.8384 45.2881H21.34C20.3603 45.2881 19.6032 44.1303 19.6032 42.7498C19.6032 41.3248 20.4048 40.2115 21.34 40.2115H71.8384C72.8181 40.2115 73.5751 41.3693 73.5751 42.7498C73.5751 44.1748 72.7735 45.2881 71.8384 45.2881ZM99.5814 50.2756C98.379 48.9842 94.015 48.8506 94.015 48.8506C94.015 48.8506 94.1931 24.9818 94.1931 18.124C94.1931 11.2662 89.5173 11.8896 89.5173 11.8896C29.8899 12.0232 29.8009 11.9787 20.3603 12.2459C10.4298 12.5131 11.0532 19.8162 11.0532 19.8162C11.0532 19.8162 10.7415 74.1443 10.7415 86.8803C10.7415 99.6162 16.6196 97.835 16.6196 97.835C16.6196 97.835 46.6337 98.1912 50.2407 98.1912C49.84 100.908 51.3985 103.802 51.3985 103.802C51.3985 103.802 26.7728 103.936 15.1946 103.669C3.61651 103.401 4.99698 96.41 4.99698 96.41C4.99698 96.41 4.99698 23.3342 4.99698 16.7436C4.72979 5.20996 15.2392 5.8334 15.2392 5.8334C15.2392 5.8334 85.2423 5.43262 92.5009 5.8334C99.7595 6.18965 99.6259 17.7678 99.6259 17.7678C99.6259 17.7678 99.5814 46.535 99.5814 50.2756Z" fill="#5A53DD"/>
</g>
</svg>
