<svg width="40" height="40" viewBox="0 0 40 40" fill="none" xmlns="http://www.w3.org/2000/svg">
<rect width="40" height="40" rx="20" fill="white"/>
<path d="M28.25 12.5H11.75C11.3522 12.5 10.9706 12.658 10.6893 12.9393C10.408 13.2206 10.25 13.6022 10.25 14V26C10.25 26.3978 10.408 26.7794 10.6893 27.0607C10.9706 27.342 11.3522 27.5 11.75 27.5H28.25C28.6478 27.5 29.0294 27.342 29.3107 27.0607C29.592 26.7794 29.75 26.3978 29.75 26V14C29.75 13.6022 29.592 13.2206 29.3107 12.9393C29.0294 12.658 28.6478 12.5 28.25 12.5ZM11.75 14H28.25V19.25H20.75C20.5511 19.25 20.3603 19.329 20.2197 19.4697C20.079 19.6103 20 19.8011 20 20V26H11.75V14ZM28.25 26H21.5V20.75H28.25V26Z" fill="#5A53DD"/>
</svg>
