<svg width="56" height="56" viewBox="0 0 56 56" fill="none" xmlns="http://www.w3.org/2000/svg">
<rect width="56" height="56" rx="28" fill="white"/>
<path fill-rule="evenodd" clip-rule="evenodd" d="M37.512 21.8792C37.9217 21.6958 38.4038 21.8767 38.5887 22.2833C39.0955 23.398 39.6668 25.2642 39.6668 28C39.6668 30.3601 39.2416 32.0739 38.7986 33.2169C38.5775 33.7874 38.353 34.213 38.1773 34.5035C38.0895 34.6488 38.014 34.7601 37.9573 34.8389C37.9289 34.8783 37.9053 34.9095 37.8872 34.9327C37.8781 34.9443 37.8704 34.9539 37.8643 34.9616L37.8561 34.9716L37.8529 34.9755L37.8515 34.9771C37.8515 34.9771 37.8503 34.9786 37.225 34.4615L37.8503 34.9786C37.5625 35.3213 37.0492 35.3676 36.7039 35.082C36.3602 34.7978 36.3123 34.2921 36.5955 33.9494C36.5955 33.9494 36.5975 33.947 36.5993 33.9446C36.6051 33.9372 36.6164 33.9224 36.6326 33.8999C36.6649 33.855 36.7166 33.7796 36.7814 33.6724C36.9109 33.4582 37.0934 33.1164 37.2792 32.637C37.6501 31.68 38.0389 30.1629 38.0389 28C38.0389 25.4947 37.5173 23.8549 37.1048 22.9476C36.9199 22.541 37.1022 22.0627 37.512 21.8792Z" fill="#5A53DD"/>
<path fill-rule="evenodd" clip-rule="evenodd" d="M35.2324 25.0553C35.6726 24.9646 36.1035 25.2452 36.1948 25.682C36.3144 26.2532 36.411 27.0189 36.411 28C36.411 29.1955 36.2675 30.0708 36.1142 30.6641C36.0376 30.9605 35.9588 31.1855 35.8949 31.344C35.863 31.4232 35.8349 31.4856 35.8126 31.532C35.8015 31.5551 35.7919 31.5742 35.784 31.5894L35.7736 31.6092L35.7694 31.6168L35.7676 31.6201L35.7667 31.6216C35.7667 31.6216 35.7659 31.623 35.0544 31.2308L35.7659 31.623C35.5476 32.013 35.0521 32.1535 34.6591 31.9368C34.2695 31.722 34.127 31.2368 34.3374 30.8485L34.3429 30.8374C34.3503 30.8219 34.3645 30.791 34.3835 30.744C34.4213 30.6501 34.4782 30.4915 34.5373 30.2628C34.6553 29.8062 34.7831 29.066 34.7831 28C34.7831 27.1248 34.697 26.4694 34.6009 26.0103C34.5095 25.5736 34.7923 25.146 35.2324 25.0553Z" fill="#5A53DD"/>
<path d="M38.8858 18.8788C39.2037 18.5634 39.2037 18.052 38.8858 17.7366C38.5679 17.4211 38.0526 17.4211 37.7347 17.7366L32.9061 22.528C32.8563 21.9642 32.7912 21.4652 32.6961 21.0321C32.5097 20.183 32.1788 19.4447 31.4849 18.9608C31.2298 18.7829 30.9458 18.6395 30.6507 18.5396C29.7628 18.2389 28.8801 18.4792 27.9837 18.9114C27.1007 19.337 26.0294 20.0379 24.6936 20.9119L24.4041 21.1014C23.918 21.4194 23.7508 21.5257 23.5778 21.6014C23.3927 21.6825 23.1981 21.7405 22.9985 21.7739C22.8121 21.8051 22.6135 21.8077 22.0313 21.8077L21.8565 21.8077C20.5358 21.807 19.6182 21.8065 18.8024 22.181C18.0484 22.5272 17.3226 23.2048 16.9285 23.9306C16.5024 24.7153 16.4524 25.536 16.3813 26.7029L16.3728 26.8434C16.3484 27.24 16.3335 27.6322 16.3335 28C16.3335 28.3679 16.3484 28.7601 16.3728 29.1567L16.3813 29.2972C16.4524 30.4641 16.5024 31.2847 16.9285 32.0695C17.3226 32.7953 18.0484 33.4729 18.8024 33.8191C19.4651 34.1233 20.1949 34.1801 21.1534 34.1903L18.1998 37.1212C17.8819 37.4366 17.8819 37.948 18.1998 38.2634C18.5177 38.5789 19.033 38.5789 19.3509 38.2634L38.8858 18.8788Z" fill="#5A53DD"/>
<path d="M33.1552 28C33.1552 27.5539 32.7908 27.1923 32.3412 27.1923C32.13 27.1923 31.9376 27.2721 31.7929 27.4031L31.7156 27.4834L25.2055 34.2398C24.8306 34.6289 24.9175 35.2629 25.3835 35.5385C26.5109 36.2716 27.4439 36.8574 28.2394 37.2066C29.045 37.5602 29.8454 37.7332 30.6507 37.4605C30.9458 37.3606 31.2298 37.2171 31.4849 37.0392C32.2512 36.5049 32.5755 35.6605 32.7512 34.6919C32.924 33.7395 32.9831 32.4774 33.0567 30.9052L33.0596 30.8433C33.1158 29.6426 33.1552 28.5945 33.1552 28Z" fill="#5A53DD"/>
</svg>
