<svg width="160" height="160" viewBox="0 0 160 160" fill="none" xmlns="http://www.w3.org/2000/svg">
<g clip-path="url(#clip0_1611_69857)">
<path d="M146.667 80.0002C146.667 116.817 116.817 146.667 80.0006 146.667C43.184 146.667 13.334 116.817 13.334 80.0002C13.334 43.1835 43.184 13.3335 80.0006 13.3335C116.817 13.3335 146.667 43.1835 146.667 80.0002Z" fill="#CAC7FF"/>
<path d="M146.452 14.576L63.8613 100.281L77.4202 113.347L160.011 27.6422L146.452 14.576Z" fill="#5A53DD"/>
<path d="M127.986 33.7231L63.8594 100.286L77.416 113.35L139.166 49.2565C136.193 43.5465 132.416 38.3165 127.986 33.7231Z" fill="#5A53DD"/>
<path d="M49.9129 60.8925L36.877 74.4805L77.4245 113.38L90.4604 99.7925L49.9129 60.8925Z" fill="#8983F7"/>
</g>
<defs>
<clipPath id="clip0_1611_69857">
<rect width="160" height="160" fill="white"/>
</clipPath>
</defs>
</svg>
