<svg width="32" height="32" viewBox="0 0 32 32" fill="none" xmlns="http://www.w3.org/2000/svg">
<g clip-path="url(#clip0_2690_42025)">
<path d="M20.865 19.375H32V16.5901C32 13.1631 29.8887 10.2194 26.8987 8.99194C27.9768 8.05175 28.6594 6.66819 28.6594 5.12819C28.6594 2.30056 26.3586 0 23.5312 0C20.7039 0 18.4031 2.30056 18.4031 5.12813C18.4031 6.66819 19.0857 8.05175 20.1638 8.99194C18.4268 9.70506 16.9868 10.9968 16.0849 12.6263C16.0569 12.625 16.0288 12.625 16 12.625C15.9712 12.625 15.9431 12.625 15.915 12.6263C15.0131 10.9969 13.5732 9.70506 11.8362 8.99194C12.9143 8.05175 13.5969 6.66819 13.5969 5.12819C13.5969 2.30056 11.2961 0 8.46875 0C5.64138 0 3.34063 2.30056 3.34063 5.12813C3.34063 6.66819 4.02319 8.05175 5.10131 8.99194C2.11131 10.2194 0 13.1631 0 16.5901V19.375H11.135C11.4275 20.2512 11.9506 21.0225 12.6326 21.6169C9.64256 22.8444 7.53125 25.7881 7.53125 29.2151V32H24.4688V29.2151C24.4688 25.7881 22.3574 22.8444 19.3674 21.6169C20.0493 21.0224 20.5725 20.2512 20.8649 19.375H20.865ZM16 21.0064C14.7961 21.0064 13.7431 20.3494 13.1811 19.375C12.896 18.8821 12.7462 18.3226 12.7468 17.7531C12.7468 17.6682 12.75 17.5837 12.7564 17.5C12.8538 16.2451 13.6663 15.1868 14.7856 14.7356C14.9565 14.6665 15.133 14.6121 15.3132 14.5732C15.5389 14.5242 15.7691 14.4997 16 14.5C16.2356 14.5 16.4656 14.5249 16.6868 14.5732C16.8686 14.6126 17.0449 14.667 17.2144 14.7356C18.3337 15.1868 19.1462 16.2451 19.2436 17.5C19.25 17.5842 19.2532 17.6687 19.2532 17.7531C19.2532 18.343 19.095 18.897 18.8188 19.375C18.2568 20.3494 17.2038 21.0064 16 21.0064ZM23.5312 1.875C25.325 1.875 26.7844 3.3345 26.7844 5.12813C26.7844 6.92188 25.325 8.38138 23.5312 8.38138C21.7375 8.38138 20.2781 6.92188 20.2781 5.12819C20.2781 3.33438 21.7375 1.875 23.5312 1.875ZM23.2712 10.2564H23.7913C27.2838 10.2564 30.125 13.0974 30.125 16.5901V17.5H21.1219C21.0244 15.5007 19.7756 13.7981 18.0264 13.0432C19.1663 11.3626 21.0918 10.2563 23.2712 10.2563V10.2564ZM8.46875 1.875C10.2625 1.875 11.7219 3.3345 11.7219 5.12813C11.7219 6.92188 10.2625 8.38138 8.46875 8.38138C6.675 8.38138 5.21562 6.92188 5.21562 5.12819C5.21562 3.33438 6.675 1.875 8.46875 1.875ZM1.875 16.5901C1.875 13.0974 4.71625 10.2563 8.20875 10.2563H8.72875C10.9082 10.2563 12.8337 11.3626 13.9736 13.0432C12.2244 13.7981 10.9756 15.5007 10.8782 17.5H1.875V16.5901ZM16.26 22.8813C19.7525 22.8813 22.5938 25.7224 22.5938 29.2151V30.125H9.40625V29.2151C9.40625 25.7224 12.2475 22.8813 15.74 22.8813H16.26Z" fill="#009600"/>
</g>
<defs>
<clipPath id="clip0_2690_42025">
<rect width="32" height="32" fill="white"/>
</clipPath>
</defs>
</svg>
