<svg width="187" height="34" viewBox="0 0 187 34" fill="none" xmlns="http://www.w3.org/2000/svg">
<path d="M49.3758 20.92H56.0198V24H45.1078V21.14L51.7078 11.636H45.1078V8.556H56.0198V11.416L49.3758 20.92ZM65.7813 24.154C64.3293 24.154 62.9946 23.8167 61.7773 23.142C60.5746 22.4673 59.6139 21.5287 58.8953 20.326C58.1913 19.1087 57.8393 17.7447 57.8393 16.234C57.8393 14.7233 58.1913 13.3667 58.8953 12.164C59.6139 10.9613 60.5746 10.0227 61.7773 9.348C62.9946 8.67333 64.3293 8.336 65.7813 8.336C67.2333 8.336 68.5606 8.67333 69.7633 9.348C70.9806 10.0227 71.9339 10.9613 72.6233 12.164C73.3273 13.3667 73.6793 14.7233 73.6793 16.234C73.6793 17.7447 73.3273 19.1087 72.6233 20.326C71.9193 21.5287 70.9659 22.4673 69.7633 23.142C68.5606 23.8167 67.2333 24.154 65.7813 24.154ZM65.7813 20.722C67.0133 20.722 67.9959 20.3113 68.7293 19.49C69.4773 18.6687 69.8513 17.5833 69.8513 16.234C69.8513 14.87 69.4773 13.7847 68.7293 12.978C67.9959 12.1567 67.0133 11.746 65.7813 11.746C64.5346 11.746 63.5373 12.1493 62.7893 12.956C62.0559 13.7627 61.6893 14.8553 61.6893 16.234C61.6893 17.598 62.0559 18.6907 62.7893 19.512C63.5373 20.3187 64.5346 20.722 65.7813 20.722ZM83.0762 24.154C81.6242 24.154 80.2895 23.8167 79.0722 23.142C77.8695 22.4673 76.9089 21.5287 76.1902 20.326C75.4862 19.1087 75.1342 17.7447 75.1342 16.234C75.1342 14.7233 75.4862 13.3667 76.1902 12.164C76.9089 10.9613 77.8695 10.0227 79.0722 9.348C80.2895 8.67333 81.6242 8.336 83.0762 8.336C84.5282 8.336 85.8555 8.67333 87.0582 9.348C88.2755 10.0227 89.2289 10.9613 89.9182 12.164C90.6222 13.3667 90.9742 14.7233 90.9742 16.234C90.9742 17.7447 90.6222 19.1087 89.9182 20.326C89.2142 21.5287 88.2609 22.4673 87.0582 23.142C85.8555 23.8167 84.5282 24.154 83.0762 24.154ZM83.0762 20.722C84.3082 20.722 85.2909 20.3113 86.0242 19.49C86.7722 18.6687 87.1462 17.5833 87.1462 16.234C87.1462 14.87 86.7722 13.7847 86.0242 12.978C85.2909 12.1567 84.3082 11.746 83.0762 11.746C81.8295 11.746 80.8322 12.1493 80.0842 12.956C79.3509 13.7627 78.9842 14.8553 78.9842 16.234C78.9842 17.598 79.3509 18.6907 80.0842 19.512C80.8322 20.3187 81.8295 20.722 83.0762 20.722ZM110.557 8.556V24H106.795V14.738L103.341 24H100.305L96.8291 14.716V24H93.0671V8.556H97.5111L101.845 19.248L106.135 8.556H110.557ZM115.154 10.448C114.494 10.448 113.952 10.2573 113.526 9.876C113.116 9.48 112.91 8.996 112.91 8.424C112.91 7.83733 113.116 7.35333 113.526 6.972C113.952 6.576 114.494 6.378 115.154 6.378C115.8 6.378 116.328 6.576 116.738 6.972C117.164 7.35333 117.376 7.83733 117.376 8.424C117.376 8.996 117.164 9.48 116.738 9.876C116.328 10.2573 115.8 10.448 115.154 10.448ZM117.024 11.724V24H113.262V11.724H117.024ZM133.567 24H129.805L123.513 14.474V24H119.751V8.556H123.513L129.805 18.126V8.556H133.567V24ZM144.718 21.096H149.646V24H140.956V8.556H144.718V21.096ZM153.332 10.448C152.672 10.448 152.13 10.2573 151.704 9.876C151.294 9.48 151.088 8.996 151.088 8.424C151.088 7.83733 151.294 7.35333 151.704 6.972C152.13 6.576 152.672 6.378 153.332 6.378C153.978 6.378 154.506 6.576 154.916 6.972C155.342 7.35333 155.554 7.83733 155.554 8.424C155.554 8.996 155.342 9.48 154.916 9.876C154.506 10.2573 153.978 10.448 153.332 10.448ZM155.202 11.724V24H151.44V11.724H155.202ZM172.426 8.556L166.948 24H162.24L156.762 8.556H160.766L164.594 20.216L168.444 8.556H172.426ZM177.761 11.57V14.694H182.799V17.598H177.761V20.986H183.459V24H173.999V8.556H183.459V11.57H177.761Z" fill="white"/>
<path d="M49.3758 20.92L49.2008 20.7977L48.966 21.1335H49.3758V20.92ZM56.0198 20.92H56.2333V20.7065H56.0198V20.92ZM56.0198 24V24.2135H56.2333V24H56.0198ZM45.1078 24H44.8943V24.2135H45.1078V24ZM45.1078 21.14L44.9324 21.0182L44.8943 21.0731V21.14H45.1078ZM51.7078 11.636L51.8832 11.7578L52.116 11.4225H51.7078V11.636ZM45.1078 11.636H44.8943V11.8495H45.1078V11.636ZM45.1078 8.556V8.34249H44.8943V8.556H45.1078ZM56.0198 8.556H56.2333V8.34249H56.0198V8.556ZM56.0198 11.416L56.1948 11.5383L56.2333 11.4832V11.416H56.0198ZM49.3758 21.1335H56.0198V20.7065H49.3758V21.1335ZM55.8063 20.92V24H56.2333V20.92H55.8063ZM56.0198 23.7865H45.1078V24.2135H56.0198V23.7865ZM45.3213 24V21.14H44.8943V24H45.3213ZM45.2832 21.2618L51.8832 11.7578L51.5324 11.5142L44.9324 21.0182L45.2832 21.2618ZM51.7078 11.4225H45.1078V11.8495H51.7078V11.4225ZM45.3213 11.636V8.556H44.8943V11.636H45.3213ZM45.1078 8.76951H56.0198V8.34249H45.1078V8.76951ZM55.8063 8.556V11.416H56.2333V8.556H55.8063ZM55.8448 11.2937L49.2008 20.7977L49.5508 21.0423L56.1948 11.5383L55.8448 11.2937ZM61.7773 23.142L61.6728 23.3282L61.6738 23.3287L61.7773 23.142ZM58.8953 20.326L58.7104 20.4329L58.712 20.4355L58.8953 20.326ZM58.8953 12.164L58.712 12.0545L58.711 12.0561L58.8953 12.164ZM61.7773 9.348L61.6738 9.16125L61.6728 9.16179L61.7773 9.348ZM69.7633 9.348L69.6588 9.53421L69.6598 9.53475L69.7633 9.348ZM72.6233 12.164L72.438 12.2702L72.439 12.2719L72.6233 12.164ZM72.6233 20.326L72.8075 20.4339L72.8081 20.4329L72.6233 20.326ZM69.7633 23.142L69.8677 23.3282L69.7633 23.142ZM68.7293 19.49L68.5714 19.3462L68.57 19.3478L68.7293 19.49ZM68.7293 12.978L68.57 13.1202L68.5727 13.1232L68.7293 12.978ZM62.7893 12.956L62.6327 12.8108L62.6313 12.8124L62.7893 12.956ZM62.7893 19.512L62.63 19.6542L62.6327 19.6572L62.7893 19.512ZM65.7813 23.9405C64.3639 23.9405 63.065 23.6116 61.8808 22.9553L61.6738 23.3287C62.9242 24.0217 64.2947 24.3675 65.7813 24.3675V23.9405ZM61.8817 22.9558C60.7121 22.2997 59.7784 21.3877 59.0786 20.2165L58.712 20.4355C59.4495 21.6697 60.4371 22.635 61.6728 23.3282L61.8817 22.9558ZM59.0801 20.2191C58.3963 19.0367 58.0528 17.71 58.0528 16.234H57.6258C57.6258 17.7793 57.9863 19.1807 58.7105 20.4329L59.0801 20.2191ZM58.0528 16.234C58.0528 14.758 58.3963 13.4391 59.0795 12.2719L58.711 12.0561C57.9863 13.2943 57.6258 14.6887 57.6258 16.234H58.0528ZM59.0786 12.2735C59.7784 11.1023 60.7121 10.1903 61.8817 9.53421L61.6728 9.16179C60.4371 9.855 59.4495 10.8203 58.712 12.0545L59.0786 12.2735ZM61.8808 9.53475C63.065 8.8784 64.3639 8.54951 65.7813 8.54951V8.12249C64.2947 8.12249 62.9242 8.46826 61.6738 9.16125L61.8808 9.53475ZM65.7813 8.54951C67.1987 8.54951 68.4898 8.8784 69.6588 9.53421L69.8677 9.16179C68.6315 8.46827 67.2679 8.12249 65.7813 8.12249V8.54951ZM69.6598 9.53475C70.8432 10.1906 71.7682 11.1015 72.438 12.2702L72.8085 12.0578C72.0997 10.8212 71.1181 9.85473 69.8668 9.16125L69.6598 9.53475ZM72.439 12.2719C73.1223 13.4391 73.4658 14.758 73.4658 16.234H73.8928C73.8928 14.6887 73.5323 13.2943 72.8075 12.0561L72.439 12.2719ZM73.4658 16.234C73.4658 17.71 73.1223 19.0367 72.4385 20.2191L72.8081 20.4329C73.5323 19.1807 73.8928 17.7793 73.8928 16.234H73.4658ZM72.439 20.2181C71.754 21.3884 70.828 22.2999 69.6588 22.9558L69.8677 23.3282C71.1039 22.6348 72.0846 21.6689 72.8075 20.4339L72.439 20.2181ZM69.6588 22.9558C68.4898 23.6116 67.1987 23.9405 65.7813 23.9405V24.3675C67.2679 24.3675 68.6315 24.0217 69.8677 23.3282L69.6588 22.9558ZM65.7813 20.9355C67.066 20.9355 68.1096 20.5046 68.8885 19.6322L68.57 19.3478C67.8823 20.1181 66.9605 20.5085 65.7813 20.5085V20.9355ZM68.8871 19.6338C69.6783 18.7651 70.0648 17.6245 70.0648 16.234H69.6378C69.6378 17.5422 69.2763 18.5723 68.5714 19.3462L68.8871 19.6338ZM70.0648 16.234C70.0648 14.8297 69.6787 13.6879 68.8858 12.8328L68.5727 13.1232C69.2759 13.8815 69.6378 14.9103 69.6378 16.234H70.0648ZM68.8885 12.8358C68.1096 11.9634 67.066 11.5325 65.7813 11.5325V11.9595C66.9605 11.9595 67.8823 12.3499 68.57 13.1202L68.8885 12.8358ZM65.7813 11.5325C64.4839 11.5325 63.4267 11.9546 62.6327 12.8108L62.9458 13.1012C63.6479 12.3441 64.5853 11.9595 65.7813 11.9595V11.5325ZM62.6313 12.8124C61.8535 13.6679 61.4758 14.8168 61.4758 16.234H61.9028C61.9028 14.8939 62.2584 13.8574 62.9473 13.0996L62.6313 12.8124ZM61.4758 16.234C61.4758 17.6374 61.8539 18.785 62.63 19.6542L62.9485 19.3698C62.258 18.5963 61.9028 17.5586 61.9028 16.234H61.4758ZM62.6327 19.6572C63.4267 20.5134 64.4839 20.9355 65.7813 20.9355V20.5085C64.5853 20.5085 63.6479 20.1239 62.9458 19.3668L62.6327 19.6572ZM79.0722 23.142L78.9677 23.3282L78.9687 23.3287L79.0722 23.142ZM76.1902 20.326L76.0054 20.4329L76.0069 20.4355L76.1902 20.326ZM76.1902 12.164L76.0069 12.0545L76.0059 12.0561L76.1902 12.164ZM79.0722 9.348L78.9687 9.16125L78.9677 9.16179L79.0722 9.348ZM87.0582 9.348L86.9537 9.53421L86.9547 9.53475L87.0582 9.348ZM89.9182 12.164L89.733 12.2702L89.7339 12.2719L89.9182 12.164ZM89.9182 20.326L90.1025 20.4339L90.103 20.4329L89.9182 20.326ZM87.0582 23.142L87.1627 23.3282L87.0582 23.142ZM86.0242 19.49L85.8663 19.3462L85.8649 19.3478L86.0242 19.49ZM86.0242 12.978L85.8649 13.1202L85.8676 13.1232L86.0242 12.978ZM80.0842 12.956L79.9276 12.8108L79.9262 12.8124L80.0842 12.956ZM80.0842 19.512L79.9249 19.6542L79.9276 19.6572L80.0842 19.512ZM83.0762 23.9405C81.6588 23.9405 80.36 23.6116 79.1757 22.9553L78.9687 23.3287C80.2191 24.0217 81.5896 24.3675 83.0762 24.3675V23.9405ZM79.1767 22.9558C78.0071 22.2997 77.0733 21.3877 76.3735 20.2165L76.0069 20.4355C76.7444 21.6697 77.732 22.635 78.9677 23.3282L79.1767 22.9558ZM76.375 20.2191C75.6912 19.0367 75.3477 17.71 75.3477 16.234H74.9207C74.9207 17.7793 75.2812 19.1807 76.0054 20.4329L76.375 20.2191ZM75.3477 16.234C75.3477 14.758 75.6912 13.4391 76.3745 12.2719L76.0059 12.0561C75.2812 13.2943 74.9207 14.6887 74.9207 16.234H75.3477ZM76.3735 12.2735C77.0733 11.1023 78.0071 10.1903 79.1767 9.53421L78.9677 9.16179C77.732 9.855 76.7444 10.8203 76.0069 12.0545L76.3735 12.2735ZM79.1757 9.53475C80.36 8.8784 81.6588 8.54951 83.0762 8.54951V8.12249C81.5896 8.12249 80.2191 8.46826 78.9687 9.16125L79.1757 9.53475ZM83.0762 8.54951C84.4936 8.54951 85.7847 8.8784 86.9537 9.53421L87.1627 9.16179C85.9264 8.46827 84.5628 8.12249 83.0762 8.12249V8.54951ZM86.9547 9.53475C88.1381 10.1906 89.0631 11.1015 89.733 12.2702L90.1034 12.0578C89.3946 10.8212 88.413 9.85473 87.1617 9.16125L86.9547 9.53475ZM89.7339 12.2719C90.4172 13.4391 90.7607 14.758 90.7607 16.234H91.1877C91.1877 14.6887 90.8272 13.2943 90.1025 12.0561L89.7339 12.2719ZM90.7607 16.234C90.7607 17.71 90.4172 19.0367 89.7334 20.2191L90.103 20.4329C90.8272 19.1807 91.1877 17.7793 91.1877 16.234H90.7607ZM89.7339 20.2181C89.0489 21.3884 88.123 22.2999 86.9537 22.9558L87.1627 23.3282C88.3988 22.6348 89.3795 21.6689 90.1025 20.4339L89.7339 20.2181ZM86.9537 22.9558C85.7847 23.6116 84.4936 23.9405 83.0762 23.9405V24.3675C84.5628 24.3675 85.9264 24.0217 87.1627 23.3282L86.9537 22.9558ZM83.0762 20.9355C84.361 20.9355 85.4046 20.5046 86.1835 19.6322L85.8649 19.3478C85.1772 20.1181 84.2554 20.5085 83.0762 20.5085V20.9355ZM86.1821 19.6338C86.9732 18.7651 87.3597 17.6245 87.3597 16.234H86.9327C86.9327 17.5422 86.5712 18.5723 85.8663 19.3462L86.1821 19.6338ZM87.3597 16.234C87.3597 14.8297 86.9736 13.6879 86.1808 12.8328L85.8676 13.1232C86.5708 13.8815 86.9327 14.9103 86.9327 16.234H87.3597ZM86.1835 12.8358C85.4046 11.9634 84.361 11.5325 83.0762 11.5325V11.9595C84.2554 11.9595 85.1772 12.3499 85.8649 13.1202L86.1835 12.8358ZM83.0762 11.5325C81.7788 11.5325 80.7216 11.9546 79.9276 12.8108L80.2408 13.1012C80.9428 12.3441 81.8802 11.9595 83.0762 11.9595V11.5325ZM79.9262 12.8124C79.1484 13.6679 78.7707 14.8168 78.7707 16.234H79.1977C79.1977 14.8939 79.5533 13.8574 80.2422 13.0996L79.9262 12.8124ZM78.7707 16.234C78.7707 17.6374 79.1489 18.785 79.9249 19.6542L80.2435 19.3698C79.5529 18.5963 79.1977 17.5586 79.1977 16.234H78.7707ZM79.9276 19.6572C80.7216 20.5134 81.7788 20.9355 83.0762 20.9355V20.5085C81.8802 20.5085 80.9428 20.1239 80.2408 19.3668L79.9276 19.6572ZM110.557 8.556H110.771V8.34249H110.557V8.556ZM110.557 24V24.2135H110.771V24H110.557ZM106.795 24H106.582V24.2135H106.795V24ZM106.795 14.738H107.009L106.595 14.6634L106.795 14.738ZM103.341 24V24.2135H103.489L103.541 24.0746L103.341 24ZM100.305 24L100.105 24.0749L100.157 24.2135H100.305V24ZM96.8291 14.716L97.0291 14.6411L96.6156 14.716H96.8291ZM96.8291 24V24.2135H97.0426V24H96.8291ZM93.0671 24H92.8536V24.2135H93.0671V24ZM93.0671 8.556V8.34249H92.8536V8.556H93.0671ZM97.5111 8.556L97.709 8.47579L97.655 8.34249H97.5111V8.556ZM101.845 19.248L101.647 19.3282L101.846 19.8188L102.043 19.3275L101.845 19.248ZM106.135 8.556V8.34249H105.991L105.937 8.47649L106.135 8.556ZM110.344 8.556V24H110.771V8.556H110.344ZM110.557 23.7865H106.795V24.2135H110.557V23.7865ZM107.009 24V14.738H106.582V24H107.009ZM106.595 14.6634L103.141 23.9254L103.541 24.0746L106.995 14.8126L106.595 14.6634ZM103.341 23.7865H100.305V24.2135H103.341V23.7865ZM100.505 23.9251L97.0291 14.6411L96.6292 14.7909L100.105 24.0749L100.505 23.9251ZM96.6156 14.716V24H97.0426V14.716H96.6156ZM96.8291 23.7865H93.0671V24.2135H96.8291V23.7865ZM93.2806 24V8.556H92.8536V24H93.2806ZM93.0671 8.76951H97.5111V8.34249H93.0671V8.76951ZM97.3133 8.63621L101.647 19.3282L102.043 19.1678L97.709 8.47579L97.3133 8.63621ZM102.043 19.3275L106.333 8.63551L105.937 8.47649L101.647 19.1685L102.043 19.3275ZM106.135 8.76951H110.557V8.34249H106.135V8.76951ZM113.526 9.876L113.378 10.0298L113.384 10.035L113.526 9.876ZM113.526 6.972L113.672 7.12846L113.672 7.12826L113.526 6.972ZM116.738 6.972L116.59 7.12579L116.596 7.13097L116.738 6.972ZM116.738 9.876L116.884 10.0325L116.884 10.0323L116.738 9.876ZM117.024 11.724H117.238V11.5105H117.024V11.724ZM117.024 24V24.2135H117.238V24H117.024ZM113.262 24H113.049V24.2135H113.262V24ZM113.262 11.724V11.5105H113.049V11.724H113.262ZM115.154 10.2345C114.538 10.2345 114.049 10.0578 113.669 9.71703L113.384 10.035C113.854 10.4568 114.451 10.6615 115.154 10.6615V10.2345ZM113.675 9.72231C113.306 9.36667 113.124 8.9382 113.124 8.424H112.697C112.697 9.0538 112.926 9.59333 113.378 10.0297L113.675 9.72231ZM113.124 8.424C113.124 7.89357 113.307 7.46731 113.672 7.12846L113.381 6.81554C112.925 7.23936 112.697 7.7811 112.697 8.424H113.124ZM113.672 7.12826C114.052 6.7741 114.541 6.59151 115.154 6.59151V6.16449C114.448 6.16449 113.851 6.3779 113.381 6.81573L113.672 7.12826ZM115.154 6.59151C115.752 6.59151 116.225 6.77319 116.59 7.12569L116.887 6.81831C116.431 6.3788 115.847 6.16449 115.154 6.16449V6.59151ZM116.596 7.13097C116.975 7.47058 117.163 7.89614 117.163 8.424H117.59C117.59 7.77853 117.353 7.23609 116.881 6.81303L116.596 7.13097ZM117.163 8.424C117.163 8.93566 116.976 9.36339 116.593 9.71973L116.884 10.0323C117.352 9.59661 117.59 9.05634 117.59 8.424H117.163ZM116.593 9.71954C116.228 10.0587 115.755 10.2345 115.154 10.2345V10.6615C115.845 10.6615 116.428 10.456 116.884 10.0325L116.593 9.71954ZM116.811 11.724V24H117.238V11.724H116.811ZM117.024 23.7865H113.262V24.2135H117.024V23.7865ZM113.476 24V11.724H113.049V24H113.476ZM113.262 11.9375H117.024V11.5105H113.262V11.9375ZM133.567 24V24.2135H133.78V24H133.567ZM129.805 24L129.627 24.1177L129.69 24.2135H129.805V24ZM123.513 14.474L123.691 14.3563L123.299 13.7634V14.474H123.513ZM123.513 24V24.2135H123.726V24H123.513ZM119.751 24H119.537V24.2135H119.751V24ZM119.751 8.556V8.34249H119.537V8.556H119.751ZM123.513 8.556L123.691 8.4387L123.628 8.34249H123.513V8.556ZM129.805 18.126L129.626 18.2433L130.018 18.8394V18.126H129.805ZM129.805 8.556V8.34249H129.591V8.556H129.805ZM133.567 8.556H133.78V8.34249H133.567V8.556ZM133.567 23.7865H129.805V24.2135H133.567V23.7865ZM129.983 23.8823L123.691 14.3563L123.335 14.5917L129.627 24.1177L129.983 23.8823ZM123.299 14.474V24H123.726V14.474H123.299ZM123.513 23.7865H119.751V24.2135H123.513V23.7865ZM119.964 24V8.556H119.537V24H119.964ZM119.751 8.76951H123.513V8.34249H119.751V8.76951ZM123.334 8.67329L129.626 18.2433L129.983 18.0087L123.691 8.4387L123.334 8.67329ZM130.018 18.126V8.556H129.591V18.126H130.018ZM129.805 8.76951H133.567V8.34249H129.805V8.76951ZM133.353 8.556V24H133.78V8.556H133.353ZM144.718 21.096H144.504V21.3095H144.718V21.096ZM149.646 21.096H149.859V20.8825H149.646V21.096ZM149.646 24V24.2135H149.859V24H149.646ZM140.956 24H140.742V24.2135H140.956V24ZM140.956 8.556V8.34249H140.742V8.556H140.956ZM144.718 8.556H144.931V8.34249H144.718V8.556ZM144.718 21.3095H149.646V20.8825H144.718V21.3095ZM149.432 21.096V24H149.859V21.096H149.432ZM149.646 23.7865H140.956V24.2135H149.646V23.7865ZM141.169 24V8.556H140.742V24H141.169ZM140.956 8.76951H144.718V8.34249H140.956V8.76951ZM144.504 8.556V21.096H144.931V8.556H144.504ZM151.704 9.876L151.556 10.0298L151.562 10.035L151.704 9.876ZM151.704 6.972L151.849 7.12846L151.85 7.12826L151.704 6.972ZM154.916 6.972L154.768 7.12579L154.774 7.13097L154.916 6.972ZM154.916 9.876L155.061 10.0325L155.062 10.0323L154.916 9.876ZM155.202 11.724H155.416V11.5105H155.202V11.724ZM155.202 24V24.2135H155.416V24H155.202ZM151.44 24H151.227V24.2135H151.44V24ZM151.44 11.724V11.5105H151.227V11.724H151.44ZM153.332 10.2345C152.716 10.2345 152.227 10.0578 151.847 9.71703L151.562 10.035C152.032 10.4568 152.628 10.6615 153.332 10.6615V10.2345ZM151.852 9.72231C151.484 9.36667 151.302 8.9382 151.302 8.424H150.875C150.875 9.0538 151.103 9.59333 151.556 10.0297L151.852 9.72231ZM151.302 8.424C151.302 7.89357 151.485 7.46731 151.849 7.12846L151.559 6.81554C151.102 7.23936 150.875 7.7811 150.875 8.424H151.302ZM151.85 7.12826C152.23 6.7741 152.718 6.59151 153.332 6.59151V6.16449C152.626 6.16449 152.029 6.3779 151.559 6.81573L151.85 7.12826ZM153.332 6.59151C153.93 6.59151 154.402 6.77319 154.768 7.12569L155.064 6.81831C154.609 6.3788 154.025 6.16449 153.332 6.16449V6.59151ZM154.774 7.13097C155.152 7.47058 155.341 7.89614 155.341 8.424H155.768C155.768 7.77853 155.531 7.23609 155.059 6.81303L154.774 7.13097ZM155.341 8.424C155.341 8.93566 155.153 9.36339 154.771 9.71973L155.062 10.0323C155.53 9.59661 155.768 9.05634 155.768 8.424H155.341ZM154.771 9.71954C154.406 10.0587 153.932 10.2345 153.332 10.2345V10.6615C154.023 10.6615 154.605 10.456 155.061 10.0325L154.771 9.71954ZM154.989 11.724V24H155.416V11.724H154.989ZM155.202 23.7865H151.44V24.2135H155.202V23.7865ZM151.654 24V11.724H151.227V24H151.654ZM151.44 11.9375H155.202V11.5105H151.44V11.9375ZM172.426 8.556L172.628 8.62737L172.729 8.34249H172.426V8.556ZM166.948 24V24.2135H167.099L167.15 24.0714L166.948 24ZM162.24 24L162.039 24.0714L162.09 24.2135H162.24V24ZM156.762 8.556V8.34249H156.46L156.561 8.62737L156.762 8.556ZM160.766 8.556L160.969 8.4894L160.921 8.34249H160.766V8.556ZM164.594 20.216L164.392 20.2826L164.594 20.8987L164.797 20.2829L164.594 20.216ZM168.444 8.556V8.34249H168.29L168.242 8.48906L168.444 8.556ZM172.225 8.48462L166.747 23.9286L167.15 24.0714L172.628 8.62737L172.225 8.48462ZM166.948 23.7865H162.24V24.2135H166.948V23.7865ZM162.442 23.9286L156.964 8.48462L156.561 8.62737L162.039 24.0714L162.442 23.9286ZM156.762 8.76951H160.766V8.34249H156.762V8.76951ZM160.564 8.6226L164.392 20.2826L164.797 20.1494L160.969 8.4894L160.564 8.6226ZM164.797 20.2829L168.647 8.62294L168.242 8.48906L164.392 20.1491L164.797 20.2829ZM168.444 8.76951H172.426V8.34249H168.444V8.76951ZM177.761 11.57V11.3565H177.547V11.57H177.761ZM177.761 14.694H177.547V14.9075H177.761V14.694ZM182.799 14.694H183.012V14.4805H182.799V14.694ZM182.799 17.598V17.8115H183.012V17.598H182.799ZM177.761 17.598V17.3845H177.547V17.598H177.761ZM177.761 20.986H177.547V21.1995H177.761V20.986ZM183.459 20.986H183.672V20.7725H183.459V20.986ZM183.459 24V24.2135H183.672V24H183.459ZM173.999 24H173.785V24.2135H173.999V24ZM173.999 8.556V8.34249H173.785V8.556H173.999ZM183.459 8.556H183.672V8.34249H183.459V8.556ZM183.459 11.57V11.7835H183.672V11.57H183.459ZM177.547 11.57V14.694H177.974V11.57H177.547ZM177.761 14.9075H182.799V14.4805H177.761V14.9075ZM182.585 14.694V17.598H183.012V14.694H182.585ZM182.799 17.3845H177.761V17.8115H182.799V17.3845ZM177.547 17.598V20.986H177.974V17.598H177.547ZM177.761 21.1995H183.459V20.7725H177.761V21.1995ZM183.245 20.986V24H183.672V20.986H183.245ZM183.459 23.7865H173.999V24.2135H183.459V23.7865ZM174.212 24V8.556H173.785V24H174.212ZM173.999 8.76951H183.459V8.34249H173.999V8.76951ZM183.245 8.556V11.57H183.672V8.556H183.245ZM183.459 11.3565H177.761V11.7835H183.459V11.3565Z" fill="white"/>
<circle cx="16.5" cy="17.5" r="14.3649" stroke="white" stroke-width="4.27017"/>
<path d="M14.0714 14.512L20.8667 18.4956L14.0191 22.3887L14.0714 14.512Z" fill="white" stroke="white" stroke-width="4.27017"/>
</svg>
