<svg width="32" height="32" viewBox="0 0 32 32" fill="none" xmlns="http://www.w3.org/2000/svg">
<path d="M8.77553 23.453C8.77553 23.5286 8.76064 23.6034 8.73172 23.6733C8.7028 23.7431 8.66041 23.8065 8.60697 23.86C8.55353 23.9134 8.49008 23.9558 8.42026 23.9847C8.35044 24.0136 8.2756 24.0285 8.20003 24.0285C8.12445 24.0285 8.04961 24.0136 7.97979 23.9847C7.90997 23.9558 7.84653 23.9134 7.79309 23.86C7.73965 23.8065 7.69725 23.7431 7.66833 23.6733C7.63941 23.6034 7.62453 23.5286 7.62453 23.453C7.62453 23.3004 7.68516 23.154 7.79309 23.0461C7.90101 22.9382 8.04739 22.8775 8.20003 22.8775C8.35266 22.8775 8.49904 22.9382 8.60697 23.0461C8.71489 23.154 8.77553 23.3004 8.77553 23.453ZM13.5202 24.0284C13.5969 24.0302 13.6732 24.0167 13.7446 23.9886C13.816 23.9606 13.881 23.9185 13.9359 23.8649C13.9908 23.8113 14.0345 23.7473 14.0642 23.6766C14.094 23.6059 14.1094 23.5299 14.1094 23.4532C14.1094 23.3765 14.094 23.3005 14.0642 23.2298C14.0345 23.1591 13.9908 23.0951 13.9359 23.0415C13.881 22.9879 13.816 22.9458 13.7446 22.9178C13.6732 22.8897 13.5969 22.8762 13.5202 22.878C13.37 22.8816 13.2273 22.9438 13.1224 23.0513C13.0174 23.1588 12.9587 23.303 12.9587 23.4532C12.9587 23.6034 13.0174 23.7476 13.1224 23.8551C13.2273 23.9626 13.37 24.0247 13.5202 24.0284ZM10.8602 26.365C11.7985 26.365 12.5622 25.5994 12.5622 24.661H11.1175C11.1175 24.9467 10.6025 24.9467 10.6025 24.661H9.15786C9.15839 25.1125 9.33786 25.5454 9.65694 25.8648C9.97603 26.1842 10.4087 26.3641 10.8602 26.365ZM18.5502 12.9194C18.4735 12.9167 18.397 12.9296 18.3254 12.9571C18.2537 12.9847 18.1884 13.0264 18.1332 13.0797C18.078 13.1331 18.0341 13.197 18.0041 13.2676C17.9741 13.3383 17.9587 13.4143 17.9587 13.491C17.9587 13.5678 17.9741 13.6438 18.0041 13.7144C18.0341 13.7851 18.078 13.849 18.1332 13.9023C18.1884 13.9557 18.2537 13.9974 18.3254 14.0249C18.397 14.0525 18.4735 14.0653 18.5502 14.0627C18.6984 14.0576 18.8389 13.9952 18.942 13.8885C19.0451 13.7819 19.1027 13.6394 19.1027 13.491C19.1027 13.3427 19.0451 13.2002 18.942 13.0935C18.8389 12.9869 18.6984 12.9244 18.5502 12.9194ZM23.8362 14.063C23.9878 14.063 24.1331 14.0028 24.2403 13.8956C24.3475 13.7885 24.4077 13.6431 24.4077 13.4915C24.4077 13.34 24.3475 13.1946 24.2403 13.0874C24.1331 12.9802 23.9878 12.92 23.8362 12.92C23.6846 12.92 23.5393 12.9802 23.4321 13.0874C23.3249 13.1946 23.2647 13.34 23.2647 13.4915C23.2647 13.6431 23.3249 13.7885 23.4321 13.8956C23.5393 14.0028 23.6846 14.063 23.8362 14.063ZM20.9415 14.6917H19.4969C19.4969 15.6267 20.2579 16.3887 21.1929 16.3887C22.1279 16.3887 22.8889 15.6267 22.8889 14.6917H21.4442C21.4442 14.9704 20.9415 14.9704 20.9415 14.6917ZM30.4922 13.321C30.4922 14.665 29.3985 15.7604 28.0545 15.7604H28.0165C28.0102 15.777 28.0052 15.7954 27.9989 15.8114L27.8842 16.1254C27.2262 17.6 26.1292 18.7394 24.7692 19.399C24.2148 19.668 23.6236 19.8535 23.0149 19.9494C22.7045 20.0094 22.3312 20.0517 21.9795 20.0517H20.5889C20.1179 20.0517 19.6859 20.0007 19.3039 19.9C19.2232 19.8907 19.1239 19.8614 19.0349 19.843V20.8277C19.0349 21.0194 18.9588 21.2032 18.8234 21.3388C18.6879 21.4744 18.5042 21.5508 18.3125 21.551H18.0859V21.5924C19.2839 21.751 20.2139 22.7684 20.2139 24.0084C20.2139 25.3594 19.1159 26.4584 17.7655 26.4584H17.7222C16.8802 28.8974 14.5862 30.6654 11.8645 30.6654H10.1492C7.42753 30.6654 5.13353 28.8974 4.29119 26.4584H3.95419C2.60386 26.4584 1.50586 25.3594 1.50586 24.0084C1.50586 22.668 2.58986 21.5774 3.92753 21.5627V21.5514H3.59153C3.39986 21.5511 3.21613 21.4748 3.0807 21.3392C2.94526 21.2035 2.86919 21.0197 2.86919 20.828V19.184C2.86919 16.941 4.54786 15.0657 6.77853 14.6124L5.93486 13.379L7.12719 12.564L7.87253 13.6537L8.49353 12.5624L9.74953 13.275L9.05019 14.5044H12.2132C12.0155 14.152 11.8935 13.7524 11.8935 13.3207C11.8935 12.369 12.4562 11.564 13.2535 11.1627V10.2587C13.2535 9.4307 13.4245 8.63236 13.6869 7.8577C12.6802 7.22103 12.0185 6.12036 12.0185 4.8927C12.0189 2.93003 13.6092 1.33203 15.5635 1.33203C16.8415 1.33203 17.9652 2.03236 18.5915 3.09403C19.2935 2.87603 20.0312 2.72903 20.7809 2.72903H21.7809C22.4782 2.72903 23.1612 2.85636 23.8315 3.04903C24.4662 2.01503 25.5789 1.33203 26.8232 1.33203C28.7775 1.33203 30.3679 2.93003 30.3679 4.89336C30.3679 6.05036 29.7769 7.09836 28.8522 7.75203C29.1372 8.56336 29.3235 9.41003 29.3235 10.259V11.292C30.0099 11.724 30.4922 12.4524 30.4922 13.321ZM26.8232 2.77836C26.1582 2.77836 25.5582 3.07936 25.1692 3.5787C26.4399 4.22211 27.5029 5.21145 28.2359 6.4327C28.4512 6.23805 28.6236 6.0006 28.7419 5.73555C28.8603 5.47049 28.922 5.18365 28.9232 4.89336C28.9232 3.72736 27.9812 2.77836 26.8232 2.77836ZM20.7812 4.17536C19.9999 4.17536 19.2159 4.3287 18.5155 4.61803C17.0351 5.20359 15.8473 6.35233 15.2125 7.81236C14.8722 8.58309 14.697 9.41652 14.6982 10.259V10.857C14.7582 10.8407 14.8159 10.82 14.8809 10.82H18.5479C19.0452 10.82 19.5409 10.714 19.7942 9.94503C19.9495 9.4317 20.2685 9.26403 20.5085 9.2147C21.0589 9.1037 21.4135 9.53036 21.7255 9.90436C22.0659 10.3117 22.4885 10.8197 23.0089 10.8197H27.6692C27.7439 10.8197 27.8115 10.8414 27.8792 10.862V10.2587C27.8792 9.40137 27.6922 8.5337 27.3395 7.74703C26.6692 6.2867 25.4239 5.12603 23.9265 4.57036C23.2414 4.30962 22.5146 4.17577 21.7815 4.17536H20.7812ZM13.3385 13.321C13.3385 13.825 13.7205 14.2247 14.2062 14.2887C14.1815 14.0827 14.1585 13.874 14.1585 13.656V12.3644C13.6965 12.4494 13.3385 12.8357 13.3385 13.321ZM13.4635 4.89336C13.4635 5.55136 13.7732 6.15903 14.2705 6.5467C14.9707 5.31208 16.0105 4.3044 17.2665 3.64336C17.071 3.37514 16.8148 3.15697 16.5188 3.0067C16.2228 2.85642 15.8955 2.77829 15.5635 2.7787C14.4055 2.77836 13.4635 3.72736 13.4635 4.89336ZM4.31453 19.1844V20.1904C4.41653 20.1357 4.52719 20.0964 4.65053 20.0964H5.97686C6.50953 20.0964 6.98753 19.7717 7.19386 19.269C7.53619 18.4187 7.74053 17.9074 8.35353 17.9867C8.68353 18.0307 8.94986 18.3094 8.98686 18.6394C9.00719 18.7277 9.08286 18.9197 9.18519 19.1087C9.26453 19.2567 9.35086 19.3874 9.44553 19.5214C9.68719 19.89 10.0892 20.0964 10.5382 20.0964H17.3635C17.4399 20.0964 17.5095 20.118 17.5782 20.14L17.5902 19.1844C17.5902 19.1137 17.5929 19.0434 17.5815 18.9727C17.4582 17.565 16.4299 16.4204 15.0159 16.0747C14.7125 15.9939 14.4001 15.9524 14.0862 15.9514H7.81819C5.88586 15.951 4.31453 17.401 4.31453 19.1844ZM3.98553 25.012C3.96786 24.822 3.92819 24.6384 3.92819 24.444V23.012C3.38786 23.027 2.95086 23.4657 2.95086 24.0087C2.95112 24.2748 3.05695 24.5299 3.24512 24.7181C3.43329 24.9063 3.68842 25.0121 3.95453 25.0124L3.98553 25.012ZM16.6412 21.5427H10.5382C9.60253 21.5427 8.74953 21.093 8.25586 20.3414C7.76719 21.0697 6.91353 21.5427 5.97686 21.5427H5.37286V24.4444C5.37286 27.0777 7.51586 29.219 10.1495 29.219H11.8649C14.4982 29.219 16.6415 27.0777 16.6415 24.4444L16.6412 21.5427ZM18.0859 23.0714V24.444C18.0859 24.62 18.0485 24.7857 18.0339 24.9577C18.4545 24.838 18.7695 24.467 18.7695 24.0084C18.7695 23.5697 18.4805 23.2064 18.0859 23.0714ZM26.9469 12.2664H23.0089C21.9902 12.2664 21.2962 11.6154 20.8365 11.0897C20.4545 11.6877 19.7719 12.2664 18.5479 12.2664H15.6032V13.6564C15.6021 14.045 15.6629 14.4314 15.7832 14.801L15.7849 14.809C17.4059 15.3587 18.6019 16.6847 18.9295 18.296C19.1499 18.37 19.3749 18.458 19.5809 18.4857C19.9319 18.572 20.2415 18.6057 20.5889 18.6057H21.9795C22.2415 18.6057 22.5192 18.574 22.7652 18.528C23.2417 18.4532 23.7047 18.3088 24.1392 18.0994C25.1932 17.5877 26.0469 16.7007 26.5389 15.6L26.6465 15.3C26.7049 15.1484 26.7649 14.9897 26.8132 14.8257C26.8792 14.406 26.9465 14.032 26.9465 13.6564L26.9469 12.2664ZM29.0475 13.321C29.0475 12.8934 28.7719 12.5367 28.3915 12.3977V13.6564C28.3915 13.857 28.3729 14.0567 28.3509 14.2544C28.7515 14.1264 29.0475 13.7644 29.0475 13.321Z" fill="#A855F7"/>
</svg>
