<svg xmlns="http://www.w3.org/2000/svg" xmlns:xlink="http://www.w3.org/1999/xlink" version="1.1" width="1000" height="1000" viewBox="0 0 1000 1000" xml:space="preserve">
<desc>Created with Fabric.js 3.5.0</desc>
<defs>
</defs>
<rect x="0" y="0" width="100%" height="100%" fill="#ffffff"/>
<g transform="matrix(19.7628 0 0 19.7628 499.9989 499.9989)" id="273790">
<g style="" vector-effect="non-scaling-stroke">
		<g transform="matrix(1 0 0 1 -0.2085 0.3847)">
<circle style="stroke: none; stroke-width: 1; stroke-dasharray: none; stroke-linecap: butt; stroke-dashoffset: 0; stroke-linejoin: miter; stroke-miterlimit: 4; is-custom-font: none; font-file-url: none; fill: rgb(255,255,255); fill-rule: nonzero; opacity: 1;" cx="0" cy="0" r="22.6008"/>
</g>
		<g transform="matrix(1 0 0 1 -0.2085 0.3848)" clip-path="url(#CLIPPATH_1)">
<clipPath id="CLIPPATH_1">
	<rect transform="matrix(1 0 0 1 0 0)" id="clip0_45_8167" x="-13" y="-13.5" rx="0" ry="0" width="26" height="27"/>
</clipPath>
<path style="stroke: none; stroke-width: 1; stroke-dasharray: none; stroke-linecap: butt; stroke-dashoffset: 0; stroke-linejoin: miter; stroke-miterlimit: 4; is-custom-font: none; font-file-url: none; fill: rgb(97,64,178); fill-opacity: 0.54; fill-rule: nonzero; opacity: 1;" transform=" translate(-22.7915, -23.3848)" d="M 22.7915 18.8848 C 23.9886 18.8848 24.9582 17.8779 24.9582 16.6348 C 24.9582 15.3916 23.9886 14.3848 22.7915 14.3848 C 21.5944 14.3848 20.6248 15.3916 20.6248 16.6348 C 20.6248 17.8779 21.5944 18.8848 22.7915 18.8848 Z M 22.7915 21.1348 C 21.5944 21.1348 20.6248 22.1416 20.6248 23.3848 C 20.6248 24.6279 21.5944 25.6348 22.7915 25.6348 C 23.9886 25.6348 24.9582 24.6279 24.9582 23.3848 C 24.9582 22.1416 23.9886 21.1348 22.7915 21.1348 Z M 22.7915 27.8848 C 21.5944 27.8848 20.6248 28.8916 20.6248 30.1348 C 20.6248 31.3779 21.5944 32.3848 22.7915 32.3848 C 23.9886 32.3848 24.9582 31.3779 24.9582 30.1348 C 24.9582 28.8916 23.9886 27.8848 22.7915 27.8848 Z" stroke-linecap="round"/>
</g>
</g>
</g>
</svg>