<svg width="46" height="46" viewBox="0 0 46 46" fill="none" xmlns="http://www.w3.org/2000/svg">
<circle cx="22.7915" cy="23.3847" r="22.6008" fill="white"/>
<g clip-path="url(#clip0_45_8167)">
<path d="M22.7915 18.8848C23.9886 18.8848 24.9582 17.8779 24.9582 16.6348C24.9582 15.3916 23.9886 14.3848 22.7915 14.3848C21.5944 14.3848 20.6248 15.3916 20.6248 16.6348C20.6248 17.8779 21.5944 18.8848 22.7915 18.8848ZM22.7915 21.1348C21.5944 21.1348 20.6248 22.1416 20.6248 23.3848C20.6248 24.6279 21.5944 25.6348 22.7915 25.6348C23.9886 25.6348 24.9582 24.6279 24.9582 23.3848C24.9582 22.1416 23.9886 21.1348 22.7915 21.1348ZM22.7915 27.8848C21.5944 27.8848 20.6248 28.8916 20.6248 30.1348C20.6248 31.3779 21.5944 32.3848 22.7915 32.3848C23.9886 32.3848 24.9582 31.3779 24.9582 30.1348C24.9582 28.8916 23.9886 27.8848 22.7915 27.8848Z" fill="black" fill-opacity="0.54"/>
</g>
<defs>
<clipPath id="clip0_45_8167">
<rect width="26" height="27" fill="white" transform="translate(9.7915 9.88477)"/>
</clipPath>
</defs>
</svg>
