<svg width="80" height="80" viewBox="0 0 80 80" fill="none" xmlns="http://www.w3.org/2000/svg">
<path d="M40 77.5C60.7107 77.5 77.5 60.7107 77.5 40C77.5 19.2893 60.7107 2.5 40 2.5C19.2893 2.5 2.5 19.2893 2.5 40C2.5 60.7107 19.2893 77.5 40 77.5Z" fill="#FF5A54"/>
<path fill-rule="evenodd" clip-rule="evenodd" d="M77.4929 39.463C77.4954 39.642 77.4998 39.8206 77.4998 40.0003C77.4998 60.7109 60.7104 77.5003 39.9998 77.5003C39.8031 77.5003 39.6074 77.4959 39.4113 77.4928L25.5578 63.6391C25.3124 63.4289 25.1119 63.1715 24.9682 62.8822C24.8245 62.5929 24.7406 62.2776 24.7215 61.9552L22.7845 30.1867H23.0273L20.2981 27.4575C20.2254 27.3851 20.1677 27.2991 20.1284 27.2044C20.089 27.1096 20.0688 27.008 20.0688 26.9055V22.8805C20.0688 21.5528 21.1517 20.4702 22.4792 20.4702H32.6353V18.4994C32.6353 17.0022 33.8563 15.7812 35.3534 15.7812H44.6462C45.4415 15.7812 46.159 16.1258 46.6568 16.6734L50.4535 20.4702H57.5204C58.2671 20.4702 58.9365 20.8128 59.3792 21.3489L77.4929 39.463Z" fill="#DB3A3C"/>
<path fill-rule="evenodd" clip-rule="evenodd" d="M32.1754 36.6308C32.5069 36.6308 32.8249 36.7625 33.0593 36.9969C33.2937 37.2313 33.4254 37.5493 33.4254 37.8808V53.7534C33.4254 54.085 33.2937 54.4029 33.0593 54.6373C32.8249 54.8717 32.5069 55.0034 32.1754 55.0034C31.8439 55.0034 31.5259 54.8717 31.2915 54.6373C31.0571 54.4029 30.9254 54.085 30.9254 53.7534V37.8808C30.9254 37.5493 31.0571 37.2313 31.2915 36.9969C31.5259 36.7625 31.8439 36.6308 32.1754 36.6308ZM38.7499 37.8808C38.7499 37.5493 38.8816 37.2313 39.1161 36.9969C39.3505 36.7625 39.6684 36.6308 39.9999 36.6308C40.3315 36.6308 40.6494 36.7625 40.8838 36.9969C41.1182 37.2313 41.2499 37.5493 41.2499 37.8808V53.7534C41.2499 54.085 41.1182 54.4029 40.8838 54.6373C40.6494 54.8717 40.3315 55.0034 39.9999 55.0034C39.6684 55.0034 39.3505 54.8717 39.1161 54.6373C38.8816 54.4029 38.7499 54.085 38.7499 53.7534V37.8808ZM46.5745 37.8808C46.5745 37.5493 46.7062 37.2313 46.9406 36.9969C47.175 36.7625 47.493 36.6308 47.8245 36.6308C48.156 36.6308 48.4739 36.7625 48.7084 36.9969C48.9428 37.2313 49.0745 37.5493 49.0745 37.8808V53.7534C49.0745 54.085 48.9428 54.4029 48.7084 54.6373C48.4739 54.8717 48.156 55.0034 47.8245 55.0034C47.493 55.0034 47.175 54.8717 46.9406 54.6373C46.7062 54.4029 46.5745 54.085 46.5745 53.7534V37.8808ZM22.7846 30.1866L24.7217 61.955C24.7584 62.5679 25.0279 63.1437 25.4751 63.5644C25.9223 63.9852 26.5134 64.2192 27.1274 64.2186H52.8723C53.4863 64.2192 54.0774 63.9853 54.5246 63.5645C54.9718 63.1437 55.2414 62.5679 55.2781 61.955L57.2151 30.1866H22.7846ZM22.4793 20.4702H32.6354V18.4994C32.6354 17.0022 33.8565 15.7812 35.3535 15.7812H44.6464C46.1434 15.7812 47.3645 17.0022 47.3645 18.4994V20.4702H57.5204C58.8481 20.4702 59.9307 21.553 59.9307 22.8805V26.9055C59.9307 27.3358 59.5798 27.6867 59.1495 27.6867H20.8501C20.643 27.6863 20.4446 27.6039 20.2981 27.4574C20.1517 27.311 20.0693 27.1125 20.0688 26.9055V22.8805C20.0688 21.5528 21.1518 20.4702 22.4793 20.4702Z" fill="white"/>
</svg>
