<svg id="svg" version="1.1" xmlns="http://www.w3.org/2000/svg" xmlns:xlink="http://www.w3.org/1999/xlink" width="400" height="135.73333333333332" viewBox="0, 0, 400,135.73333333333332"><g id="svgg"><path id="path0" d="M43.141 39.509 C 42.989 39.595,42.689 39.666,42.474 39.667 C 41.833 39.669,41.176 39.768,41.065 39.880 C 41.008 39.937,40.745 39.941,40.481 39.888 C 40.204 39.832,39.895 39.880,39.750 40.000 C 39.613 40.114,39.500 40.152,39.500 40.083 C 39.500 40.015,39.391 40.050,39.257 40.161 C 39.124 40.271,38.936 40.314,38.841 40.255 C 38.745 40.195,38.667 40.231,38.667 40.333 C 38.667 40.436,38.592 40.473,38.500 40.417 C 38.408 40.360,38.333 40.395,38.333 40.493 C 38.333 40.602,38.168 40.632,37.917 40.568 C 37.660 40.504,37.500 40.535,37.500 40.649 C 37.500 40.750,37.444 40.818,37.375 40.799 C 37.306 40.780,37.004 40.896,36.703 41.056 C 36.403 41.216,36.093 41.307,36.014 41.259 C 35.935 41.210,35.779 41.281,35.667 41.417 C 35.554 41.552,35.396 41.622,35.314 41.572 C 35.233 41.521,35.167 41.552,35.167 41.641 C 35.167 41.787,34.129 42.242,34.049 42.131 C 34.030 42.105,33.905 42.233,33.771 42.416 C 33.637 42.600,33.475 42.697,33.410 42.633 C 33.346 42.568,33.193 42.606,33.069 42.716 C 32.529 43.199,32.396 43.271,32.182 43.199 C 32.044 43.154,32.000 43.198,32.070 43.312 C 32.137 43.421,32.077 43.500,31.927 43.500 C 31.784 43.500,31.667 43.575,31.667 43.667 C 31.667 43.758,31.554 43.833,31.417 43.833 C 31.279 43.833,31.167 43.908,31.167 44.000 C 31.167 44.092,31.054 44.167,30.917 44.167 C 30.779 44.167,30.685 44.260,30.708 44.375 C 30.732 44.492,30.621 44.562,30.457 44.534 C 30.270 44.503,30.105 44.639,30.002 44.911 C 29.913 45.146,29.651 45.424,29.420 45.529 C 29.189 45.634,29.000 45.788,29.000 45.870 C 29.000 45.952,28.925 45.973,28.833 45.917 C 28.742 45.860,28.667 45.904,28.667 46.016 C 28.667 46.127,28.348 46.505,27.958 46.856 C 27.569 47.208,27.315 47.496,27.395 47.498 C 27.475 47.499,27.448 47.612,27.335 47.748 C 27.222 47.885,27.062 47.955,26.981 47.905 C 26.900 47.855,26.824 47.893,26.813 47.990 C 26.801 48.087,26.779 48.260,26.763 48.375 C 26.748 48.490,26.645 48.565,26.534 48.542 C 26.424 48.519,26.333 48.632,26.333 48.793 C 26.333 48.955,26.183 49.180,26.000 49.295 C 25.817 49.409,25.667 49.619,25.667 49.761 C 25.667 49.914,25.588 49.971,25.474 49.901 C 25.349 49.823,25.327 49.855,25.412 49.993 C 25.484 50.109,25.477 50.252,25.396 50.310 C 25.190 50.460,24.860 51.003,24.648 51.541 C 24.549 51.793,24.411 51.965,24.342 51.922 C 24.273 51.879,24.122 52.160,24.006 52.546 C 23.890 52.932,23.692 53.396,23.565 53.577 C 23.437 53.759,23.333 54.041,23.333 54.204 C 23.333 54.367,23.258 54.500,23.167 54.500 C 23.075 54.500,23.000 54.688,23.000 54.917 C 23.000 55.146,22.943 55.333,22.873 55.333 C 22.804 55.333,22.737 55.567,22.725 55.854 C 22.714 56.140,22.636 56.421,22.552 56.479 C 22.469 56.536,22.389 56.764,22.375 56.985 C 22.361 57.206,22.253 57.450,22.133 57.527 C 21.957 57.641,21.959 57.694,22.143 57.813 C 22.290 57.907,22.308 57.996,22.195 58.066 C 22.099 58.125,22.021 58.303,22.022 58.462 C 22.022 58.620,21.980 58.975,21.929 59.250 C 21.549 61.294,21.596 66.292,22.005 67.333 C 22.023 67.379,22.035 67.660,22.032 67.957 C 22.029 68.254,22.097 68.540,22.183 68.593 C 22.269 68.646,22.296 68.760,22.243 68.845 C 22.190 68.930,22.219 69.000,22.307 69.000 C 22.453 69.000,22.887 70.463,22.888 70.958 C 22.889 71.073,22.964 71.167,23.056 71.167 C 23.147 71.167,23.176 71.213,23.119 71.270 C 23.062 71.327,23.118 71.475,23.243 71.600 C 23.368 71.725,23.431 71.979,23.382 72.164 C 23.334 72.349,23.362 72.500,23.445 72.500 C 23.669 72.500,24.202 73.475,24.083 73.667 C 24.027 73.758,24.048 73.833,24.131 73.833 C 24.213 73.833,24.460 74.190,24.680 74.625 C 24.899 75.060,25.175 75.478,25.293 75.552 C 25.411 75.626,25.463 75.758,25.410 75.845 C 25.356 75.931,25.429 76.047,25.572 76.102 C 25.715 76.157,25.795 76.261,25.750 76.333 C 25.705 76.406,25.779 76.508,25.915 76.560 C 26.067 76.618,26.120 76.762,26.052 76.938 C 25.976 77.137,26.005 77.183,26.150 77.094 C 26.282 77.012,26.388 77.091,26.447 77.317 C 26.498 77.509,26.607 77.667,26.690 77.667 C 26.773 77.667,26.915 77.859,27.004 78.093 C 27.093 78.328,27.240 78.474,27.331 78.418 C 27.422 78.362,27.624 78.582,27.779 78.908 C 27.935 79.234,28.109 79.500,28.166 79.500 C 28.224 79.500,28.452 79.669,28.674 79.875 C 28.895 80.081,29.138 80.230,29.212 80.206 C 29.286 80.182,29.475 80.388,29.632 80.663 C 29.788 80.939,30.008 81.165,30.119 81.166 C 30.230 81.166,30.403 81.319,30.502 81.505 C 30.602 81.691,30.749 81.802,30.830 81.752 C 30.911 81.702,31.083 81.812,31.212 81.996 C 31.341 82.180,31.496 82.282,31.557 82.221 C 31.617 82.161,31.667 82.203,31.667 82.315 C 31.667 82.428,31.733 82.479,31.814 82.428 C 31.896 82.378,32.059 82.454,32.178 82.597 C 32.297 82.741,32.681 83.004,33.031 83.182 C 33.380 83.361,33.667 83.588,33.667 83.688 C 33.667 83.787,33.779 83.826,33.917 83.773 C 34.054 83.720,34.167 83.750,34.167 83.839 C 34.167 83.927,34.274 84.000,34.405 84.000 C 34.536 84.000,34.758 84.115,34.899 84.256 C 35.040 84.397,35.195 84.509,35.244 84.506 C 35.293 84.503,35.352 84.506,35.375 84.513 C 35.398 84.520,35.565 84.553,35.747 84.587 C 35.929 84.621,36.104 84.728,36.136 84.825 C 36.169 84.923,36.264 84.960,36.348 84.908 C 36.431 84.856,36.501 84.912,36.503 85.032 C 36.504 85.190,36.549 85.182,36.667 85.000 C 36.774 84.833,36.829 84.819,36.831 84.958 C 36.832 85.073,36.890 85.154,36.958 85.139 C 37.194 85.088,38.000 85.369,38.000 85.503 C 38.000 85.577,38.188 85.617,38.417 85.592 C 38.646 85.566,38.833 85.615,38.833 85.699 C 38.833 85.784,38.902 85.811,38.986 85.759 C 39.070 85.707,39.351 85.752,39.611 85.859 C 39.871 85.966,40.171 86.039,40.279 86.022 C 40.387 86.005,40.520 86.065,40.576 86.155 C 40.632 86.245,40.788 86.276,40.924 86.224 C 41.060 86.172,41.288 86.227,41.431 86.346 C 41.646 86.524,41.719 86.520,41.846 86.323 C 41.948 86.164,42.042 86.142,42.125 86.259 C 42.396 86.639,47.913 86.634,48.221 86.253 C 48.312 86.141,48.387 86.153,48.443 86.290 C 48.505 86.444,48.612 86.452,48.860 86.319 C 49.043 86.221,49.297 86.181,49.424 86.230 C 49.552 86.279,49.702 86.244,49.759 86.153 C 49.815 86.061,50.014 86.035,50.202 86.094 C 50.452 86.174,50.507 86.146,50.410 85.990 C 50.317 85.839,50.358 85.807,50.551 85.881 C 50.700 85.938,50.861 85.924,50.907 85.849 C 50.954 85.773,51.192 85.734,51.437 85.760 C 51.681 85.787,51.988 85.702,52.119 85.571 C 52.332 85.358,52.690 85.258,53.042 85.314 C 53.110 85.324,53.167 85.254,53.167 85.157 C 53.167 85.060,53.242 85.027,53.333 85.083 C 53.425 85.140,53.501 85.088,53.503 84.968 C 53.504 84.810,53.549 84.818,53.667 85.000 C 53.784 85.182,53.829 85.190,53.831 85.032 C 53.832 84.912,53.908 84.860,54.000 84.917 C 54.092 84.973,54.167 84.936,54.167 84.833 C 54.167 84.731,54.242 84.693,54.333 84.750 C 54.425 84.807,54.500 84.779,54.500 84.688 C 54.500 84.500,55.197 84.244,55.885 84.179 C 55.959 84.172,55.973 84.092,55.917 84.000 C 55.825 83.851,56.039 83.762,56.369 83.812 C 56.435 83.822,56.679 83.639,56.912 83.406 C 57.145 83.173,57.410 83.028,57.501 83.084 C 57.592 83.140,57.667 83.107,57.667 83.010 C 57.667 82.913,57.724 82.852,57.795 82.875 C 57.865 82.898,58.102 82.751,58.320 82.547 C 58.538 82.344,58.781 82.218,58.859 82.266 C 58.936 82.314,59.000 82.236,59.000 82.093 C 59.000 81.950,59.078 81.833,59.174 81.833 C 59.371 81.833,59.701 81.582,60.197 81.055 C 60.384 80.856,60.719 80.648,60.942 80.592 C 61.165 80.536,61.305 80.423,61.254 80.340 C 61.203 80.258,61.575 79.833,62.081 79.397 C 62.586 78.960,63.000 78.508,63.000 78.391 C 63.000 78.274,63.150 78.098,63.333 78.000 C 63.517 77.902,63.667 77.712,63.667 77.577 C 63.667 77.443,63.742 77.333,63.833 77.333 C 63.925 77.333,64.000 77.230,64.000 77.103 C 64.000 76.976,64.169 76.821,64.375 76.758 C 64.606 76.688,64.669 76.611,64.540 76.558 C 64.396 76.498,64.475 76.330,64.790 76.027 C 65.043 75.783,65.257 75.490,65.267 75.375 C 65.306 74.890,65.342 74.819,65.504 74.919 C 65.598 74.977,65.662 74.963,65.647 74.887 C 65.590 74.610,66.037 73.670,66.183 73.760 C 66.266 73.811,66.333 73.699,66.333 73.510 C 66.333 73.321,66.412 73.167,66.507 73.167 C 66.603 73.167,66.665 73.073,66.645 72.958 C 66.611 72.761,66.978 71.844,67.163 71.667 C 67.254 71.580,67.314 71.363,67.443 70.667 C 67.485 70.438,67.591 70.225,67.678 70.194 C 67.764 70.163,67.793 70.070,67.741 69.986 C 67.689 69.902,67.725 69.833,67.820 69.833 C 67.916 69.833,67.968 69.611,67.936 69.339 C 67.904 69.067,67.924 68.798,67.981 68.741 C 68.037 68.685,68.093 68.570,68.104 68.486 C 68.116 68.402,68.141 68.315,68.160 68.292 C 68.179 68.269,68.219 68.100,68.249 67.917 C 68.279 67.733,68.356 67.396,68.421 67.167 C 68.588 66.572,68.648 59.474,68.489 59.170 C 68.265 58.743,67.880 57.065,67.790 56.125 C 67.775 55.965,67.699 55.833,67.621 55.833 C 67.544 55.833,67.523 55.764,67.576 55.678 C 67.629 55.593,67.596 55.476,67.503 55.418 C 67.410 55.361,67.333 55.170,67.333 54.994 C 67.333 54.818,67.184 54.429,67.001 54.129 C 66.818 53.829,66.668 53.426,66.667 53.234 C 66.667 53.042,66.517 52.711,66.333 52.500 C 66.150 52.289,66.000 51.977,66.000 51.808 C 66.000 51.639,65.944 51.500,65.875 51.499 C 65.752 51.498,65.174 50.580,65.183 50.401 C 65.186 50.350,65.052 50.183,64.886 50.029 C 64.720 49.876,64.583 49.637,64.583 49.500 C 64.583 49.362,64.490 49.269,64.375 49.292 C 64.260 49.315,64.167 49.221,64.167 49.083 C 64.167 48.946,64.092 48.833,64.000 48.833 C 63.908 48.833,63.833 48.729,63.833 48.601 C 63.833 48.473,63.721 48.326,63.583 48.273 C 63.446 48.220,63.333 48.094,63.333 47.993 C 63.333 47.760,63.002 47.430,62.625 47.288 C 62.465 47.227,62.333 47.017,62.333 46.821 C 62.333 46.568,62.258 46.493,62.077 46.563 C 61.898 46.631,61.835 46.573,61.868 46.372 C 61.901 46.176,61.823 46.099,61.624 46.133 C 61.436 46.164,61.206 45.970,60.982 45.591 C 60.791 45.266,60.531 45.000,60.406 45.000 C 60.281 45.000,60.099 44.851,60.001 44.668 C 59.903 44.486,59.756 44.355,59.673 44.377 C 59.591 44.399,59.400 44.267,59.249 44.083 C 59.099 43.900,59.024 43.862,59.083 44.000 C 59.143 44.137,59.073 44.104,58.929 43.926 C 58.785 43.749,58.667 43.534,58.667 43.449 C 58.667 43.364,58.517 43.334,58.333 43.382 C 58.112 43.440,58.000 43.387,58.000 43.225 C 58.000 43.090,57.925 43.027,57.833 43.083 C 57.742 43.140,57.667 43.102,57.667 43.000 C 57.667 42.898,57.598 42.856,57.513 42.908 C 57.429 42.960,57.242 42.885,57.097 42.740 C 56.952 42.595,56.833 42.522,56.833 42.578 C 56.833 42.675,56.626 42.524,56.079 42.031 C 55.945 41.911,55.774 41.850,55.699 41.897 C 55.624 41.943,55.342 41.836,55.073 41.658 C 54.804 41.481,54.452 41.335,54.292 41.334 C 54.131 41.334,54.000 41.274,54.000 41.202 C 54.000 41.130,53.842 41.059,53.648 41.044 C 53.454 41.030,53.167 40.901,53.010 40.759 C 52.698 40.477,52.424 40.409,52.574 40.651 C 52.625 40.734,52.517 40.763,52.334 40.715 C 52.150 40.667,52.000 40.562,52.000 40.481 C 52.000 40.400,51.944 40.342,51.875 40.353 C 51.806 40.364,51.712 40.358,51.667 40.339 C 51.621 40.321,51.360 40.270,51.086 40.225 C 50.813 40.181,50.540 40.065,50.479 39.967 C 50.416 39.864,50.182 39.835,49.927 39.899 C 49.684 39.960,49.398 39.957,49.292 39.891 C 49.077 39.758,48.474 39.668,47.803 39.670 C 47.557 39.670,47.308 39.594,47.251 39.501 C 47.190 39.403,46.924 39.380,46.615 39.448 C 45.929 39.596,44.369 39.605,43.833 39.463 C 43.604 39.402,43.293 39.422,43.141 39.509 M43.332 42.412 C 43.617 42.448,43.797 42.409,43.743 42.322 C 43.686 42.230,44.283 42.171,45.198 42.178 C 46.240 42.186,46.640 42.238,46.417 42.336 C 46.149 42.454,46.199 42.479,46.667 42.462 C 46.987 42.451,47.381 42.378,47.542 42.299 C 47.733 42.204,47.833 42.220,47.833 42.346 C 47.833 42.464,47.986 42.498,48.240 42.434 C 48.463 42.378,48.691 42.404,48.745 42.492 C 48.800 42.580,48.955 42.609,49.091 42.557 C 49.227 42.505,49.437 42.545,49.559 42.647 C 49.681 42.748,49.819 42.793,49.865 42.746 C 49.911 42.700,50.226 42.778,50.565 42.920 C 50.904 43.061,51.253 43.133,51.341 43.079 C 51.428 43.025,51.500 43.044,51.500 43.121 C 51.500 43.199,51.662 43.275,51.860 43.290 C 52.058 43.304,52.264 43.377,52.318 43.450 C 52.421 43.589,52.770 43.704,53.125 43.716 C 53.240 43.719,53.333 43.785,53.333 43.861 C 53.333 43.938,53.390 43.985,53.458 43.966 C 53.671 43.909,55.508 44.852,55.430 44.978 C 55.390 45.044,55.519 45.110,55.717 45.125 C 55.915 45.140,56.172 45.282,56.288 45.441 C 56.405 45.600,56.629 45.749,56.787 45.773 C 56.945 45.796,57.170 45.946,57.287 46.106 C 57.404 46.266,57.502 46.326,57.505 46.240 C 57.508 46.154,57.621 46.229,57.755 46.407 C 57.890 46.585,58.000 46.674,58.000 46.606 C 58.000 46.506,60.038 48.413,60.750 49.178 C 60.842 49.277,61.085 49.529,61.292 49.740 C 61.498 49.950,61.667 50.199,61.667 50.293 C 61.667 50.387,61.778 50.507,61.914 50.559 C 62.067 50.618,62.120 50.762,62.052 50.938 C 61.979 51.130,62.006 51.182,62.138 51.101 C 62.255 51.029,62.333 51.084,62.333 51.240 C 62.333 51.383,62.408 51.500,62.500 51.500 C 62.592 51.500,62.667 51.617,62.667 51.760 C 62.667 51.914,62.745 51.971,62.859 51.901 C 62.983 51.824,63.006 51.855,62.925 51.987 C 62.849 52.109,62.942 52.327,63.153 52.523 C 63.348 52.704,63.464 52.924,63.411 53.010 C 63.357 53.096,63.398 53.167,63.500 53.167 C 63.602 53.167,63.640 53.242,63.583 53.333 C 63.527 53.425,63.560 53.500,63.657 53.500 C 63.754 53.500,63.833 53.612,63.833 53.750 C 63.833 53.887,63.921 54.000,64.028 54.000 C 64.135 54.000,64.173 54.049,64.113 54.109 C 64.053 54.169,64.160 54.469,64.349 54.776 C 64.539 55.082,64.635 55.333,64.564 55.333 C 64.492 55.333,64.523 55.423,64.633 55.533 C 64.743 55.643,64.834 55.850,64.834 55.992 C 64.835 56.134,64.953 56.475,65.096 56.750 C 65.240 57.025,65.363 57.456,65.371 57.708 C 65.378 57.960,65.437 58.167,65.502 58.167 C 65.568 58.167,65.598 58.371,65.571 58.621 C 65.544 58.870,65.588 59.155,65.669 59.253 C 65.751 59.352,65.818 59.579,65.819 59.758 C 65.820 59.937,65.869 60.383,65.928 60.750 C 65.988 61.117,66.039 62.129,66.043 63.000 C 66.049 64.444,66.012 64.871,65.746 66.417 C 65.699 66.692,65.643 67.123,65.622 67.375 C 65.601 67.627,65.523 67.833,65.447 67.833 C 65.372 67.833,65.358 67.983,65.417 68.167 C 65.480 68.365,65.447 68.500,65.335 68.500 C 65.231 68.500,65.190 68.570,65.243 68.655 C 65.296 68.740,65.261 68.858,65.167 68.917 C 65.072 68.975,65.038 69.093,65.090 69.178 C 65.143 69.264,65.102 69.333,65.000 69.333 C 64.898 69.333,64.857 69.403,64.910 69.488 C 64.962 69.574,64.934 69.688,64.846 69.742 C 64.759 69.796,64.716 69.989,64.751 70.170 C 64.786 70.352,64.739 70.500,64.647 70.500 C 64.555 70.500,64.527 70.575,64.583 70.667 C 64.640 70.758,64.594 70.833,64.482 70.833 C 64.370 70.833,64.328 70.884,64.389 70.945 C 64.451 71.006,64.387 71.231,64.247 71.445 C 64.107 71.659,64.040 71.833,64.099 71.833 C 64.158 71.833,64.006 72.096,63.761 72.418 C 63.515 72.739,63.368 73.088,63.433 73.193 C 63.502 73.305,63.478 73.340,63.377 73.277 C 63.280 73.217,63.156 73.354,63.098 73.584 C 63.041 73.813,62.916 74.000,62.820 74.000 C 62.725 74.000,62.693 74.075,62.750 74.167 C 62.807 74.258,62.769 74.333,62.667 74.333 C 62.564 74.333,62.522 74.400,62.573 74.483 C 62.623 74.565,62.548 74.677,62.405 74.731 C 62.262 74.786,62.192 74.907,62.249 74.999 C 62.306 75.091,62.236 75.167,62.093 75.167 C 61.950 75.167,61.833 75.271,61.833 75.399 C 61.833 75.527,61.720 75.674,61.582 75.728 C 61.443 75.781,61.350 75.894,61.373 75.979 C 61.397 76.064,61.290 76.272,61.136 76.442 C 60.982 76.611,60.503 77.144,60.071 77.625 C 59.640 78.106,59.148 78.500,58.977 78.500 C 58.806 78.500,58.667 78.615,58.667 78.755 C 58.667 78.896,58.536 79.060,58.377 79.122 C 58.218 79.183,57.870 79.462,57.605 79.741 C 57.340 80.021,57.176 80.137,57.240 80.000 C 57.313 79.845,57.267 79.861,57.119 80.042 C 56.987 80.202,56.794 80.333,56.690 80.333 C 56.585 80.333,56.500 80.413,56.500 80.510 C 56.500 80.607,56.425 80.640,56.333 80.583 C 56.242 80.527,56.167 80.572,56.167 80.685 C 56.167 80.797,56.118 80.840,56.058 80.780 C 55.998 80.721,55.867 80.782,55.766 80.916 C 55.666 81.051,55.429 81.183,55.240 81.211 C 55.052 81.238,54.725 81.422,54.514 81.618 C 54.303 81.815,54.028 81.936,53.903 81.888 C 53.778 81.840,53.555 81.921,53.408 82.069 C 53.260 82.216,53.071 82.294,52.987 82.242 C 52.902 82.190,52.833 82.214,52.833 82.297 C 52.833 82.379,52.646 82.532,52.417 82.636 C 52.095 82.783,51.999 82.779,51.997 82.621 C 51.996 82.478,51.951 82.485,51.849 82.646 C 51.769 82.773,51.627 82.828,51.533 82.770 C 51.439 82.712,51.337 82.738,51.306 82.827 C 51.275 82.917,51.083 83.016,50.879 83.046 C 50.675 83.077,50.462 83.149,50.405 83.206 C 50.348 83.264,50.196 83.270,50.067 83.221 C 49.938 83.171,49.832 83.232,49.831 83.357 C 49.829 83.538,49.798 83.536,49.677 83.344 C 49.553 83.149,49.478 83.144,49.270 83.317 C 49.130 83.433,48.941 83.484,48.852 83.428 C 48.763 83.373,48.646 83.399,48.592 83.487 C 48.465 83.691,48.436 83.693,45.083 83.724 C 43.525 83.738,42.100 83.682,41.917 83.599 C 41.733 83.516,41.495 83.461,41.388 83.478 C 41.280 83.495,41.142 83.428,41.081 83.330 C 41.003 83.204,40.900 83.209,40.735 83.346 C 40.554 83.496,40.500 83.493,40.500 83.336 C 40.500 83.218,40.389 83.174,40.238 83.232 C 40.094 83.287,39.813 83.242,39.613 83.133 C 39.413 83.023,39.103 82.909,38.924 82.879 C 38.745 82.849,38.557 82.762,38.507 82.686 C 38.457 82.610,38.285 82.567,38.125 82.592 C 37.965 82.617,37.833 82.564,37.833 82.475 C 37.833 82.386,37.764 82.356,37.680 82.408 C 37.596 82.460,37.411 82.387,37.269 82.246 C 37.128 82.104,36.970 81.996,36.920 82.007 C 36.669 82.057,35.833 81.788,35.833 81.657 C 35.833 81.574,35.646 81.459,35.417 81.402 C 35.188 81.344,35.000 81.226,35.000 81.139 C 35.000 81.052,34.929 81.024,34.842 81.078 C 34.755 81.132,34.601 81.022,34.500 80.833 C 34.399 80.645,34.251 80.531,34.172 80.580 C 34.092 80.629,33.914 80.557,33.775 80.418 C 33.637 80.280,33.439 80.167,33.335 80.167 C 33.232 80.167,33.193 80.092,33.250 80.000 C 33.307 79.908,33.199 79.833,33.010 79.833 C 32.821 79.833,32.667 79.767,32.667 79.686 C 32.667 79.605,32.517 79.500,32.333 79.452 C 32.150 79.404,32.000 79.250,32.000 79.111 C 32.000 78.971,31.831 78.833,31.625 78.803 C 31.419 78.774,31.250 78.671,31.250 78.575 C 31.250 78.336,29.592 76.667,29.356 76.667 C 29.252 76.667,29.167 76.525,29.167 76.353 C 29.167 76.179,29.018 76.000,28.833 75.952 C 28.618 75.895,28.533 75.774,28.596 75.611 C 28.656 75.453,28.532 75.253,28.265 75.078 C 28.029 74.923,27.877 74.730,27.928 74.648 C 27.978 74.567,27.940 74.500,27.843 74.500 C 27.746 74.500,27.667 74.383,27.667 74.240 C 27.667 74.097,27.592 74.027,27.500 74.083 C 27.345 74.179,27.311 74.101,27.265 73.535 C 27.255 73.416,27.168 73.266,27.072 73.201 C 26.976 73.136,26.791 72.821,26.661 72.500 C 26.532 72.179,26.329 71.804,26.211 71.667 C 26.094 71.529,25.999 71.360,26.002 71.290 C 26.005 71.220,25.886 70.930,25.739 70.646 C 25.517 70.217,25.313 69.573,24.927 68.083 C 24.903 67.992,24.824 67.778,24.751 67.608 C 24.678 67.439,24.604 66.914,24.586 66.442 C 24.568 65.970,24.503 65.471,24.442 65.333 C 24.196 64.778,24.526 58.865,24.846 58.083 C 25.104 57.454,25.188 57.160,25.216 56.792 C 25.228 56.631,25.281 56.500,25.334 56.500 C 25.386 56.500,25.441 56.344,25.455 56.153 C 25.470 55.963,25.575 55.694,25.689 55.556 C 25.804 55.418,25.909 55.147,25.923 54.953 C 25.937 54.759,26.036 54.571,26.142 54.536 C 26.249 54.500,26.293 54.403,26.241 54.319 C 26.189 54.235,26.231 54.167,26.333 54.167 C 26.436 54.167,26.473 54.092,26.417 54.000 C 26.360 53.908,26.401 53.833,26.508 53.833 C 26.615 53.833,26.659 53.721,26.606 53.583 C 26.554 53.446,26.588 53.333,26.682 53.333 C 26.776 53.333,26.807 53.258,26.750 53.167 C 26.693 53.075,26.721 53.000,26.811 53.000 C 26.902 53.000,27.108 52.700,27.270 52.333 C 27.432 51.967,27.667 51.667,27.792 51.667 C 27.917 51.667,27.975 51.594,27.920 51.506 C 27.866 51.418,27.993 51.174,28.202 50.964 C 28.412 50.755,28.564 50.525,28.540 50.454 C 28.516 50.382,28.610 50.281,28.748 50.228 C 28.887 50.174,29.000 50.023,29.000 49.891 C 29.000 49.759,29.224 49.523,29.497 49.367 C 29.771 49.211,29.977 48.971,29.955 48.833 C 29.933 48.687,30.020 48.606,30.167 48.639 C 30.304 48.669,30.360 48.638,30.290 48.568 C 30.138 48.416,30.806 47.667,31.093 47.667 C 31.204 47.667,31.418 47.480,31.567 47.251 C 31.717 47.022,31.894 46.854,31.961 46.876 C 32.029 46.898,32.241 46.767,32.433 46.583 C 33.117 45.932,33.436 45.729,33.656 45.802 C 33.787 45.846,33.833 45.801,33.766 45.693 C 33.699 45.585,33.826 45.466,34.077 45.403 C 34.309 45.345,34.500 45.230,34.500 45.149 C 34.500 45.067,34.654 45.000,34.843 45.000 C 35.032 45.000,35.140 44.925,35.083 44.833 C 35.027 44.742,35.060 44.657,35.157 44.646 C 35.483 44.607,35.582 44.572,35.958 44.363 C 36.165 44.249,36.333 44.209,36.333 44.276 C 36.333 44.343,36.427 44.269,36.542 44.113 C 36.656 43.957,36.900 43.800,37.083 43.764 C 37.778 43.627,37.919 43.580,38.015 43.450 C 38.069 43.377,38.275 43.304,38.473 43.290 C 38.671 43.275,38.833 43.214,38.833 43.154 C 38.833 43.095,39.021 43.066,39.249 43.091 C 39.478 43.117,39.708 43.068,39.761 42.983 C 39.813 42.897,39.926 42.871,40.012 42.924 C 40.097 42.977,40.167 42.935,40.167 42.832 C 40.167 42.720,40.301 42.687,40.500 42.750 C 40.705 42.815,40.833 42.780,40.833 42.658 C 40.833 42.543,40.972 42.497,41.167 42.548 C 41.350 42.596,41.544 42.564,41.597 42.478 C 41.651 42.391,41.832 42.363,42.000 42.417 C 42.168 42.470,42.354 42.434,42.414 42.337 C 42.474 42.241,42.591 42.203,42.674 42.255 C 42.757 42.306,43.053 42.377,43.332 42.412 M116.667 44.492 C 115.059 44.691,111.333 45.999,111.333 46.363 C 111.333 46.439,111.255 46.500,111.160 46.500 C 110.607 46.500,107.333 49.581,107.333 50.101 C 107.333 50.155,107.199 50.398,107.035 50.641 C 105.426 53.024,105.250 54.252,105.250 63.083 C 105.250 71.618,105.278 71.898,106.349 74.057 C 106.524 74.410,106.667 74.768,106.667 74.853 C 106.667 74.988,107.267 75.982,107.750 76.646 C 108.055 77.065,110.100 79.080,110.427 79.284 C 111.428 79.907,112.516 80.500,112.660 80.500 C 112.750 80.500,113.145 80.644,113.537 80.820 C 115.902 81.880,121.159 82.204,124.242 81.478 C 126.457 80.957,127.584 80.494,129.583 79.285 C 130.146 78.945,132.432 76.587,132.700 76.071 C 134.698 72.219,135.000 70.515,135.000 63.098 C 135.000 55.708,134.648 53.699,132.721 50.109 C 132.476 49.653,130.277 47.353,129.577 46.822 C 127.054 44.906,121.467 43.898,116.667 44.492 M151.500 44.481 C 150.383 44.607,149.115 44.970,147.871 45.519 C 147.479 45.692,147.083 45.833,146.992 45.833 C 146.849 45.833,145.962 46.364,145.181 46.917 C 144.769 47.208,142.592 49.403,142.371 49.750 C 141.298 51.434,141.229 51.589,140.386 54.167 C 140.119 54.984,140.081 55.902,140.037 62.642 L 139.987 70.201 140.416 71.862 C 140.652 72.776,140.911 73.649,140.991 73.803 C 141.071 73.957,141.342 74.512,141.593 75.037 C 141.844 75.561,142.189 76.139,142.358 76.322 C 142.528 76.504,142.667 76.714,142.667 76.789 C 142.667 76.864,142.798 77.048,142.958 77.197 C 143.119 77.346,143.455 77.700,143.706 77.984 C 143.956 78.268,144.235 78.500,144.325 78.500 C 144.415 78.500,144.569 78.650,144.667 78.833 C 144.765 79.017,144.930 79.167,145.034 79.167 C 145.139 79.167,145.342 79.268,145.487 79.393 C 146.015 79.846,148.795 81.167,149.222 81.167 C 149.345 81.167,150.033 81.317,150.750 81.500 C 151.796 81.768,152.598 81.833,154.818 81.833 C 163.235 81.833,168.354 77.831,169.528 70.333 C 169.861 68.207,169.815 57.433,169.465 55.417 C 168.060 47.339,161.505 43.349,151.500 44.481 M222.673 44.445 C 219.610 45.097,218.923 50.168,221.644 52.042 C 222.602 52.702,225.274 52.844,226.289 52.289 C 229.131 50.735,229.197 46.557,226.408 44.729 C 225.984 44.451,223.524 44.264,222.673 44.445 M76.500 48.083 L 76.500 51.167 85.083 51.167 L 93.667 51.167 93.667 51.552 C 93.667 51.764,93.498 52.118,93.292 52.338 C 93.085 52.559,92.504 53.230,92.000 53.829 C 90.696 55.380,90.137 56.014,89.708 56.427 C 89.502 56.626,89.333 56.873,89.333 56.977 C 89.333 57.082,89.276 57.167,89.207 57.167 C 89.137 57.167,88.556 57.783,87.915 58.536 C 87.274 59.289,86.563 60.113,86.333 60.367 C 86.104 60.621,85.654 61.131,85.333 61.500 C 85.012 61.869,84.563 62.379,84.333 62.633 C 84.104 62.887,83.392 63.711,82.752 64.464 C 82.111 65.217,81.530 65.833,81.460 65.833 C 81.390 65.833,81.333 65.918,81.333 66.023 C 81.333 66.127,81.165 66.374,80.958 66.573 C 80.536 66.980,79.999 67.588,78.667 69.167 C 77.334 70.745,76.797 71.353,76.375 71.760 C 76.004 72.118,76.000 72.172,76.000 76.644 L 76.000 81.167 88.583 81.167 L 101.167 81.167 101.167 78.000 L 101.167 74.833 92.250 74.833 C 81.665 74.833,82.497 75.109,84.967 72.417 C 85.135 72.233,85.830 71.427,86.511 70.625 C 87.193 69.824,87.806 69.167,87.875 69.167 C 87.944 69.167,88.000 69.082,88.000 68.977 C 88.000 68.873,88.169 68.626,88.375 68.427 C 88.797 68.020,89.334 67.412,90.667 65.833 C 91.999 64.255,92.536 63.647,92.958 63.240 C 93.165 63.041,93.333 62.793,93.333 62.689 C 93.333 62.585,93.390 62.500,93.460 62.500 C 93.530 62.500,94.111 61.884,94.752 61.130 C 95.392 60.377,96.104 59.556,96.333 59.306 C 96.563 59.056,97.013 58.535,97.333 58.148 C 97.654 57.762,98.071 57.289,98.260 57.098 C 98.449 56.906,99.012 56.263,99.510 55.667 C 100.009 55.072,100.585 54.398,100.792 54.169 C 101.160 53.760,101.167 53.681,101.167 49.377 L 101.167 45.000 88.833 45.000 L 76.500 45.000 76.500 48.083 M175.333 63.081 L 175.333 81.167 178.750 81.167 L 182.167 81.167 182.167 65.667 C 182.167 50.402,182.172 50.167,182.492 50.167 C 182.837 50.167,183.079 50.768,183.263 52.083 C 183.314 52.450,183.497 53.425,183.670 54.250 C 183.842 55.075,184.132 56.500,184.315 57.417 C 184.498 58.333,184.801 59.852,184.990 60.792 C 185.179 61.731,185.479 63.231,185.657 64.125 C 185.835 65.019,186.139 66.537,186.333 67.500 C 186.783 69.728,187.267 72.151,187.667 74.167 C 187.839 75.037,188.132 76.500,188.318 77.417 C 188.503 78.333,188.743 79.553,188.851 80.127 L 189.046 81.171 194.815 81.127 L 200.583 81.083 200.624 80.667 C 200.646 80.438,200.815 79.519,200.999 78.625 C 201.183 77.731,201.483 76.250,201.667 75.333 C 201.850 74.417,202.154 72.898,202.343 71.958 C 202.532 71.019,202.827 69.537,203.000 68.667 C 203.173 67.796,203.465 66.333,203.650 65.417 C 203.836 64.500,204.145 62.925,204.337 61.917 C 205.061 58.129,205.881 54.045,206.363 51.833 C 206.662 50.466,206.781 50.167,207.030 50.167 C 207.321 50.167,207.333 50.790,207.333 65.667 L 207.333 81.167 210.750 81.167 L 214.167 81.167 214.167 63.083 L 214.167 45.000 207.766 45.000 L 201.364 45.000 201.021 46.542 C 200.832 47.390,200.520 48.908,200.328 49.917 C 200.136 50.925,199.830 52.500,199.646 53.417 C 199.463 54.333,199.168 55.815,198.990 56.708 C 198.812 57.602,198.512 59.102,198.323 60.042 C 197.577 63.759,197.334 64.989,197.000 66.750 C 196.657 68.556,196.319 70.262,195.670 73.458 C 195.488 74.352,195.298 75.365,195.246 75.708 C 195.036 77.100,194.339 76.333,194.070 74.417 C 194.019 74.050,193.836 73.075,193.664 72.250 C 193.491 71.425,193.193 69.962,193.000 69.000 C 192.807 68.037,192.502 66.575,192.322 65.750 C 192.142 64.925,191.997 64.100,192.000 63.917 C 192.003 63.733,191.858 62.908,191.678 62.083 C 191.367 60.658,191.054 59.128,190.323 55.458 C 190.146 54.565,189.854 53.102,189.677 52.208 C 189.185 49.741,188.710 47.371,188.464 46.167 L 188.243 45.083 181.788 45.040 L 175.333 44.996 175.333 63.081 M234.333 63.083 L 234.333 81.167 237.833 81.167 L 241.333 81.167 241.333 65.500 C 241.333 49.944,241.336 49.833,241.667 49.833 C 241.901 49.833,242.001 49.945,242.002 50.208 C 242.003 50.415,242.153 51.059,242.335 51.640 C 242.518 52.221,242.667 52.879,242.667 53.102 C 242.667 53.325,242.813 54.049,242.991 54.712 C 243.170 55.374,243.478 56.667,243.677 57.583 C 243.876 58.500,244.173 59.813,244.337 60.500 C 244.502 61.188,244.788 62.425,244.974 63.250 C 245.160 64.075,245.475 65.462,245.674 66.333 C 246.464 69.783,246.660 70.644,247.000 72.167 C 247.195 73.037,247.500 74.292,247.677 74.955 C 247.855 75.617,248.000 76.330,247.999 76.538 C 247.999 76.746,248.144 77.442,248.320 78.083 C 248.497 78.725,248.728 79.681,248.833 80.208 L 249.024 81.167 255.595 81.167 L 262.167 81.167 262.167 63.083 L 262.167 45.000 258.750 45.000 L 255.333 45.000 255.333 60.667 C 255.333 75.812,255.323 76.333,255.024 76.333 C 254.723 76.333,253.998 74.419,253.999 73.627 C 254.000 73.467,253.861 72.792,253.690 72.127 C 253.520 71.461,253.212 70.167,253.007 69.250 C 252.802 68.333,252.495 66.983,252.326 66.250 C 252.157 65.517,251.857 64.204,251.661 63.333 C 251.464 62.462,251.168 61.188,251.004 60.500 C 250.840 59.813,250.543 58.500,250.344 57.583 C 250.145 56.667,249.836 55.374,249.658 54.712 C 249.479 54.049,249.334 53.337,249.334 53.129 C 249.334 52.920,249.190 52.225,249.014 51.583 C 248.838 50.942,248.529 49.667,248.327 48.750 C 248.125 47.833,247.845 46.615,247.705 46.042 L 247.451 45.000 240.892 45.000 L 234.333 45.000 234.333 63.083 M281.667 63.083 L 281.667 81.167 293.417 81.167 L 305.167 81.167 305.167 77.917 L 305.167 74.667 296.917 74.667 L 288.667 74.667 288.667 59.833 L 288.667 45.000 285.167 45.000 L 281.667 45.000 281.667 63.083 M309.500 63.083 L 309.500 81.167 313.083 81.167 L 316.667 81.167 316.667 63.083 L 316.667 45.000 313.083 45.000 L 309.500 45.000 309.500 63.083 M320.667 45.280 C 320.667 45.434,320.811 46.053,320.986 46.655 C 321.162 47.257,321.377 48.050,321.464 48.417 C 321.782 49.761,322.042 50.775,322.339 51.833 C 322.619 52.829,322.761 53.390,323.204 55.250 C 323.291 55.617,323.481 56.329,323.625 56.833 C 323.770 57.337,323.946 58.050,324.016 58.417 C 324.086 58.783,324.268 59.533,324.420 60.083 C 324.572 60.633,324.842 61.664,325.020 62.374 C 325.197 63.083,325.498 64.283,325.688 65.040 C 325.878 65.797,326.176 66.906,326.350 67.505 C 326.524 68.103,326.667 68.691,326.667 68.811 C 326.667 68.931,326.812 69.566,326.989 70.223 C 327.167 70.879,327.471 72.054,327.665 72.833 C 327.860 73.612,328.159 74.775,328.329 75.417 C 328.644 76.601,329.125 78.506,329.530 80.167 L 329.753 81.083 335.702 81.127 L 341.652 81.171 341.837 80.460 C 341.939 80.070,342.161 79.225,342.330 78.583 C 342.628 77.450,342.877 76.452,343.204 75.083 C 343.292 74.717,343.503 73.892,343.673 73.250 C 343.971 72.131,344.236 71.087,345.007 68.000 C 345.201 67.221,345.500 66.058,345.671 65.417 C 345.841 64.775,346.140 63.612,346.335 62.833 C 346.529 62.054,346.833 60.879,347.011 60.223 C 347.188 59.566,347.333 58.931,347.333 58.811 C 347.333 58.691,347.476 58.103,347.650 57.505 C 347.824 56.906,348.116 55.817,348.299 55.083 C 349.064 52.021,349.317 51.032,349.579 50.083 C 349.731 49.533,349.920 48.746,349.999 48.333 C 350.078 47.921,350.260 47.255,350.404 46.854 C 350.549 46.453,350.667 45.872,350.667 45.562 L 350.667 45.000 347.101 45.000 C 343.253 45.000,343.333 44.981,343.333 45.898 C 343.333 46.102,343.193 46.714,343.022 47.259 C 342.850 47.804,342.627 48.663,342.525 49.167 C 342.423 49.671,342.255 50.421,342.152 50.833 C 341.668 52.778,341.320 54.207,340.995 55.583 C 340.801 56.408,340.497 57.608,340.320 58.250 C 340.144 58.892,339.999 59.574,339.999 59.766 C 340.000 59.957,339.850 60.550,339.667 61.083 C 339.483 61.616,339.333 62.241,339.333 62.473 C 339.333 62.704,339.190 63.386,339.016 63.988 C 338.659 65.218,338.313 66.627,337.418 70.500 C 336.368 75.043,335.933 76.498,335.625 76.499 C 335.405 76.500,335.333 76.363,335.333 75.943 C 335.333 75.636,335.183 74.950,335.000 74.417 C 334.817 73.884,334.667 73.291,334.667 73.099 C 334.667 72.907,334.523 72.225,334.346 71.583 C 334.169 70.942,333.866 69.742,333.671 68.917 C 333.477 68.092,333.179 66.854,333.009 66.167 C 332.840 65.479,332.618 64.579,332.517 64.167 C 332.416 63.754,332.253 63.042,332.155 62.583 C 332.058 62.125,331.858 61.337,331.712 60.833 C 331.565 60.329,331.393 59.617,331.330 59.250 C 331.267 58.883,331.083 58.058,330.922 57.417 C 330.761 56.775,330.483 55.650,330.304 54.917 C 330.124 54.183,329.833 53.041,329.656 52.379 C 329.478 51.716,329.333 51.049,329.333 50.896 C 329.333 50.744,329.194 50.124,329.023 49.518 C 328.853 48.912,328.534 47.648,328.315 46.710 L 327.917 45.002 324.292 45.001 C 321.008 45.000,320.667 45.026,320.667 45.280 M354.833 63.083 L 354.833 81.167 366.667 81.167 L 378.500 81.167 378.500 77.917 L 378.500 74.667 370.250 74.667 L 362.000 74.667 362.000 70.417 L 362.000 66.167 369.333 66.167 L 376.667 66.167 376.667 62.917 L 376.667 59.667 369.333 59.667 L 362.000 59.667 362.000 55.500 L 362.000 51.333 370.083 51.333 L 378.167 51.333 378.167 48.167 L 378.167 45.000 366.500 45.000 L 354.833 45.000 354.833 63.083 M122.784 50.989 C 125.290 51.789,126.846 53.489,127.599 56.250 C 128.109 58.121,128.074 68.383,127.552 70.121 C 126.332 74.181,122.483 76.266,117.971 75.312 C 116.241 74.946,113.333 72.971,113.333 72.161 C 113.333 72.066,113.203 71.789,113.044 71.546 C 112.075 70.068,111.700 58.936,112.520 56.014 C 113.011 54.262,114.736 51.833,115.489 51.833 C 115.573 51.833,115.742 51.736,115.863 51.617 C 116.079 51.406,117.846 50.768,118.667 50.606 C 119.465 50.448,121.757 50.662,122.784 50.989 M156.969 50.845 C 158.390 51.205,159.797 51.879,159.948 52.272 C 159.996 52.397,160.126 52.500,160.236 52.500 C 160.693 52.500,161.858 54.418,162.330 55.946 C 162.887 57.747,162.841 68.539,162.269 70.341 C 161.200 73.710,158.620 75.500,154.833 75.500 C 152.902 75.500,150.351 74.749,149.950 74.062 C 149.877 73.936,149.749 73.833,149.666 73.833 C 149.477 73.833,148.667 73.033,148.667 72.846 C 148.667 72.770,148.558 72.617,148.425 72.507 C 147.285 71.561,147.013 69.764,147.006 63.138 C 147.000 57.015,147.072 56.234,147.787 54.700 C 148.199 53.818,149.878 51.833,150.213 51.833 C 150.311 51.833,150.509 51.733,150.654 51.611 C 150.922 51.383,152.747 50.746,153.500 50.617 C 154.501 50.445,155.699 50.524,156.969 50.845 M38.567 53.109 C 38.228 53.419,37.999 53.721,38.057 53.780 C 38.116 53.838,38.071 53.998,37.957 54.135 C 37.705 54.439,37.599 72.439,37.849 72.593 C 37.932 72.644,38.000 72.823,38.000 72.991 C 38.000 73.158,38.187 73.418,38.416 73.567 C 38.644 73.717,38.813 73.906,38.791 73.986 C 38.768 74.067,38.787 74.128,38.833 74.122 C 38.879 74.116,39.084 74.200,39.288 74.309 C 39.683 74.520,40.267 74.318,40.552 73.871 C 40.626 73.755,40.758 73.703,40.844 73.756 C 40.930 73.810,41.000 73.783,41.000 73.697 C 41.000 73.611,41.225 73.447,41.500 73.333 C 41.775 73.219,42.000 73.056,42.000 72.970 C 42.000 72.884,42.080 72.863,42.178 72.924 C 42.276 72.984,42.444 72.917,42.553 72.776 C 42.661 72.634,42.861 72.495,42.996 72.467 C 43.131 72.440,43.335 72.342,43.449 72.250 C 43.942 71.851,44.111 71.747,44.340 71.696 C 44.474 71.666,44.608 71.572,44.639 71.486 C 44.670 71.401,44.764 71.374,44.848 71.425 C 44.931 71.477,45.000 71.440,45.000 71.343 C 45.000 71.246,45.103 71.167,45.230 71.167 C 45.356 71.167,45.557 71.049,45.677 70.904 C 45.796 70.760,46.199 70.488,46.572 70.299 C 46.945 70.110,47.296 69.884,47.352 69.797 C 47.408 69.710,47.502 69.645,47.560 69.652 C 47.861 69.693,47.997 69.645,48.220 69.423 C 48.354 69.288,48.566 69.157,48.690 69.131 C 48.814 69.105,49.003 68.971,49.111 68.833 C 49.218 68.696,49.369 68.580,49.445 68.575 C 49.819 68.553,50.313 68.295,50.396 68.077 C 50.447 67.943,50.642 67.833,50.828 67.833 C 51.014 67.833,51.167 67.777,51.167 67.708 C 51.168 67.640,51.505 67.445,51.917 67.275 C 52.329 67.106,52.629 66.907,52.583 66.833 C 52.538 66.760,52.832 66.562,53.237 66.395 C 53.641 66.228,53.937 66.033,53.893 65.962 C 53.824 65.850,53.920 65.817,54.256 65.839 C 54.305 65.843,54.452 65.749,54.584 65.631 C 55.009 65.248,55.259 65.084,55.497 65.031 C 55.782 64.967,56.590 64.133,56.538 63.958 C 56.517 63.890,56.570 63.833,56.655 63.833 C 56.782 63.833,56.784 63.168,56.658 62.833 C 56.641 62.788,56.638 62.688,56.651 62.613 C 56.664 62.537,56.604 62.519,56.517 62.573 C 56.431 62.626,56.212 62.482,56.031 62.252 C 55.850 62.022,55.579 61.833,55.429 61.833 C 55.279 61.833,55.113 61.721,55.060 61.583 C 55.008 61.446,54.822 61.333,54.649 61.333 C 54.475 61.333,54.333 61.258,54.333 61.167 C 54.333 61.075,54.229 61.000,54.101 61.000 C 53.973 61.000,53.823 60.880,53.766 60.733 C 53.710 60.586,53.568 60.502,53.451 60.547 C 53.199 60.644,52.464 60.092,52.627 59.929 C 52.689 59.866,52.621 59.861,52.475 59.917 C 52.316 59.978,52.170 59.915,52.110 59.760 C 52.055 59.617,51.896 59.500,51.755 59.500 C 51.615 59.500,51.500 59.421,51.500 59.323 C 51.500 59.226,51.430 59.190,51.344 59.243 C 51.258 59.296,51.012 59.164,50.798 58.949 C 50.583 58.734,50.334 58.583,50.244 58.613 C 50.154 58.643,49.878 58.480,49.631 58.250 C 49.384 58.021,49.075 57.833,48.944 57.833 C 48.814 57.833,48.613 57.719,48.497 57.579 C 48.381 57.440,48.250 57.361,48.206 57.405 C 48.163 57.448,48.033 57.394,47.917 57.284 C 47.582 56.963,47.044 56.616,46.930 56.646 C 46.873 56.662,46.637 56.485,46.405 56.254 C 46.174 56.023,45.886 55.833,45.765 55.833 C 45.644 55.833,45.357 55.686,45.128 55.505 C 44.899 55.325,44.664 55.225,44.606 55.283 C 44.548 55.341,44.500 55.306,44.500 55.206 C 44.500 55.105,44.349 54.975,44.164 54.916 C 43.980 54.857,43.871 54.741,43.923 54.657 C 43.975 54.573,43.902 54.548,43.760 54.603 C 43.609 54.661,43.461 54.591,43.400 54.434 C 43.344 54.287,43.229 54.167,43.146 54.167 C 43.062 54.167,42.714 53.990,42.372 53.774 C 42.030 53.558,41.691 53.374,41.619 53.363 C 41.547 53.353,41.381 53.249,41.250 53.131 C 40.666 52.606,40.524 52.545,39.872 52.545 C 39.321 52.545,39.059 52.658,38.567 53.109 M220.667 68.333 L 220.667 81.167 224.083 81.167 L 227.500 81.167 227.500 68.333 L 227.500 55.500 224.083 55.500 L 220.667 55.500 220.667 68.333 " stroke="none" fill="#fbfcfc" fill-rule="evenodd"></path><path id="path1" d="M54.087 44.297 C 54.353 44.525,55.196 44.849,55.094 44.684 C 55.043 44.601,54.758 44.448,54.462 44.345 C 54.166 44.242,53.998 44.220,54.087 44.297 M61.000 45.617 C 61.000 45.809,61.473 46.254,61.566 46.149 C 61.598 46.113,61.483 45.939,61.312 45.763 C 61.140 45.586,61.000 45.521,61.000 45.617 M30.324 48.292 L 29.750 48.917 30.415 48.333 C 30.780 48.012,31.112 47.731,31.151 47.708 C 31.190 47.685,31.149 47.667,31.060 47.667 C 30.972 47.667,30.640 47.948,30.324 48.292 M37.705 58.500 C 37.705 58.821,37.740 58.952,37.782 58.792 C 37.823 58.631,37.823 58.369,37.782 58.208 C 37.740 58.048,37.705 58.179,37.705 58.500 M37.705 60.667 C 37.705 60.987,37.740 61.119,37.782 60.958 C 37.823 60.798,37.823 60.535,37.782 60.375 C 37.740 60.215,37.705 60.346,37.705 60.667 M21.560 63.000 C 21.560 63.871,21.588 64.227,21.623 63.792 C 21.657 63.356,21.657 62.644,21.623 62.208 C 21.588 61.773,21.560 62.129,21.560 63.000 M66.039 62.000 C 66.039 62.321,66.073 62.452,66.115 62.292 C 66.157 62.131,66.157 61.869,66.115 61.708 C 66.073 61.548,66.039 61.679,66.039 62.000 M37.705 62.667 C 37.705 62.987,37.740 63.119,37.782 62.958 C 37.823 62.798,37.823 62.535,37.782 62.375 C 37.740 62.215,37.705 62.346,37.705 62.667 M65.398 74.922 C 65.246 75.154,65.152 75.374,65.189 75.411 C 65.226 75.448,65.383 75.258,65.537 74.989 C 65.881 74.390,65.779 74.340,65.398 74.922 M60.240 77.236 C 60.063 77.366,59.961 77.517,60.015 77.571 C 60.069 77.625,60.249 77.518,60.416 77.334 C 60.770 76.943,60.697 76.902,60.240 77.236 M61.658 79.792 L 61.083 80.417 61.708 79.842 C 62.052 79.526,62.333 79.245,62.333 79.217 C 62.333 79.090,62.192 79.210,61.658 79.792 M42.875 83.782 C 43.035 83.823,43.298 83.823,43.458 83.782 C 43.619 83.740,43.487 83.705,43.167 83.705 C 42.846 83.705,42.715 83.740,42.875 83.782 M46.875 83.782 C 47.035 83.823,47.298 83.823,47.458 83.782 C 47.619 83.740,47.487 83.705,47.167 83.705 C 46.846 83.705,46.715 83.740,46.875 83.782 " stroke="none" fill="#f4f4f4" fill-rule="evenodd"></path><path id="path2" d="M44.625 39.454 C 44.923 39.491,45.410 39.491,45.708 39.454 C 46.006 39.417,45.762 39.387,45.167 39.387 C 44.571 39.387,44.327 39.417,44.625 39.454 M44.059 42.281 C 44.190 42.413,46.165 42.391,46.299 42.256 C 46.349 42.207,45.839 42.167,45.167 42.167 C 44.494 42.167,43.996 42.218,44.059 42.281 " stroke="none" fill="#ececec" fill-rule="evenodd"></path><path id="path3" d="" stroke="none" fill="#f8fc100" fill-rule="evenodd"></path><path id="path4" d="" stroke="none" fill="#f8fc100" fill-rule="evenodd"></path></g></svg>