<svg width="13" height="12" viewBox="0 0 13 12" fill="none" xmlns="http://www.w3.org/2000/svg">
<path d="M12.8513 4.94354L8.2471 0.162345C8.17361 0.0862472 8.07909 0.0338014 7.97563 0.011716C7.87217 -0.0103694 7.76447 -0.00109042 7.66631 0.0383662C7.56803 0.0780324 7.48383 0.14615 7.42451 0.233986C7.3652 0.321822 7.33347 0.425372 7.33339 0.53136V2.8335H7.15635C3.3484 2.8335 0.250183 5.93172 0.250183 9.73967V10.8022C0.250183 11.0486 0.423701 11.2541 0.66379 11.3101C0.702836 11.3199 0.74175 11.3242 0.780663 11.3242C0.981175 11.3242 1.17312 11.2066 1.26585 11.0217C2.2618 9.02917 4.26419 7.79174 6.4919 7.79174H7.33339V10.0937C7.33336 10.1997 7.36505 10.3032 7.42439 10.3909C7.48373 10.4787 7.56799 10.5467 7.66631 10.5861C7.8654 10.6675 8.09692 10.618 8.2471 10.4621L12.8513 5.68091C13.0496 5.47482 13.0496 5.15043 12.8513 4.94357V4.94354Z" fill="white"/>
</svg>
