<svg width="187" height="34" viewBox="0 0 187 34" fill="none" xmlns="http://www.w3.org/2000/svg">
<path d="M49.3739 20.92H56.0179V24H45.1059V21.14L51.7059 11.636H45.1059V8.556H56.0179V11.416L49.3739 20.92ZM65.7793 24.154C64.3273 24.154 62.9927 23.8167 61.7753 23.142C60.5727 22.4673 59.612 21.5287 58.8933 20.326C58.1893 19.1087 57.8373 17.7447 57.8373 16.234C57.8373 14.7233 58.1893 13.3667 58.8933 12.164C59.612 10.9613 60.5727 10.0227 61.7753 9.348C62.9927 8.67333 64.3273 8.336 65.7793 8.336C67.2313 8.336 68.5587 8.67333 69.7613 9.348C70.9787 10.0227 71.932 10.9613 72.6213 12.164C73.3253 13.3667 73.6773 14.7233 73.6773 16.234C73.6773 17.7447 73.3253 19.1087 72.6213 20.326C71.9173 21.5287 70.964 22.4673 69.7613 23.142C68.5587 23.8167 67.2313 24.154 65.7793 24.154ZM65.7793 20.722C67.0113 20.722 67.994 20.3113 68.7273 19.49C69.4753 18.6687 69.8493 17.5833 69.8493 16.234C69.8493 14.87 69.4753 13.7847 68.7273 12.978C67.994 12.1567 67.0113 11.746 65.7793 11.746C64.5327 11.746 63.5353 12.1493 62.7873 12.956C62.054 13.7627 61.6873 14.8553 61.6873 16.234C61.6873 17.598 62.054 18.6907 62.7873 19.512C63.5353 20.3187 64.5327 20.722 65.7793 20.722ZM83.0743 24.154C81.6223 24.154 80.2876 23.8167 79.0703 23.142C77.8676 22.4673 76.9069 21.5287 76.1883 20.326C75.4842 19.1087 75.1322 17.7447 75.1322 16.234C75.1322 14.7233 75.4842 13.3667 76.1883 12.164C76.9069 10.9613 77.8676 10.0227 79.0703 9.348C80.2876 8.67333 81.6223 8.336 83.0743 8.336C84.5263 8.336 85.8536 8.67333 87.0563 9.348C88.2736 10.0227 89.2269 10.9613 89.9163 12.164C90.6203 13.3667 90.9723 14.7233 90.9723 16.234C90.9723 17.7447 90.6203 19.1087 89.9163 20.326C89.2123 21.5287 88.2589 22.4673 87.0563 23.142C85.8536 23.8167 84.5263 24.154 83.0743 24.154ZM83.0743 20.722C84.3063 20.722 85.2889 20.3113 86.0222 19.49C86.7703 18.6687 87.1443 17.5833 87.1443 16.234C87.1443 14.87 86.7703 13.7847 86.0222 12.978C85.2889 12.1567 84.3063 11.746 83.0743 11.746C81.8276 11.746 80.8303 12.1493 80.0823 12.956C79.3489 13.7627 78.9823 14.8553 78.9823 16.234C78.9823 17.598 79.3489 18.6907 80.0823 19.512C80.8303 20.3187 81.8276 20.722 83.0743 20.722ZM110.555 8.556V24H106.793V14.738L103.339 24H100.303L96.8272 14.716V24H93.0652V8.556H97.5092L101.843 19.248L106.133 8.556H110.555ZM115.152 10.448C114.492 10.448 113.95 10.2573 113.524 9.876C113.114 9.48 112.908 8.996 112.908 8.424C112.908 7.83733 113.114 7.35333 113.524 6.972C113.95 6.576 114.492 6.378 115.152 6.378C115.798 6.378 116.326 6.576 116.736 6.972C117.162 7.35333 117.374 7.83733 117.374 8.424C117.374 8.996 117.162 9.48 116.736 9.876C116.326 10.2573 115.798 10.448 115.152 10.448ZM117.022 11.724V24H113.26V11.724H117.022ZM133.565 24H129.803L123.511 14.474V24H119.749V8.556H123.511L129.803 18.126V8.556H133.565V24ZM144.716 21.096H149.644V24H140.954V8.556H144.716V21.096ZM153.33 10.448C152.67 10.448 152.128 10.2573 151.702 9.876C151.292 9.48 151.086 8.996 151.086 8.424C151.086 7.83733 151.292 7.35333 151.702 6.972C152.128 6.576 152.67 6.378 153.33 6.378C153.976 6.378 154.504 6.576 154.914 6.972C155.34 7.35333 155.552 7.83733 155.552 8.424C155.552 8.996 155.34 9.48 154.914 9.876C154.504 10.2573 153.976 10.448 153.33 10.448ZM155.2 11.724V24H151.438V11.724H155.2ZM163.449 20.48L166.111 11.724H170.115L165.759 24H161.117L156.761 11.724H160.787L163.449 20.48ZM183.27 17.664C183.27 18.016 183.248 18.3827 183.204 18.764H174.69C174.749 19.5267 174.991 20.1133 175.416 20.524C175.856 20.92 176.391 21.118 177.022 21.118C177.961 21.118 178.613 20.722 178.98 19.93H182.984C182.779 20.7367 182.405 21.4627 181.862 22.108C181.334 22.7533 180.667 23.2593 179.86 23.626C179.053 23.9927 178.151 24.176 177.154 24.176C175.951 24.176 174.881 23.9193 173.942 23.406C173.003 22.8927 172.27 22.1593 171.742 21.206C171.214 20.2527 170.95 19.138 170.95 17.862C170.95 16.586 171.207 15.4713 171.72 14.518C172.248 13.5647 172.981 12.8313 173.92 12.318C174.859 11.8047 175.937 11.548 177.154 11.548C178.342 11.548 179.398 11.7973 180.322 12.296C181.246 12.7947 181.965 13.506 182.478 14.43C183.006 15.354 183.27 16.432 183.27 17.664ZM179.42 16.674C179.42 16.0287 179.2 15.5153 178.76 15.134C178.32 14.7527 177.77 14.562 177.11 14.562C176.479 14.562 175.944 14.7453 175.504 15.112C175.079 15.4787 174.815 15.9993 174.712 16.674H179.42Z" fill="white"/>
<path d="M49.3739 20.92L49.1989 20.7977L48.9641 21.1335H49.3739V20.92ZM56.0179 20.92H56.2314V20.7065H56.0179V20.92ZM56.0179 24V24.2135H56.2314V24H56.0179ZM45.1059 24H44.8924V24.2135H45.1059V24ZM45.1059 21.14L44.9305 21.0182L44.8924 21.0731V21.14H45.1059ZM51.7059 11.636L51.8812 11.7578L52.1141 11.4225H51.7059V11.636ZM45.1059 11.636H44.8924V11.8495H45.1059V11.636ZM45.1059 8.556V8.34249H44.8924V8.556H45.1059ZM56.0179 8.556H56.2314V8.34249H56.0179V8.556ZM56.0179 11.416L56.1928 11.5383L56.2314 11.4832V11.416H56.0179ZM49.3739 21.1335H56.0179V20.7065H49.3739V21.1335ZM55.8044 20.92V24H56.2314V20.92H55.8044ZM56.0179 23.7865H45.1059V24.2135H56.0179V23.7865ZM45.3194 24V21.14H44.8924V24H45.3194ZM45.2812 21.2618L51.8812 11.7578L51.5305 11.5142L44.9305 21.0182L45.2812 21.2618ZM51.7059 11.4225H45.1059V11.8495H51.7059V11.4225ZM45.3194 11.636V8.556H44.8924V11.636H45.3194ZM45.1059 8.76951H56.0179V8.34249H45.1059V8.76951ZM55.8044 8.556V11.416H56.2314V8.556H55.8044ZM55.8429 11.2937L49.1989 20.7977L49.5488 21.0423L56.1928 11.5383L55.8429 11.2937ZM61.7753 23.142L61.6709 23.3282L61.6718 23.3287L61.7753 23.142ZM58.8933 20.326L58.7085 20.4329L58.71 20.4355L58.8933 20.326ZM58.8933 12.164L58.71 12.0545L58.7091 12.0561L58.8933 12.164ZM61.7753 9.348L61.6718 9.16125L61.6709 9.16179L61.7753 9.348ZM69.7613 9.348L69.6569 9.53421L69.6578 9.53475L69.7613 9.348ZM72.6213 12.164L72.4361 12.2702L72.4371 12.2719L72.6213 12.164ZM72.6213 20.326L72.8056 20.4339L72.8062 20.4329L72.6213 20.326ZM69.7613 23.142L69.8658 23.3282L69.7613 23.142ZM68.7273 19.49L68.5695 19.3462L68.5681 19.3478L68.7273 19.49ZM68.7273 12.978L68.568 13.1202L68.5708 13.1232L68.7273 12.978ZM62.7873 12.956L62.6308 12.8108L62.6293 12.8124L62.7873 12.956ZM62.7873 19.512L62.628 19.6542L62.6308 19.6572L62.7873 19.512ZM65.7793 23.9405C64.3619 23.9405 63.0631 23.6116 61.8788 22.9553L61.6718 23.3287C62.9222 24.0217 64.2927 24.3675 65.7793 24.3675V23.9405ZM61.8798 22.9558C60.7102 22.2997 59.7765 21.3877 59.0766 20.2165L58.71 20.4355C59.4475 21.6697 60.4351 22.635 61.6709 23.3282L61.8798 22.9558ZM59.0782 20.2191C58.3943 19.0367 58.0508 17.71 58.0508 16.234H57.6238C57.6238 17.7793 57.9843 19.1807 58.7085 20.4329L59.0782 20.2191ZM58.0508 16.234C58.0508 14.758 58.3943 13.4391 59.0776 12.2719L58.7091 12.0561C57.9843 13.2943 57.6238 14.6887 57.6238 16.234H58.0508ZM59.0766 12.2735C59.7765 11.1023 60.7102 10.1903 61.8798 9.53421L61.6709 9.16179C60.4351 9.855 59.4475 10.8203 58.71 12.0545L59.0766 12.2735ZM61.8788 9.53475C63.0631 8.8784 64.3619 8.54951 65.7793 8.54951V8.12249C64.2927 8.12249 62.9222 8.46826 61.6718 9.16125L61.8788 9.53475ZM65.7793 8.54951C67.1968 8.54951 68.4878 8.8784 69.6569 9.53421L69.8658 9.16179C68.6295 8.46827 67.2659 8.12249 65.7793 8.12249V8.54951ZM69.6578 9.53475C70.8412 10.1906 71.7662 11.1015 72.4361 12.2702L72.8066 12.0578C72.0978 10.8212 71.1161 9.85473 69.8648 9.16125L69.6578 9.53475ZM72.4371 12.2719C73.1203 13.4391 73.4638 14.758 73.4638 16.234H73.8908C73.8908 14.6887 73.5303 13.2943 72.8056 12.0561L72.4371 12.2719ZM73.4638 16.234C73.4638 17.71 73.1203 19.0367 72.4365 20.2191L72.8062 20.4329C73.5303 19.1807 73.8908 17.7793 73.8908 16.234H73.4638ZM72.4371 20.2181C71.752 21.3884 70.8261 22.2999 69.6569 22.9558L69.8658 23.3282C71.1019 22.6348 72.0826 21.6689 72.8056 20.4339L72.4371 20.2181ZM69.6569 22.9558C68.4878 23.6116 67.1968 23.9405 65.7793 23.9405V24.3675C67.2659 24.3675 68.6295 24.0217 69.8658 23.3282L69.6569 22.9558ZM65.7793 20.9355C67.0641 20.9355 68.1077 20.5046 68.8866 19.6322L68.5681 19.3478C67.8803 20.1181 66.9586 20.5085 65.7793 20.5085V20.9355ZM68.8852 19.6338C69.6763 18.7651 70.0628 17.6245 70.0628 16.234H69.6358C69.6358 17.5422 69.2743 18.5723 68.5695 19.3462L68.8852 19.6338ZM70.0628 16.234C70.0628 14.8297 69.6768 13.6879 68.8839 12.8328L68.5708 13.1232C69.2739 13.8815 69.6358 14.9103 69.6358 16.234H70.0628ZM68.8866 12.8358C68.1077 11.9634 67.0641 11.5325 65.7793 11.5325V11.9595C66.9586 11.9595 67.8803 12.3499 68.5681 13.1202L68.8866 12.8358ZM65.7793 11.5325C64.482 11.5325 63.4247 11.9546 62.6308 12.8108L62.9439 13.1012C63.6459 12.3441 64.5834 11.9595 65.7793 11.9595V11.5325ZM62.6293 12.8124C61.8516 13.6679 61.4738 14.8168 61.4738 16.234H61.9008C61.9008 14.8939 62.2564 13.8574 62.9453 13.0996L62.6293 12.8124ZM61.4738 16.234C61.4738 17.6374 61.852 18.785 62.6281 19.6542L62.9466 19.3698C62.256 18.5963 61.9008 17.5586 61.9008 16.234H61.4738ZM62.6308 19.6572C63.4247 20.5134 64.482 20.9355 65.7793 20.9355V20.5085C64.5834 20.5085 63.6459 20.1239 62.9439 19.3668L62.6308 19.6572ZM79.0703 23.142L78.9658 23.3282L78.9668 23.3287L79.0703 23.142ZM76.1883 20.326L76.0034 20.4329L76.005 20.4355L76.1883 20.326ZM76.1883 12.164L76.005 12.0545L76.004 12.0561L76.1883 12.164ZM79.0703 9.348L78.9668 9.16125L78.9658 9.16179L79.0703 9.348ZM87.0563 9.348L86.9518 9.53421L86.9528 9.53475L87.0563 9.348ZM89.9163 12.164L89.731 12.2702L89.732 12.2719L89.9163 12.164ZM89.9163 20.326L90.1005 20.4339L90.1011 20.4329L89.9163 20.326ZM87.0563 23.142L87.1607 23.3282L87.0563 23.142ZM86.0223 19.49L85.8644 19.3462L85.863 19.3478L86.0223 19.49ZM86.0223 12.978L85.863 13.1202L85.8657 13.1232L86.0223 12.978ZM80.0822 12.956L79.9257 12.8108L79.9243 12.8124L80.0822 12.956ZM80.0822 19.512L79.923 19.6542L79.9257 19.6572L80.0822 19.512ZM83.0742 23.9405C81.6568 23.9405 80.358 23.6116 79.1737 22.9553L78.9668 23.3287C80.2172 24.0217 81.5877 24.3675 83.0742 24.3675V23.9405ZM79.1747 22.9558C78.0051 22.2997 77.0714 21.3877 76.3715 20.2165L76.005 20.4355C76.7424 21.6697 77.7301 22.635 78.9658 23.3282L79.1747 22.9558ZM76.3731 20.2191C75.6893 19.0367 75.3458 17.71 75.3458 16.234H74.9187C74.9187 17.7793 75.2792 19.1807 76.0034 20.4329L76.3731 20.2191ZM75.3458 16.234C75.3458 14.758 75.6893 13.4391 76.3725 12.2719L76.004 12.0561C75.2792 13.2943 74.9187 14.6887 74.9187 16.234H75.3458ZM76.3715 12.2735C77.0714 11.1023 78.0051 10.1903 79.1747 9.53421L78.9658 9.16179C77.7301 9.855 76.7424 10.8203 76.005 12.0545L76.3715 12.2735ZM79.1737 9.53475C80.358 8.8784 81.6568 8.54951 83.0742 8.54951V8.12249C81.5877 8.12249 80.2172 8.46826 78.9668 9.16125L79.1737 9.53475ZM83.0742 8.54951C84.4917 8.54951 85.7827 8.8784 86.9518 9.53421L87.1607 9.16179C85.9244 8.46827 84.5608 8.12249 83.0742 8.12249V8.54951ZM86.9528 9.53475C88.1361 10.1906 89.0611 11.1015 89.731 12.2702L90.1015 12.0578C89.3927 10.8212 88.411 9.85473 87.1597 9.16125L86.9528 9.53475ZM89.732 12.2719C90.4152 13.4391 90.7587 14.758 90.7587 16.234H91.1858C91.1858 14.6887 90.8253 13.2943 90.1005 12.0561L89.732 12.2719ZM90.7587 16.234C90.7587 17.71 90.4152 19.0367 89.7314 20.2191L90.1011 20.4329C90.8253 19.1807 91.1858 17.7793 91.1858 16.234H90.7587ZM89.732 20.2181C89.0469 21.3884 88.121 22.2999 86.9518 22.9558L87.1607 23.3282C88.3968 22.6348 89.3776 21.6689 90.1005 20.4339L89.732 20.2181ZM86.9518 22.9558C85.7827 23.6116 84.4917 23.9405 83.0742 23.9405V24.3675C84.5608 24.3675 85.9244 24.0217 87.1607 23.3282L86.9518 22.9558ZM83.0742 20.9355C84.359 20.9355 85.4026 20.5046 86.1815 19.6322L85.863 19.3478C85.1752 20.1181 84.2535 20.5085 83.0742 20.5085V20.9355ZM86.1801 19.6338C86.9712 18.7651 87.3578 17.6245 87.3578 16.234H86.9307C86.9307 17.5422 86.5693 18.5723 85.8644 19.3462L86.1801 19.6338ZM87.3578 16.234C87.3578 14.8297 86.9717 13.6879 86.1788 12.8328L85.8657 13.1232C86.5688 13.8815 86.9307 14.9103 86.9307 16.234H87.3578ZM86.1815 12.8358C85.4026 11.9634 84.359 11.5325 83.0742 11.5325V11.9595C84.2535 11.9595 85.1752 12.3499 85.863 13.1202L86.1815 12.8358ZM83.0742 11.5325C81.7769 11.5325 80.7197 11.9546 79.9257 12.8108L80.2388 13.1012C80.9408 12.3441 81.8783 11.9595 83.0742 11.9595V11.5325ZM79.9243 12.8124C79.1465 13.6679 78.7687 14.8168 78.7687 16.234H79.1958C79.1958 14.8939 79.5514 13.8574 80.2402 13.0996L79.9243 12.8124ZM78.7687 16.234C78.7687 17.6374 79.1469 18.785 79.923 19.6542L80.2415 19.3698C79.5509 18.5963 79.1958 17.5586 79.1958 16.234H78.7687ZM79.9257 19.6572C80.7197 20.5134 81.7769 20.9355 83.0742 20.9355V20.5085C81.8783 20.5085 80.9408 20.1239 80.2388 19.3668L79.9257 19.6572ZM110.555 8.556H110.769V8.34249H110.555V8.556ZM110.555 24V24.2135H110.769V24H110.555ZM106.793 24H106.58V24.2135H106.793V24ZM106.793 14.738H107.007L106.593 14.6634L106.793 14.738ZM103.339 24V24.2135H103.487L103.539 24.0746L103.339 24ZM100.303 24L100.103 24.0749L100.155 24.2135H100.303V24ZM96.8272 14.716L97.0271 14.6411L96.6137 14.716H96.8272ZM96.8272 24V24.2135H97.0407V24H96.8272ZM93.0652 24H92.8517V24.2135H93.0652V24ZM93.0652 8.556V8.34249H92.8517V8.556H93.0652ZM97.5092 8.556L97.707 8.47579L97.653 8.34249H97.5092V8.556ZM101.843 19.248L101.645 19.3282L101.844 19.8188L102.041 19.3275L101.843 19.248ZM106.133 8.556V8.34249H105.989L105.935 8.47649L106.133 8.556ZM110.342 8.556V24H110.769V8.556H110.342ZM110.555 23.7865H106.793V24.2135H110.555V23.7865ZM107.007 24V14.738H106.58V24H107.007ZM106.593 14.6634L103.139 23.9254L103.539 24.0746L106.993 14.8126L106.593 14.6634ZM103.339 23.7865H100.303V24.2135H103.339V23.7865ZM100.503 23.9251L97.0271 14.6411L96.6272 14.7909L100.103 24.0749L100.503 23.9251ZM96.6137 14.716V24H97.0407V14.716H96.6137ZM96.8272 23.7865H93.0652V24.2135H96.8272V23.7865ZM93.2787 24V8.556H92.8517V24H93.2787ZM93.0652 8.76951H97.5092V8.34249H93.0652V8.76951ZM97.3113 8.63621L101.645 19.3282L102.041 19.1678L97.707 8.47579L97.3113 8.63621ZM102.041 19.3275L106.331 8.63551L105.935 8.47649L101.645 19.1685L102.041 19.3275ZM106.133 8.76951H110.555V8.34249H106.133V8.76951ZM113.524 9.876L113.376 10.0298L113.382 10.035L113.524 9.876ZM113.524 6.972L113.67 7.12846L113.67 7.12826L113.524 6.972ZM116.736 6.972L116.588 7.12579L116.594 7.13097L116.736 6.972ZM116.736 9.876L116.882 10.0325L116.882 10.0323L116.736 9.876ZM117.022 11.724H117.236V11.5105H117.022V11.724ZM117.022 24V24.2135H117.236V24H117.022ZM113.26 24H113.047V24.2135H113.26V24ZM113.26 11.724V11.5105H113.047V11.724H113.26ZM115.152 10.2345C114.536 10.2345 114.047 10.0578 113.667 9.71703L113.382 10.035C113.852 10.4568 114.449 10.6615 115.152 10.6615V10.2345ZM113.673 9.72231C113.304 9.36667 113.122 8.9382 113.122 8.424H112.695C112.695 9.0538 112.924 9.59333 113.376 10.0297L113.673 9.72231ZM113.122 8.424C113.122 7.89357 113.305 7.46731 113.67 7.12846L113.379 6.81554C112.923 7.23936 112.695 7.7811 112.695 8.424H113.122ZM113.67 7.12826C114.05 6.7741 114.539 6.59151 115.152 6.59151V6.16449C114.446 6.16449 113.849 6.3779 113.379 6.81573L113.67 7.12826ZM115.152 6.59151C115.75 6.59151 116.223 6.77319 116.588 7.12569L116.885 6.81831C116.429 6.3788 115.845 6.16449 115.152 6.16449V6.59151ZM116.594 7.13097C116.973 7.47058 117.161 7.89614 117.161 8.424H117.588C117.588 7.77853 117.351 7.23609 116.879 6.81303L116.594 7.13097ZM117.161 8.424C117.161 8.93566 116.974 9.36339 116.591 9.71973L116.882 10.0323C117.35 9.59661 117.588 9.05634 117.588 8.424H117.161ZM116.591 9.71954C116.226 10.0587 115.753 10.2345 115.152 10.2345V10.6615C115.843 10.6615 116.426 10.456 116.882 10.0325L116.591 9.71954ZM116.809 11.724V24H117.236V11.724H116.809ZM117.022 23.7865H113.26V24.2135H117.022V23.7865ZM113.474 24V11.724H113.047V24H113.474ZM113.26 11.9375H117.022V11.5105H113.26V11.9375ZM133.565 24V24.2135H133.778V24H133.565ZM129.803 24L129.625 24.1177L129.688 24.2135H129.803V24ZM123.511 14.474L123.689 14.3563L123.297 13.7634V14.474H123.511ZM123.511 24V24.2135H123.724V24H123.511ZM119.749 24H119.535V24.2135H119.749V24ZM119.749 8.556V8.34249H119.535V8.556H119.749ZM123.511 8.556L123.689 8.4387L123.626 8.34249H123.511V8.556ZM129.803 18.126L129.624 18.2433L130.016 18.8394V18.126H129.803ZM129.803 8.556V8.34249H129.589V8.556H129.803ZM133.565 8.556H133.778V8.34249H133.565V8.556ZM133.565 23.7865H129.803V24.2135H133.565V23.7865ZM129.981 23.8823L123.689 14.3563L123.333 14.5917L129.625 24.1177L129.981 23.8823ZM123.297 14.474V24H123.724V14.474H123.297ZM123.511 23.7865H119.749V24.2135H123.511V23.7865ZM119.962 24V8.556H119.535V24H119.962ZM119.749 8.76951H123.511V8.34249H119.749V8.76951ZM123.332 8.67329L129.624 18.2433L129.981 18.0087L123.689 8.4387L123.332 8.67329ZM130.016 18.126V8.556H129.589V18.126H130.016ZM129.803 8.76951H133.565V8.34249H129.803V8.76951ZM133.351 8.556V24H133.778V8.556H133.351ZM144.716 21.096H144.502V21.3095H144.716V21.096ZM149.644 21.096H149.857V20.8825H149.644V21.096ZM149.644 24V24.2135H149.857V24H149.644ZM140.954 24H140.74V24.2135H140.954V24ZM140.954 8.556V8.34249H140.74V8.556H140.954ZM144.716 8.556H144.929V8.34249H144.716V8.556ZM144.716 21.3095H149.644V20.8825H144.716V21.3095ZM149.43 21.096V24H149.857V21.096H149.43ZM149.644 23.7865H140.954V24.2135H149.644V23.7865ZM141.167 24V8.556H140.74V24H141.167ZM140.954 8.76951H144.716V8.34249H140.954V8.76951ZM144.502 8.556V21.096H144.929V8.556H144.502ZM151.702 9.876L151.554 10.0298L151.56 10.035L151.702 9.876ZM151.702 6.972L151.848 7.12846L151.848 7.12826L151.702 6.972ZM154.914 6.972L154.766 7.12579L154.772 7.13097L154.914 6.972ZM154.914 9.876L155.06 10.0325L155.06 10.0323L154.914 9.876ZM155.2 11.724H155.414V11.5105H155.2V11.724ZM155.2 24V24.2135H155.414V24H155.2ZM151.438 24H151.225V24.2135H151.438V24ZM151.438 11.724V11.5105H151.225V11.724H151.438ZM153.33 10.2345C152.714 10.2345 152.225 10.0578 151.845 9.71703L151.56 10.035C152.03 10.4568 152.626 10.6615 153.33 10.6615V10.2345ZM151.85 9.72231C151.482 9.36667 151.3 8.9382 151.3 8.424H150.873C150.873 9.0538 151.101 9.59333 151.554 10.0297L151.85 9.72231ZM151.3 8.424C151.3 7.89357 151.483 7.46731 151.848 7.12846L151.557 6.81554C151.101 7.23936 150.873 7.7811 150.873 8.424H151.3ZM151.848 7.12826C152.228 6.7741 152.716 6.59151 153.33 6.59151V6.16449C152.624 6.16449 152.027 6.3779 151.557 6.81573L151.848 7.12826ZM153.33 6.59151C153.928 6.59151 154.4 6.77319 154.766 7.12569L155.062 6.81831C154.607 6.3788 154.023 6.16449 153.33 6.16449V6.59151ZM154.772 7.13097C155.15 7.47058 155.339 7.89614 155.339 8.424H155.766C155.766 7.77853 155.529 7.23609 155.057 6.81303L154.772 7.13097ZM155.339 8.424C155.339 8.93566 155.151 9.36339 154.769 9.71973L155.06 10.0323C155.528 9.59661 155.766 9.05634 155.766 8.424H155.339ZM154.769 9.71954C154.404 10.0587 153.93 10.2345 153.33 10.2345V10.6615C154.021 10.6615 154.603 10.456 155.06 10.0325L154.769 9.71954ZM154.987 11.724V24H155.414V11.724H154.987ZM155.2 23.7865H151.438V24.2135H155.2V23.7865ZM151.652 24V11.724H151.225V24H151.652ZM151.438 11.9375H155.2V11.5105H151.438V11.9375ZM163.449 20.48L163.244 20.5421L163.449 21.214L163.653 20.5421L163.449 20.48ZM166.111 11.724V11.5105H165.952L165.906 11.6619L166.111 11.724ZM170.115 11.724L170.316 11.7954L170.417 11.5105H170.115V11.724ZM165.758 24V24.2135H165.909L165.96 24.0714L165.758 24ZM161.117 24L160.915 24.0714L160.966 24.2135H161.117V24ZM156.76 11.724V11.5105H156.458L156.559 11.7954L156.76 11.724ZM160.786 11.724L160.991 11.6619L160.945 11.5105H160.786V11.724ZM163.653 20.5421L166.315 11.7861L165.906 11.6619L163.244 20.4179L163.653 20.5421ZM166.111 11.9375H170.115V11.5105H166.111V11.9375ZM169.913 11.6526L165.557 23.9286L165.96 24.0714L170.316 11.7954L169.913 11.6526ZM165.758 23.7865H161.117V24.2135H165.758V23.7865ZM161.318 23.9286L156.962 11.6526L156.559 11.7954L160.915 24.0714L161.318 23.9286ZM156.76 11.9375H160.786V11.5105H156.76V11.9375ZM160.582 11.7861L163.244 20.5421L163.653 20.4179L160.991 11.6619L160.582 11.7861ZM183.204 18.764V18.9775H183.394L183.416 18.7885L183.204 18.764ZM174.69 18.764V18.5505H174.459L174.477 18.7804L174.69 18.764ZM175.416 20.524L175.268 20.6777L175.273 20.6827L175.416 20.524ZM178.98 19.93V19.7165H178.844L178.786 19.8403L178.98 19.93ZM182.984 19.93L183.191 19.9827L183.259 19.7165H182.984V19.93ZM181.862 22.108L181.699 21.9706L181.697 21.9728L181.862 22.108ZM179.86 23.626L179.948 23.8204L179.86 23.626ZM173.942 23.406L173.84 23.5933L173.942 23.406ZM171.742 21.206L171.929 21.1026L171.742 21.206ZM171.72 14.518L171.533 14.4145L171.532 14.4168L171.72 14.518ZM173.92 12.318L174.022 12.5053L173.92 12.318ZM180.322 12.296L180.221 12.4839L180.322 12.296ZM182.478 14.43L182.291 14.5337L182.293 14.5359L182.478 14.43ZM179.42 16.674V16.8875H179.633V16.674H179.42ZM178.76 15.134L178.9 14.9727L178.76 15.134ZM175.504 15.112L175.367 14.948L175.365 14.9503L175.504 15.112ZM174.712 16.674L174.501 16.6419L174.464 16.8875H174.712V16.674ZM183.056 17.664C183.056 18.0071 183.035 18.3656 182.992 18.7395L183.416 18.7885C183.461 18.3997 183.483 18.0249 183.483 17.664H183.056ZM183.204 18.5505H174.69V18.9775H183.204V18.5505ZM174.477 18.7804C174.539 19.5794 174.795 20.221 175.268 20.6776L175.564 20.3704C175.187 20.0057 174.959 19.4739 174.903 18.7476L174.477 18.7804ZM175.273 20.6827C175.755 21.1164 176.342 21.3315 177.022 21.3315V20.9045C176.44 20.9045 175.957 20.7236 175.559 20.3653L175.273 20.6827ZM177.022 21.3315C177.521 21.3315 177.96 21.226 178.326 21.0035C178.694 20.7805 178.975 20.4485 179.174 20.0197L178.786 19.8403C178.618 20.2035 178.39 20.4655 178.105 20.6385C177.819 20.812 177.461 20.9045 177.022 20.9045V21.3315ZM178.98 20.1435H182.984V19.7165H178.98V20.1435ZM182.777 19.8773C182.58 20.6524 182.221 21.3495 181.699 21.9706L182.025 22.2454C182.588 21.5758 182.978 20.8209 183.191 19.9827L182.777 19.8773ZM181.697 21.9728C181.191 22.5912 180.55 23.0777 179.772 23.4316L179.948 23.8204C180.783 23.441 181.477 22.9155 182.027 22.2432L181.697 21.9728ZM179.772 23.4316C178.996 23.7842 178.125 23.9625 177.154 23.9625V24.3895C178.178 24.3895 179.111 24.2011 179.948 23.8204L179.772 23.4316ZM177.154 23.9625C175.983 23.9625 174.948 23.7128 174.044 23.2187L173.84 23.5933C174.813 24.1259 175.92 24.3895 177.154 24.3895V23.9625ZM174.044 23.2187C173.142 22.7251 172.438 22.0212 171.929 21.1026L171.555 21.3094C172.102 22.2975 172.865 23.0602 173.84 23.5933L174.044 23.2187ZM171.929 21.1026C171.421 20.1859 171.163 19.108 171.163 17.862H170.736C170.736 19.168 171.007 20.3194 171.555 21.3094L171.929 21.1026ZM171.163 17.862C171.163 16.615 171.414 15.5363 171.908 14.6192L171.532 14.4168C170.999 15.4063 170.736 16.557 170.736 17.862H171.163ZM171.907 14.6214C172.416 13.7028 173.12 12.9989 174.022 12.5053L173.818 12.1307C172.843 12.6638 172.08 13.4265 171.533 14.4146L171.907 14.6214ZM174.022 12.5053C174.926 12.0114 175.967 11.7615 177.154 11.7615V11.3345C175.906 11.3345 174.792 11.5979 173.818 12.1307L174.022 12.5053ZM177.154 11.7615C178.311 11.7615 179.332 12.0041 180.221 12.4839L180.423 12.1081C179.464 11.5905 178.373 11.3345 177.154 11.3345V11.7615ZM180.221 12.4839C181.108 12.9631 181.798 13.6451 182.291 14.5337L182.665 14.3263C182.132 13.3669 181.384 12.6263 180.423 12.1081L180.221 12.4839ZM182.293 14.5359C182.799 15.4229 183.056 16.4632 183.056 17.664H183.483C183.483 16.4008 183.213 15.2851 182.663 14.3241L182.293 14.5359ZM179.633 16.674C179.633 15.9743 179.392 15.3992 178.9 14.9727L178.62 15.2953C179.008 15.6314 179.206 16.0831 179.206 16.674H179.633ZM178.9 14.9727C178.416 14.5532 177.814 14.3485 177.11 14.3485V14.7755C177.726 14.7755 178.224 14.9522 178.62 15.2953L178.9 14.9727ZM177.11 14.3485C176.435 14.3485 175.85 14.546 175.367 14.948L175.641 15.276C176.038 14.9446 176.524 14.7755 177.11 14.7755V14.3485ZM175.365 14.9503C174.893 15.357 174.61 15.9281 174.501 16.6419L174.923 16.7061C175.02 16.0705 175.264 15.6003 175.643 15.2737L175.365 14.9503ZM174.712 16.8875H179.42V16.4605H174.712V16.8875Z" fill="white"/>
<circle cx="16.5" cy="17.5" r="14.3649" stroke="white" stroke-width="4.27017"/>
<path d="M14.0734 14.512L20.8686 18.4956L14.0211 22.3887L14.0734 14.512Z" fill="white" stroke="white" stroke-width="4.27017"/>
</svg>
