<svg width="327" height="60" viewBox="0 0 327 60" fill="none" xmlns="http://www.w3.org/2000/svg">
<path d="M86.8003 37.5853H98.4805V43H79.2971V37.9721L90.8999 21.264H79.2971V15.8493H98.4805V20.8772L86.8003 37.5853ZM115.641 43.2707C113.089 43.2707 110.742 42.6777 108.602 41.4916C106.488 40.3056 104.799 38.6554 103.536 36.5411C102.298 34.401 101.679 32.0031 101.679 29.3473C101.679 26.6916 102.298 24.3065 103.536 22.1922C104.799 20.0779 106.488 18.4278 108.602 17.2417C110.742 16.0556 113.089 15.4626 115.641 15.4626C118.194 15.4626 120.527 16.0556 122.642 17.2417C124.782 18.4278 126.458 20.0779 127.669 22.1922C128.907 24.3065 129.526 26.6916 129.526 29.3473C129.526 32.0031 128.907 34.401 127.669 36.5411C126.432 38.6554 124.756 40.3056 122.642 41.4916C120.527 42.6777 118.194 43.2707 115.641 43.2707ZM115.641 37.2373C117.807 37.2373 119.535 36.5153 120.824 35.0714C122.139 33.6275 122.796 31.7195 122.796 29.3473C122.796 26.9494 122.139 25.0414 120.824 23.6232C119.535 22.1793 117.807 21.4574 115.641 21.4574C113.45 21.4574 111.696 22.1664 110.381 23.5846C109.092 25.0027 108.447 26.9236 108.447 29.3473C108.447 31.7452 109.092 33.6662 110.381 35.1101C111.696 36.5282 113.45 37.2373 115.641 37.2373ZM146.046 43.2707C143.493 43.2707 141.147 42.6777 139.007 41.4916C136.892 40.3056 135.204 38.6554 133.94 36.5411C132.703 34.401 132.084 32.0031 132.084 29.3473C132.084 26.6916 132.703 24.3065 133.94 22.1922C135.204 20.0779 136.892 18.4278 139.007 17.2417C141.147 16.0556 143.493 15.4626 146.046 15.4626C148.598 15.4626 150.932 16.0556 153.046 17.2417C155.186 18.4278 156.862 20.0779 158.074 22.1922C159.312 24.3065 159.931 26.6916 159.931 29.3473C159.931 32.0031 159.312 34.401 158.074 36.5411C156.836 38.6554 155.16 40.3056 153.046 41.4916C150.932 42.6777 148.598 43.2707 146.046 43.2707ZM146.046 37.2373C148.212 37.2373 149.939 36.5153 151.228 35.0714C152.543 33.6275 153.201 31.7195 153.201 29.3473C153.201 26.9494 152.543 25.0414 151.228 23.6232C149.939 22.1793 148.212 21.4574 146.046 21.4574C143.854 21.4574 142.101 22.1664 140.786 23.5846C139.497 25.0027 138.852 26.9236 138.852 29.3473C138.852 31.7452 139.497 33.6662 140.786 35.1101C142.101 36.5282 143.854 37.2373 146.046 37.2373ZM194.357 15.8493V43H187.744V26.7173L181.672 43H176.334L170.224 26.6787V43H163.61V15.8493H171.422L179.042 34.646L186.584 15.8493H194.357ZM202.44 19.1755C201.279 19.1755 200.325 18.8403 199.578 18.1699C198.856 17.4737 198.495 16.6229 198.495 15.6173C198.495 14.5859 198.856 13.735 199.578 13.0647C200.325 12.3685 201.279 12.0204 202.44 12.0204C203.574 12.0204 204.502 12.3685 205.224 13.0647C205.972 13.735 206.346 14.5859 206.346 15.6173C206.346 16.6229 205.972 17.4737 205.224 18.1699C204.502 18.8403 203.574 19.1755 202.44 19.1755ZM205.727 21.4187V43H199.113V21.4187H205.727ZM234.808 43H228.195L217.133 26.2532V43H210.52V15.8493H217.133L228.195 32.6735V15.8493H234.808V43ZM254.412 37.8947H263.076V43H247.799V15.8493H254.412V37.8947ZM269.556 19.1755C268.396 19.1755 267.442 18.8403 266.694 18.1699C265.972 17.4737 265.611 16.6229 265.611 15.6173C265.611 14.5859 265.972 13.735 266.694 13.0647C267.442 12.3685 268.396 12.0204 269.556 12.0204C270.691 12.0204 271.619 12.3685 272.341 13.0647C273.089 13.735 273.463 14.5859 273.463 15.6173C273.463 16.6229 273.089 17.4737 272.341 18.1699C271.619 18.8403 270.691 19.1755 269.556 19.1755ZM272.844 21.4187V43H266.23V21.4187H272.844ZM287.344 36.8118L292.024 21.4187H299.063L291.405 43H283.245L275.587 21.4187H282.664L287.344 36.8118ZM322.191 31.8613C322.191 32.4801 322.152 33.1247 322.075 33.7951H307.107C307.21 35.1358 307.635 36.1672 308.383 36.8892C309.157 37.5853 310.098 37.9334 311.207 37.9334C312.857 37.9334 314.004 37.2373 314.649 35.8449H321.688C321.327 37.263 320.669 38.5394 319.715 39.6739C318.787 40.8084 317.614 41.6979 316.196 42.3425C314.778 42.9871 313.192 43.3094 311.439 43.3094C309.324 43.3094 307.442 42.8582 305.792 41.9557C304.142 41.0533 302.852 39.7641 301.924 38.0881C300.996 36.4122 300.532 34.4526 300.532 32.2094C300.532 29.9661 300.983 28.0065 301.886 26.3306C302.814 24.6546 304.103 23.3654 305.753 22.463C307.403 21.5605 309.299 21.1093 311.439 21.1093C313.527 21.1093 315.384 21.5476 317.008 22.4243C318.632 23.3009 319.896 24.5515 320.798 26.1759C321.726 27.8003 322.191 29.6954 322.191 31.8613ZM315.422 30.1208C315.422 28.9863 315.035 28.0839 314.262 27.4135C313.488 26.7431 312.522 26.4079 311.361 26.4079C310.253 26.4079 309.311 26.7302 308.538 27.3748C307.79 28.0194 307.326 28.9348 307.146 30.1208H315.422Z" fill="#5A53DD"/>
<path d="M86.8003 37.5853L86.4926 37.3703L86.0799 37.9607H86.8003V37.5853ZM98.4805 37.5853H98.8558V37.21H98.4805V37.5853ZM98.4805 43V43.3754H98.8558V43H98.4805ZM79.2971 43H78.9217V43.3754H79.2971V43ZM79.2971 37.9721L78.9888 37.758L78.9217 37.8546V37.9721H79.2971ZM90.8999 21.264L91.2082 21.4781L91.6176 20.8887H90.8999V21.264ZM79.2971 21.264H78.9217V21.6394H79.2971V21.264ZM79.2971 15.8493V15.474H78.9217V15.8493H79.2971ZM98.4805 15.8493H98.8558V15.474H98.4805V15.8493ZM98.4805 20.8772L98.7881 21.0923L98.8558 20.9954V20.8772H98.4805ZM86.8003 37.9607H98.4805V37.21H86.8003V37.9607ZM98.1051 37.5853V43H98.8558V37.5853H98.1051ZM98.4805 42.6246H79.2971V43.3754H98.4805V42.6246ZM79.6724 43V37.9721H78.9217V43H79.6724ZM79.6054 38.1862L91.2082 21.4781L90.5916 21.0499L78.9888 37.758L79.6054 38.1862ZM90.8999 20.8887H79.2971V21.6394H90.8999V20.8887ZM79.6724 21.264V15.8493H78.9217V21.264H79.6724ZM79.2971 16.2247H98.4805V15.474H79.2971V16.2247ZM98.1051 15.8493V20.8772H98.8558V15.8493H98.1051ZM98.1728 20.6622L86.4926 37.3703L87.1079 37.8004L98.7881 21.0923L98.1728 20.6622ZM108.602 41.4916L108.418 41.819L108.42 41.8199L108.602 41.4916ZM103.536 36.5411L103.211 36.729L103.213 36.7336L103.536 36.5411ZM103.536 22.1922L103.213 21.9997L103.212 22.0026L103.536 22.1922ZM108.602 17.2417L108.42 16.9134L108.418 16.9143L108.602 17.2417ZM122.642 17.2417L122.458 17.569L122.46 17.57L122.642 17.2417ZM127.669 22.1922L127.344 22.3789L127.346 22.3818L127.669 22.1922ZM127.669 36.5411L127.993 36.7307L127.994 36.729L127.669 36.5411ZM122.642 41.4916L122.825 41.819L122.642 41.4916ZM120.824 35.0714L120.546 34.8186L120.544 34.8214L120.824 35.0714ZM120.824 23.6232L120.544 23.8733L120.549 23.8785L120.824 23.6232ZM110.381 23.5846L110.106 23.3293L110.103 23.3321L110.381 23.5846ZM110.381 35.1101L110.101 35.3601L110.106 35.3653L110.381 35.1101ZM115.641 42.8954C113.149 42.8954 110.866 42.3172 108.784 41.1633L108.42 41.8199C110.618 43.0382 113.028 43.6461 115.641 43.6461V42.8954ZM108.786 41.1643C106.73 40.0108 105.088 38.4075 103.858 36.3485L103.213 36.7336C104.51 38.9032 106.246 40.6003 108.418 41.819L108.786 41.1643ZM103.86 36.3532C102.658 34.2744 102.054 31.9422 102.054 29.3473H101.304C101.304 32.064 101.938 34.5276 103.211 36.729L103.86 36.3532ZM102.054 29.3473C102.054 26.7524 102.658 24.4338 103.859 22.3818L103.212 22.0026C101.938 24.1792 101.304 26.6307 101.304 29.3473H102.054ZM103.858 22.3848C105.088 20.3258 106.73 18.7225 108.786 17.569L108.418 16.9143C106.246 18.133 104.51 19.8301 103.213 21.9997L103.858 22.3848ZM108.784 17.57C110.866 16.4161 113.149 15.8379 115.641 15.8379V15.0872C113.028 15.0872 110.618 15.6951 108.42 16.9134L108.784 17.57ZM115.641 15.8379C118.133 15.8379 120.403 16.4161 122.458 17.569L122.825 16.9143C120.652 15.6951 118.255 15.0872 115.641 15.0872V15.8379ZM122.46 17.57C124.54 18.723 126.166 20.3243 127.344 22.3789L127.995 22.0056C126.749 19.8316 125.023 18.1325 122.824 16.9134L122.46 17.57ZM127.346 22.3818C128.547 24.4338 129.151 26.7524 129.151 29.3473H129.901C129.901 26.6307 129.268 24.1792 127.993 22.0026L127.346 22.3818ZM129.151 29.3473C129.151 31.9422 128.547 34.2744 127.345 36.3532L127.994 36.729C129.268 34.5276 129.901 32.064 129.901 29.3473H129.151ZM127.346 36.3515C126.141 38.4088 124.513 40.0112 122.458 41.1643L122.825 41.819C124.998 40.5999 126.722 38.9019 127.993 36.7307L127.346 36.3515ZM122.458 41.1643C120.403 42.3172 118.133 42.8954 115.641 42.8954V43.6461C118.255 43.6461 120.652 43.0382 122.825 41.819L122.458 41.1643ZM115.641 37.6126C117.9 37.6126 119.734 36.855 121.104 35.3214L120.544 34.8214C119.335 36.1756 117.714 36.8619 115.641 36.8619V37.6126ZM121.101 35.3241C122.492 33.7969 123.172 31.7918 123.172 29.3473H122.421C122.421 31.6471 121.785 33.458 120.546 34.8187L121.101 35.3241ZM123.172 29.3473C123.172 26.8785 122.493 24.8712 121.099 23.368L120.549 23.8785C121.785 25.2115 122.421 27.0203 122.421 29.3473H123.172ZM121.104 23.3733C119.734 21.8396 117.9 21.082 115.641 21.082V21.8327C117.714 21.8327 119.335 22.5191 120.544 23.8732L121.104 23.3733ZM115.641 21.082C113.36 21.082 111.502 21.8241 110.106 23.3294L110.656 23.8398C111.891 22.5088 113.539 21.8327 115.641 21.8327V21.082ZM110.103 23.3321C108.736 24.8362 108.072 26.8559 108.072 29.3473H108.823C108.823 26.9914 109.448 25.1692 110.659 23.8371L110.103 23.3321ZM108.072 29.3473C108.072 31.8145 108.737 33.832 110.101 35.3601L110.661 34.8601C109.447 33.5003 108.823 31.676 108.823 29.3473H108.072ZM110.106 35.3653C111.502 36.8706 113.36 37.6126 115.641 37.6126V36.8619C113.539 36.8619 111.891 36.1858 110.656 34.8549L110.106 35.3653ZM139.007 41.4916L138.823 41.819L138.825 41.8199L139.007 41.4916ZM133.94 36.5411L133.615 36.729L133.618 36.7336L133.94 36.5411ZM133.94 22.1922L133.618 21.9997L133.616 22.0026L133.94 22.1922ZM139.007 17.2417L138.825 16.9134L138.823 16.9143L139.007 17.2417ZM153.046 17.2417L152.863 17.569L152.864 17.57L153.046 17.2417ZM158.074 22.1922L157.748 22.3789L157.75 22.3818L158.074 22.1922ZM158.074 36.5411L158.398 36.7307L158.399 36.729L158.074 36.5411ZM153.046 41.4916L153.23 41.819L153.046 41.4916ZM151.228 35.0714L150.951 34.8186L150.948 34.8214L151.228 35.0714ZM151.228 23.6232L150.948 23.8733L150.953 23.8785L151.228 23.6232ZM140.786 23.5846L140.511 23.3293L140.508 23.3321L140.786 23.5846ZM140.786 35.1101L140.506 35.3601L140.511 35.3653L140.786 35.1101ZM146.046 42.8954C143.554 42.8954 141.271 42.3172 139.189 41.1633L138.825 41.8199C141.023 43.0382 143.432 43.6461 146.046 43.6461V42.8954ZM139.19 41.1643C137.134 40.0108 135.493 38.4075 134.262 36.3485L133.618 36.7336C134.914 38.9032 136.651 40.6003 138.823 41.819L139.19 41.1643ZM134.265 36.3532C133.063 34.2744 132.459 31.9422 132.459 29.3473H131.708C131.708 32.064 132.342 34.5276 133.615 36.729L134.265 36.3532ZM132.459 29.3473C132.459 26.7524 133.063 24.4338 134.264 22.3818L133.616 22.0026C132.342 24.1792 131.708 26.6307 131.708 29.3473H132.459ZM134.262 22.3848C135.493 20.3258 137.134 18.7225 139.19 17.569L138.823 16.9143C136.651 18.133 134.914 19.8301 133.618 21.9997L134.262 22.3848ZM139.189 17.57C141.271 16.4161 143.554 15.8379 146.046 15.8379V15.0872C143.432 15.0872 141.023 15.6951 138.825 16.9134L139.189 17.57ZM146.046 15.8379C148.538 15.8379 150.807 16.4161 152.863 17.569L153.23 16.9143C151.056 15.6951 148.659 15.0872 146.046 15.0872V15.8379ZM152.864 17.57C154.945 18.723 156.571 20.3243 157.748 22.3789L158.4 22.0056C157.154 19.8316 155.428 18.1325 153.228 16.9134L152.864 17.57ZM157.75 22.3818C158.951 24.4338 159.555 26.7524 159.555 29.3473H160.306C160.306 26.6307 159.672 24.1792 158.398 22.0026L157.75 22.3818ZM159.555 29.3473C159.555 31.9422 158.951 34.2744 157.749 36.3532L158.399 36.729C159.672 34.5276 160.306 32.064 160.306 29.3473H159.555ZM157.75 36.3515C156.546 38.4088 154.918 40.0112 152.863 41.1643L153.23 41.819C155.403 40.5999 157.127 38.9019 158.398 36.7307L157.75 36.3515ZM152.863 41.1643C150.807 42.3172 148.538 42.8954 146.046 42.8954V43.6461C148.659 43.6461 151.056 43.0382 153.23 41.819L152.863 41.1643ZM146.046 37.6126C148.304 37.6126 150.139 36.855 151.508 35.3214L150.948 34.8214C149.739 36.1756 148.119 36.8619 146.046 36.8619V37.6126ZM151.506 35.3241C152.897 33.7969 153.576 31.7918 153.576 29.3473H152.826C152.826 31.6471 152.19 33.458 150.951 34.8187L151.506 35.3241ZM153.576 29.3473C153.576 26.8785 152.897 24.8712 151.504 23.368L150.953 23.8785C152.189 25.2115 152.826 27.0203 152.826 29.3473H153.576ZM151.508 23.3733C150.139 21.8396 148.304 21.082 146.046 21.082V21.8327C148.119 21.8327 149.739 22.5191 150.948 23.8732L151.508 23.3733ZM146.046 21.082C143.765 21.082 141.906 21.8241 140.511 23.3294L141.061 23.8398C142.295 22.5088 143.943 21.8327 146.046 21.8327V21.082ZM140.508 23.3321C139.141 24.8362 138.477 26.8559 138.477 29.3473H139.227C139.227 26.9914 139.853 25.1692 141.064 23.8371L140.508 23.3321ZM138.477 29.3473C138.477 31.8145 139.141 33.832 140.506 35.3601L141.066 34.8601C139.852 33.5003 139.227 31.676 139.227 29.3473H138.477ZM140.511 35.3653C141.906 36.8706 143.765 37.6126 146.046 37.6126V36.8619C143.943 36.8619 142.295 36.1858 141.061 34.8549L140.511 35.3653ZM194.357 15.8493H194.733V15.474H194.357V15.8493ZM194.357 43V43.3754H194.733V43H194.357ZM187.744 43H187.368V43.3754H187.744V43ZM187.744 26.7173H188.119L187.392 26.5862L187.744 26.7173ZM181.672 43V43.3754H181.932L182.023 43.1312L181.672 43ZM176.334 43L175.983 43.1316L176.074 43.3754H176.334V43ZM170.224 26.6787L170.575 26.5471L169.848 26.6787H170.224ZM170.224 43V43.3754H170.599V43H170.224ZM163.61 43H163.235V43.3754H163.61V43ZM163.61 15.8493V15.474H163.235V15.8493H163.61ZM171.422 15.8493L171.77 15.7083L171.675 15.474H171.422V15.8493ZM179.042 34.646L178.694 34.787L179.043 35.6495L179.39 34.7857L179.042 34.646ZM186.584 15.8493V15.474H186.33L186.235 15.7096L186.584 15.8493ZM193.982 15.8493V43H194.733V15.8493H193.982ZM194.357 42.6246H187.744V43.3754H194.357V42.6246ZM188.119 43V26.7173H187.368V43H188.119ZM187.392 26.5862L181.32 42.8688L182.023 43.1312L188.096 26.8485L187.392 26.5862ZM181.672 42.6246H176.334V43.3754H181.672V42.6246ZM176.686 42.8684L170.575 26.5471L169.872 26.8103L175.983 43.1316L176.686 42.8684ZM169.848 26.6787V43H170.599V26.6787H169.848ZM170.224 42.6246H163.61V43.3754H170.224V42.6246ZM163.985 43V15.8493H163.235V43H163.985ZM163.61 16.2247H171.422V15.474H163.61V16.2247ZM171.075 15.9903L178.694 34.787L179.39 34.5049L171.77 15.7083L171.075 15.9903ZM179.39 34.7857L186.932 15.9891L186.235 15.7096L178.693 34.5062L179.39 34.7857ZM186.584 16.2247H194.357V15.474H186.584V16.2247ZM199.578 18.1699L199.317 18.4403L199.327 18.4494L199.578 18.1699ZM199.578 13.0647L199.833 13.3397L199.833 13.3394L199.578 13.0647ZM205.224 13.0647L204.964 13.335L204.974 13.3441L205.224 13.0647ZM205.224 18.1699L205.48 18.445L205.48 18.4446L205.224 18.1699ZM205.727 21.4187H206.102V21.0434H205.727V21.4187ZM205.727 43V43.3754H206.102V43H205.727ZM199.113 43H198.738V43.3754H199.113V43ZM199.113 21.4187V21.0434H198.738V21.4187H199.113ZM202.44 18.8001C201.356 18.8001 200.496 18.4896 199.828 17.8904L199.327 18.4494C200.154 19.191 201.202 19.5508 202.44 19.5508V18.8001ZM199.838 17.8997C199.19 17.2745 198.87 16.5213 198.87 15.6173H198.119C198.119 16.7245 198.521 17.673 199.317 18.4401L199.838 17.8997ZM198.87 15.6173C198.87 14.6848 199.191 13.9354 199.833 13.3397L199.322 12.7896C198.52 13.5347 198.119 14.4871 198.119 15.6173H198.87ZM199.833 13.3394C200.502 12.7167 201.36 12.3958 202.44 12.3958V11.6451C201.198 11.6451 200.148 12.0202 199.322 12.7899L199.833 13.3394ZM202.44 12.3958C203.491 12.3958 204.321 12.7152 204.964 13.3349L205.485 12.7945C204.684 12.0218 203.657 11.6451 202.44 11.6451V12.3958ZM204.974 13.3441C205.64 13.9412 205.97 14.6893 205.97 15.6173H206.721C206.721 14.4825 206.304 13.5289 205.475 12.7852L204.974 13.3441ZM205.97 15.6173C205.97 16.5168 205.641 17.2687 204.968 17.8952L205.48 18.4446C206.303 17.6787 206.721 16.7289 206.721 15.6173H205.97ZM204.969 17.8949C204.327 18.491 203.495 18.8001 202.44 18.8001V19.5508C203.653 19.5508 204.678 19.1896 205.48 18.445L204.969 17.8949ZM205.352 21.4187V43H206.102V21.4187H205.352ZM205.727 42.6246H199.113V43.3754H205.727V42.6246ZM199.489 43V21.4187H198.738V43H199.489ZM199.113 21.7941H205.727V21.0434H199.113V21.7941ZM234.808 43V43.3754H235.184V43H234.808ZM228.195 43L227.882 43.2069L227.993 43.3754H228.195V43ZM217.133 26.2532L217.447 26.0464L216.758 25.0039V26.2532H217.133ZM217.133 43V43.3754H217.509V43H217.133ZM210.52 43H210.144V43.3754H210.52V43ZM210.52 15.8493V15.474H210.144V15.8493H210.52ZM217.133 15.8493L217.447 15.6431L217.336 15.474H217.133V15.8493ZM228.195 32.6735L227.881 32.8797L228.57 33.9276V32.6735H228.195ZM228.195 15.8493V15.474H227.819V15.8493H228.195ZM234.808 15.8493H235.184V15.474H234.808V15.8493ZM234.808 42.6246H228.195V43.3754H234.808V42.6246ZM228.508 42.7931L217.447 26.0464L216.82 26.4601L227.882 43.2069L228.508 42.7931ZM216.758 26.2532V43H217.509V26.2532H216.758ZM217.133 42.6246H210.52V43.3754H217.133V42.6246ZM210.895 43V15.8493H210.144V43H210.895ZM210.52 16.2247H217.133V15.474H210.52V16.2247ZM216.82 16.0555L227.881 32.8797L228.508 32.4673L217.447 15.6431L216.82 16.0555ZM228.57 32.6735V15.8493H227.819V32.6735H228.57ZM228.195 16.2247H234.808V15.474H228.195V16.2247ZM234.433 15.8493V43H235.184V15.8493H234.433ZM254.412 37.8947H254.037V38.2701H254.412V37.8947ZM263.076 37.8947H263.451V37.5194H263.076V37.8947ZM263.076 43V43.3754H263.451V43H263.076ZM247.799 43H247.423V43.3754H247.799V43ZM247.799 15.8493V15.474H247.423V15.8493H247.799ZM254.412 15.8493H254.787V15.474H254.412V15.8493ZM254.412 38.2701H263.076V37.5194H254.412V38.2701ZM262.7 37.8947V43H263.451V37.8947H262.7ZM263.076 42.6246H247.799V43.3754H263.076V42.6246ZM248.174 43V15.8493H247.423V43H248.174ZM247.799 16.2247H254.412V15.474H247.799V16.2247ZM254.037 15.8493V37.8947H254.787V15.8493H254.037ZM266.694 18.1699L266.434 18.4403L266.444 18.4494L266.694 18.1699ZM266.694 13.0647L266.95 13.3397L266.95 13.3394L266.694 13.0647ZM272.341 13.0647L272.08 13.335L272.09 13.3441L272.341 13.0647ZM272.341 18.1699L272.596 18.445L272.597 18.4446L272.341 18.1699ZM272.844 21.4187H273.219V21.0434H272.844V21.4187ZM272.844 43V43.3754H273.219V43H272.844ZM266.23 43H265.855V43.3754H266.23V43ZM266.23 21.4187V21.0434H265.855V21.4187H266.23ZM269.556 18.8001C268.473 18.8001 267.613 18.4896 266.945 17.8904L266.444 18.4494C267.271 19.191 268.319 19.5508 269.556 19.5508V18.8001ZM266.955 17.8997C266.306 17.2745 265.987 16.5213 265.987 15.6173H265.236C265.236 16.7245 265.638 17.673 266.434 18.4401L266.955 17.8997ZM265.987 15.6173C265.987 14.6848 266.308 13.9354 266.95 13.3397L266.439 12.7896C265.636 13.5347 265.236 14.4871 265.236 15.6173H265.987ZM266.95 13.3394C267.619 12.7167 268.477 12.3958 269.556 12.3958V11.6451C268.315 11.6451 267.265 12.0202 266.438 12.7899L266.95 13.3394ZM269.556 12.3958C270.607 12.3958 271.438 12.7152 272.08 13.3349L272.601 12.7945C271.8 12.0218 270.774 11.6451 269.556 11.6451V12.3958ZM272.09 13.3441C272.756 13.9412 273.087 14.6893 273.087 15.6173H273.838C273.838 14.4825 273.421 13.5289 272.592 12.7852L272.09 13.3441ZM273.087 15.6173C273.087 16.5168 272.758 17.2687 272.085 17.8952L272.597 18.4446C273.419 17.6787 273.838 16.7289 273.838 15.6173H273.087ZM272.086 17.8949C271.444 18.491 270.611 18.8001 269.556 18.8001V19.5508C270.77 19.5508 271.794 19.1896 272.596 18.445L272.086 17.8949ZM272.468 21.4187V43H273.219V21.4187H272.468ZM272.844 42.6246H266.23V43.3754H272.844V42.6246ZM266.605 43V21.4187H265.855V43H266.605ZM266.23 21.7941H272.844V21.0434H266.23V21.7941ZM287.344 36.8118L286.985 36.921L287.344 38.1022L287.703 36.921L287.344 36.8118ZM292.024 21.4187V21.0434H291.746L291.665 21.3095L292.024 21.4187ZM299.063 21.4187L299.417 21.5442L299.595 21.0434H299.063V21.4187ZM291.405 43V43.3754H291.67L291.759 43.1255L291.405 43ZM283.245 43L282.891 43.1255L282.98 43.3754H283.245V43ZM275.587 21.4187V21.0434H275.055L275.233 21.5442L275.587 21.4187ZM282.664 21.4187L283.024 21.3095L282.943 21.0434H282.664V21.4187ZM287.703 36.921L292.383 21.5279L291.665 21.3095L286.985 36.7026L287.703 36.921ZM292.024 21.7941H299.063V21.0434H292.024V21.7941ZM298.709 21.2932L291.052 42.8745L291.759 43.1255L299.417 21.5442L298.709 21.2932ZM291.405 42.6246H283.245V43.3754H291.405V42.6246ZM283.598 42.8745L275.94 21.2932L275.233 21.5442L282.891 43.1255L283.598 42.8745ZM275.587 21.7941H282.664V21.0434H275.587V21.7941ZM282.305 21.5279L286.985 36.921L287.703 36.7026L283.024 21.3095L282.305 21.5279ZM322.075 33.7951V34.1704H322.409L322.447 33.8381L322.075 33.7951ZM307.107 33.7951V33.4197H306.702L306.733 33.8239L307.107 33.7951ZM308.383 36.8892L308.122 37.1594L308.132 37.1682L308.383 36.8892ZM314.649 35.8449V35.4696H314.409L314.308 35.6872L314.649 35.8449ZM321.688 35.8449L322.052 35.9375L322.171 35.4696H321.688V35.8449ZM319.715 39.6739L319.428 39.4323L319.425 39.4362L319.715 39.6739ZM316.196 42.3425L316.351 42.6842L316.196 42.3425ZM305.792 41.9557L305.612 42.2851L305.792 41.9557ZM301.924 38.0881L302.253 37.9063L301.924 38.0881ZM301.886 26.3306L301.557 26.1487L301.555 26.1526L301.886 26.3306ZM305.753 22.463L305.933 22.7923L305.753 22.463ZM317.008 22.4243L316.83 22.7546L317.008 22.4243ZM320.798 26.1759L320.47 26.3582L320.472 26.3621L320.798 26.1759ZM315.422 30.1208V30.4962H315.798V30.1208H315.422ZM314.262 27.4135L314.508 27.1299V27.1299L314.262 27.4135ZM308.538 27.3748L308.298 27.0864L308.293 27.0905L308.538 27.3748ZM307.146 30.1208L306.774 30.0644L306.709 30.4962H307.146V30.1208ZM321.815 31.8613C321.815 32.4645 321.778 33.0947 321.702 33.7521L322.447 33.8381C322.526 33.1547 322.566 32.4957 322.566 31.8613H321.815ZM322.075 33.4197H307.107V34.1704H322.075V33.4197ZM306.733 33.8239C306.841 35.2286 307.291 36.3565 308.122 37.1592L308.644 36.6191C307.98 35.9779 307.579 35.0431 307.481 33.7663L306.733 33.8239ZM308.132 37.1682C308.979 37.9307 310.012 38.3088 311.207 38.3088V37.5581C310.184 37.5581 309.334 37.24 308.634 36.6102L308.132 37.1682ZM311.207 38.3088C312.085 38.3088 312.855 38.1233 313.499 37.7322C314.146 37.3401 314.64 36.7565 314.989 36.0026L314.308 35.6872C314.013 36.3257 313.611 36.7864 313.11 37.0904C312.607 37.3955 311.979 37.5581 311.207 37.5581V38.3088ZM314.649 36.2203H321.688V35.4696H314.649V36.2203ZM321.324 35.7523C320.977 37.1149 320.346 38.3405 319.428 39.4323L320.003 39.9154C320.992 38.7382 321.676 37.4111 322.052 35.9375L321.324 35.7523ZM319.425 39.4362C318.535 40.5233 317.409 41.3785 316.04 42.0008L316.351 42.6842C317.818 42.0173 319.039 41.0934 320.006 39.9115L319.425 39.4362ZM316.04 42.0008C314.677 42.6206 313.145 42.9341 311.439 42.9341V43.6848C313.239 43.6848 314.878 43.3536 316.351 42.6842L316.04 42.0008ZM311.439 42.9341C309.379 42.9341 307.56 42.4951 305.972 41.6264L305.612 42.2851C307.324 43.2213 309.269 43.6848 311.439 43.6848V42.9341ZM305.972 41.6264C304.385 40.7588 303.147 39.5213 302.253 37.9063L301.596 38.27C302.558 40.0069 303.898 41.3478 305.612 42.2851L305.972 41.6264ZM302.253 37.9063C301.36 36.2948 300.907 34.3999 300.907 32.2094H300.157C300.157 34.5053 300.632 36.5295 301.596 38.27L302.253 37.9063ZM300.907 32.2094C300.907 30.0172 301.348 28.1208 302.216 26.5085L301.555 26.1526C300.618 27.8923 300.157 29.9151 300.157 32.2094H300.907ZM302.214 26.5124C303.108 24.8974 304.347 23.6599 305.933 22.7923L305.573 22.1336C303.859 23.0709 302.519 24.4118 301.557 26.1487L302.214 26.5124ZM305.933 22.7923C307.521 21.924 309.353 21.4846 311.439 21.4846V20.7339C309.244 20.7339 307.286 21.197 305.573 22.1336L305.933 22.7923ZM311.439 21.4846C313.473 21.4846 315.267 21.9112 316.83 22.7546L317.186 22.094C315.5 21.1841 313.581 20.7339 311.439 20.7339V21.4846ZM316.83 22.7546C318.391 23.597 319.602 24.7959 320.47 26.3582L321.126 25.9936C320.189 24.307 318.874 23.0049 317.186 22.094L316.83 22.7546ZM320.472 26.3621C321.363 27.9214 321.815 29.7503 321.815 31.8613H322.566C322.566 29.6405 322.09 27.6792 321.124 25.9896L320.472 26.3621ZM315.798 30.1208C315.798 28.8907 315.373 27.8798 314.508 27.1299L314.016 27.6972C314.698 28.288 315.047 29.082 315.047 30.1208H315.798ZM314.508 27.1299C313.657 26.3924 312.599 26.0326 311.361 26.0326V26.7833C312.444 26.7833 313.32 27.0938 314.016 27.6972L314.508 27.1299ZM311.361 26.0326C310.174 26.0326 309.146 26.3799 308.298 27.0865L308.778 27.6632C309.477 27.0806 310.331 26.7833 311.361 26.7833V26.0326ZM308.293 27.0905C307.463 27.8055 306.965 28.8096 306.774 30.0644L307.517 30.1773C307.687 29.0599 308.117 28.2334 308.783 27.6591L308.293 27.0905ZM307.146 30.4962H315.422V29.7455H307.146V30.4962Z" fill="#5A53DD"/>
<circle cx="29.0071" cy="30.7654" r="25.2536" stroke="#5A53DD" stroke-width="7.50698"/>
<path d="M24.741 25.5124L36.6871 32.5157L24.649 39.3597L24.741 25.5124Z" fill="#5A53DD" stroke="#5A53DD" stroke-width="7.50698"/>
</svg>
