<svg width="187" height="30" viewBox="0 0 187 30" fill="none" xmlns="http://www.w3.org/2000/svg">
<path fill-rule="evenodd" clip-rule="evenodd" d="M27.5529 14.5013C27.5529 21.7095 21.7095 27.5529 14.5013 27.5529C7.29305 27.5529 1.44964 21.7095 1.44964 14.5013C1.44964 7.29305 7.29305 1.44964 14.5013 1.44964C21.7095 1.44964 27.5529 7.29305 27.5529 14.5013ZM29.0025 14.5013C29.0025 22.5101 22.5101 29.0025 14.5013 29.0025C6.49244 29.0025 0 22.5101 0 14.5013C0 6.49244 6.49244 0 14.5013 0C22.5101 0 29.0025 6.49244 29.0025 14.5013ZM11.8592 8.22313L21.1208 13.6615C21.9496 14.145 21.9469 15.3367 21.1208 15.8201L11.8592 21.2559C11.0251 21.7472 9.95427 21.1566 9.95427 20.1766V9.30244C9.95427 8.21006 11.1067 7.78147 11.8592 8.22313Z" fill="#FBE6B7"/>
<path d="M38.0025 22.9014V18.8694L46.3065 9.31738V8.93338H38.2425V6.10138H49.6185V10.1334L41.3145 19.6854V20.0694H49.6665V22.9014H38.0025Z" fill="white"/>
<path d="M58.5574 23.2374C56.4454 23.2374 54.7654 22.6614 53.5174 21.5094C52.2694 20.3414 51.6454 18.6774 51.6454 16.5174V12.4854C51.6454 10.3254 52.2694 8.66938 53.5174 7.51738C54.7654 6.34938 56.4454 5.76538 58.5574 5.76538C60.6694 5.76538 62.3494 6.34938 63.5974 7.51738C64.8454 8.66938 65.4694 10.3254 65.4694 12.4854V16.5174C65.4694 18.6774 64.8454 20.3414 63.5974 21.5094C62.3494 22.6614 60.6694 23.2374 58.5574 23.2374ZM58.5574 20.4054C59.7414 20.4054 60.6614 20.0614 61.3174 19.3734C61.9734 18.6854 62.3014 17.7654 62.3014 16.6134V12.3894C62.3014 11.2374 61.9734 10.3174 61.3174 9.62938C60.6614 8.94138 59.7414 8.59738 58.5574 8.59738C57.3894 8.59738 56.4694 8.94138 55.7974 9.62938C55.1414 10.3174 54.8134 11.2374 54.8134 12.3894V16.6134C54.8134 17.7654 55.1414 18.6854 55.7974 19.3734C56.4694 20.0614 57.3894 20.4054 58.5574 20.4054Z" fill="white"/>
<path d="M74.7762 23.2374C72.6642 23.2374 70.9842 22.6614 69.7362 21.5094C68.4882 20.3414 67.8642 18.6774 67.8642 16.5174V12.4854C67.8642 10.3254 68.4882 8.66938 69.7362 7.51738C70.9842 6.34938 72.6642 5.76538 74.7762 5.76538C76.8882 5.76538 78.5682 6.34938 79.8162 7.51738C81.0642 8.66938 81.6882 10.3254 81.6882 12.4854V16.5174C81.6882 18.6774 81.0642 20.3414 79.8162 21.5094C78.5682 22.6614 76.8882 23.2374 74.7762 23.2374ZM74.7762 20.4054C75.9602 20.4054 76.8802 20.0614 77.5362 19.3734C78.1922 18.6854 78.5202 17.7654 78.5202 16.6134V12.3894C78.5202 11.2374 78.1922 10.3174 77.5362 9.62938C76.8802 8.94138 75.9602 8.59738 74.7762 8.59738C73.6082 8.59738 72.6882 8.94138 72.0162 9.62938C71.3602 10.3174 71.0322 11.2374 71.0322 12.3894V16.6134C71.0322 17.7654 71.3602 18.6854 72.0162 19.3734C72.6882 20.0614 73.6082 20.4054 74.7762 20.4054Z" fill="white"/>
<path d="M84.4669 22.9014V6.10138H90.3469L93.2509 20.7414H93.6829L96.5869 6.10138H102.467V22.9014H99.3949V8.42938H98.9629L96.0829 22.9014H90.8509L87.9709 8.42938H87.5389V22.9014H84.4669Z" fill="white"/>
<path d="M105.727 22.9014V10.9974H108.751V22.9014H105.727ZM107.239 9.60538C106.695 9.60538 106.231 9.42938 105.847 9.07738C105.479 8.72538 105.295 8.26138 105.295 7.68538C105.295 7.10938 105.479 6.64538 105.847 6.29338C106.231 5.94138 106.695 5.76538 107.239 5.76538C107.799 5.76538 108.263 5.94138 108.631 6.29338C108.999 6.64538 109.183 7.10938 109.183 7.68538C109.183 8.26138 108.999 8.72538 108.631 9.07738C108.263 9.42938 107.799 9.60538 107.239 9.60538Z" fill="white"/>
<path d="M112.006 22.9014V6.10138H118.03L121.366 20.7414H121.798V6.10138H124.918V22.9014H118.894L115.558 8.26138H115.126V22.9014H112.006Z" fill="white"/>
<path d="M134.178 22.9014V6.10138H137.346V20.0214H145.026V22.9014H134.178Z" fill="white"/>
<path d="M147.186 22.9014V6.10138H150.354V22.9014H147.186Z" fill="white"/>
<path d="M156.634 22.9014L152.362 6.10138H155.626L159.178 20.8614H159.514L163.066 6.10138H166.33L162.058 22.9014H156.634Z" fill="white"/>
<path d="M168.35 22.9014V6.10138H179.15V8.98138H171.518V12.9894H178.478V15.8694H171.518V20.0214H179.294V22.9014H168.35Z" fill="white"/>
</svg>
