<svg width="342" height="342" viewBox="0 0 342 342" fill="none" xmlns="http://www.w3.org/2000/svg">
<path d="M147.2 33.8674C125.733 38.0008 112 43.4674 93.8665 55.3341C65.5999 73.7341 44.2665 104.134 35.7332 138.134C31.4665 155.201 31.4665 186.134 35.7332 203.201C48.3999 253.867 87.4665 292.934 138.133 305.601C155.2 309.867 186.133 309.867 203.2 305.601C253.867 292.934 292.933 253.867 305.6 203.201C309.867 186.134 309.867 155.201 305.6 138.134C293.067 88.0008 254.933 49.4674 205.333 36.4008C189.6 32.2674 161.867 31.0674 147.2 33.8674ZM186.667 64.1341C223.2 70.0008 255.6 95.2008 269.733 128.667C296.667 192.667 257.2 264.667 188.667 276.667C174 279.201 167.333 279.201 152.667 276.667C107.6 268.801 73.1999 234.401 64.6665 188.667C51.3332 118.267 115.6 52.6674 186.667 64.1341Z" fill="#1B79CE"/>
<path d="M160.4 88.6667C158 89.7333 154.8 92.5333 153.334 94.9333C150.8 99.0667 150.667 101.6 150.667 139.067C150.667 182.933 151.2 186.133 158.534 189.867C164.4 192.933 224.8 192.933 230.667 190C237.867 186.267 240.667 176.933 236.667 169.333C233.2 162.8 230.534 162 205.334 161.333L182 160.667L181.334 127.867C180.667 92 180.534 91.8667 172.4 88.4C167.067 86.2667 165.867 86.2667 160.4 88.6667Z" fill="#1B79CE"/>
</svg>
