<svg width="261" height="180" viewBox="0 0 261 180" fill="none" xmlns="http://www.w3.org/2000/svg">
<path d="M260.306 156.552H0.693848V156.682H260.306V156.552Z" fill="#EBEBEB"/>
<path d="M234.293 164.906H217.096V165.036H234.293V164.906Z" fill="#EBEBEB"/>
<path d="M142.557 163.281H135.864V163.411H142.557V163.281Z" fill="#EBEBEB"/>
<path d="M182.251 163.831H168.159V163.961H182.251V163.831Z" fill="#EBEBEB"/>
<path d="M216.577 160.088H187.443V160.217H216.577V160.088Z" fill="#EBEBEB"/>
<path d="M41.7071 166.095H27.9321V166.225H41.7071V166.095Z" fill="#EBEBEB"/>
<path d="M58.2708 166.095H46.3286V166.225H58.2708V166.095Z" fill="#EBEBEB"/>
<path d="M100.286 163.219H68.7124V163.348H100.286V163.219Z" fill="#EBEBEB"/>
<path d="M39.4644 88.4763L116.507 88.4763L116.507 7.17623L39.4644 7.17623L39.4644 88.4763Z" fill="#E6E6E6"/>
<path d="M36.1886 88.4763L114.976 88.4763L114.976 7.17623L36.1886 7.17623L36.1886 88.4763Z" fill="#F0F0F0"/>
<path d="M39.4644 91.5137L116.507 91.5137V88.4762L39.4644 88.4762V91.5137Z" fill="#E6E6E6"/>
<path d="M30.7467 91.5137L109.534 91.5137V88.4762L30.7467 88.4762V91.5137Z" fill="#F0F0F0"/>
<path d="M110.401 83.8968V11.7506L40.7678 11.7506V83.8968H110.401Z" fill="#FAFAFA"/>
<path d="M86.6875 83.8968L75.6384 11.7506H62.959L74.0081 83.8968H86.6875Z" fill="white"/>
<path d="M71.2826 83.8968L60.2335 11.7506H55.2905L66.3396 83.8968H71.2826Z" fill="white"/>
<path d="M41.3545 83.8968L41.3545 11.7506H40.773L40.773 83.8968H41.3545Z" fill="#E6E6E6"/>
<path d="M111.912 44.9393H39.2568V50.7079H111.912V44.9393Z" fill="#F0F0F0"/>
<path d="M142.561 156.552H151.419V49.3424H142.561V156.552Z" fill="#E6E6E6"/>
<path d="M144.888 156.552H142.557V152.201H147.328L144.888 156.552Z" fill="#F0F0F0"/>
<path d="M126.98 155.03H200.709V49.3424L126.98 49.3424L126.98 155.03Z" fill="#F0F0F0"/>
<path d="M213.955 156.552H216.286V152.201H211.514L213.955 156.552Z" fill="#F0F0F0"/>
<path d="M165.33 54.8514H191.95C193.072 54.8514 194.147 53.1795 194.915 50.2355H162.36C163.134 53.1795 164.208 54.8514 165.33 54.8514Z" fill="#F0F0F0"/>
<path d="M165.33 90.4026H191.95C193.072 90.4026 194.147 88.7359 194.915 85.7867H162.36C163.134 88.7567 164.208 90.4026 165.33 90.4026Z" fill="#F0F0F0"/>
<path d="M165.33 125.995H191.95C193.072 125.995 194.147 124.329 194.915 121.379H162.36C163.134 124.329 164.208 125.995 165.33 125.995Z" fill="#F0F0F0"/>
<path d="M149.54 34.6121C149.54 34.6121 149.831 49.4619 161.082 49.4619C172.334 49.4619 172.625 34.6121 172.625 34.6121H149.54Z" fill="#E6E6E6"/>
<path d="M163.922 38.3401C163.922 38.3401 164.14 49.4619 172.567 49.4619C180.994 49.4619 181.213 38.3401 181.213 38.3401H163.922Z" fill="#F0F0F0"/>
<path d="M175.153 41.3099C175.153 41.3099 175.314 49.4618 181.488 49.4618C187.661 49.4618 187.822 41.3099 187.822 41.3099H175.153Z" fill="#EBEBEB"/>
<path d="M198.68 156.552H207.538V49.3423H198.68V156.552Z" fill="#E6E6E6"/>
<path d="M130.47 81.6952L197.221 81.6952C198.15 81.6952 198.903 80.942 198.903 80.0129V52.7536C198.903 51.8245 198.15 51.0714 197.221 51.0714L130.47 51.0714C129.541 51.0714 128.787 51.8245 128.787 52.7536V80.0129C128.787 80.942 129.541 81.6952 130.47 81.6952Z" fill="#E6E6E6"/>
<path d="M130.47 117.267L197.221 117.267C198.15 117.267 198.903 116.514 198.903 115.585V88.3257C198.903 87.3966 198.15 86.6434 197.221 86.6434H130.47C129.541 86.6434 128.787 87.3966 128.787 88.3257V115.585C128.787 116.514 129.541 117.267 130.47 117.267Z" fill="#E6E6E6"/>
<path d="M130.47 152.844H197.221C198.15 152.844 198.903 152.091 198.903 151.162V123.903C198.903 122.974 198.15 122.221 197.221 122.221H130.47C129.541 122.221 128.787 122.974 128.787 123.903V151.162C128.787 152.091 129.541 152.844 130.47 152.844Z" fill="#E6E6E6"/>
<path d="M182.672 34.5028C182.672 34.5028 182.791 49.4616 187.303 49.4616C191.815 49.4616 191.94 34.5028 191.94 34.5028H182.672Z" fill="#E6E6E6"/>
<path d="M190.211 36.6991C190.154 36.7001 190.097 36.6877 190.045 36.6628C189.526 36.4083 185.242 34.1445 185.533 31.9326C185.682 31.1589 186.001 30.428 186.468 29.7934C187.07 28.8433 187.506 28.1631 186.753 27.135C185.601 25.5773 186.857 24.2845 187.968 23.1526C188.498 22.6669 188.959 22.1114 189.339 21.5014C189.796 20.6499 189.427 20.0009 188.919 19.1026C188.36 18.2663 188.032 17.2973 187.968 16.2936C187.949 15.1718 188.223 14.0645 188.764 13.0816C189.305 12.0988 190.094 11.2746 191.053 10.6912C191.094 10.664 191.141 10.6457 191.19 10.6374C191.239 10.6291 191.29 10.631 191.338 10.643C191.387 10.6549 191.432 10.6767 191.471 10.707C191.511 10.7372 191.544 10.7753 191.568 10.8188C191.593 10.8624 191.608 10.9104 191.613 10.96C191.617 11.0096 191.612 11.0596 191.597 11.1071C191.582 11.1545 191.557 11.1983 191.524 11.2357C191.491 11.2731 191.451 11.3034 191.406 11.3246C190.56 11.8424 189.865 12.5726 189.389 13.4426C188.914 14.3126 188.675 15.292 188.695 16.2832C188.758 17.1641 189.052 18.0128 189.547 18.7443C190.066 19.6738 190.622 20.6395 189.973 21.8597C189.562 22.5313 189.061 23.1428 188.482 23.677C187.283 24.9023 186.587 25.7019 187.335 26.7248C188.373 28.1475 187.688 29.2379 187.08 30.1932C186.672 30.7406 186.39 31.372 186.255 32.0417C186.063 33.4903 189.163 35.4114 190.372 36.0293C190.444 36.0667 190.501 36.1268 190.534 36.2002C190.568 36.2735 190.576 36.3559 190.558 36.4344C190.539 36.5129 190.495 36.5831 190.432 36.6338C190.37 36.6845 190.292 36.713 190.211 36.7147V36.6991Z" fill="#E6E6E6"/>
<path d="M192.87 1.44373C192.87 1.44373 187.08 7.67442 191.001 11.579C198.098 11.579 192.87 1.44373 192.87 1.44373Z" fill="#F0F0F0"/>
<path d="M184.64 3.23511C184.64 3.23511 185.159 11.714 190.694 11.5738C195.591 6.43353 184.64 3.23511 184.64 3.23511Z" fill="#F0F0F0"/>
<path d="M195.403 17.0048C195.403 17.0048 189.416 16.6206 189.032 20.5199C192.225 24.3985 195.403 17.0048 195.403 17.0048Z" fill="#F0F0F0"/>
<path d="M184.194 11.3506C184.194 11.3506 184.9 17.3061 188.805 16.9842C192.045 13.1575 184.194 11.3506 184.194 11.3506Z" fill="#F0F0F0"/>
<path d="M183.867 22.088C183.867 22.088 187.418 23.6457 186.494 25.9822C183.529 27.2751 183.867 22.088 183.867 22.088Z" fill="#F0F0F0"/>
<path d="M189.734 26.1901C189.734 26.1901 189.069 29.0873 187.164 28.7239C185.767 26.6626 189.734 26.1901 189.734 26.1901Z" fill="#F0F0F0"/>
<path d="M191.971 23.2928C191.971 23.2928 188.975 25.7487 187.298 23.8535C187.511 20.624 191.971 23.2928 191.971 23.2928Z" fill="#F0F0F0"/>
<path d="M74.9743 108.285H38.1821V156.552H74.9743V108.285Z" fill="#F5F5F5"/>
<path d="M42.3306 152.112V112.724H41.6919V152.112H42.3306Z" fill="#E6E6E6"/>
<path d="M70.8882 112.724H41.687V113.534H70.8882V112.724Z" fill="#E6E6E6"/>
<path d="M112.41 108.285H75.6182V156.552H112.41V108.285Z" fill="#F5F5F5"/>
<path d="M112.41 156.552H116.076V108.285H112.41V156.552Z" fill="#E0E0E0"/>
<path d="M79.7612 152.112V112.724H79.1226V152.112H79.7612Z" fill="#E6E6E6"/>
<path d="M75.6128 156.546V108.928H74.9741V156.546H75.6128Z" fill="#E6E6E6"/>
<path d="M108.319 112.724H79.1177V113.534H108.319V112.724Z" fill="#E6E6E6"/>
<path d="M73.0739 113.129C73.2561 113.129 73.431 113.201 73.5603 113.329C73.6897 113.458 73.7631 113.632 73.7644 113.814V125.03C73.7617 125.211 73.6877 125.384 73.5585 125.511C73.4293 125.639 73.2552 125.71 73.0739 125.71C72.8916 125.71 72.7167 125.638 72.5874 125.509C72.458 125.381 72.3847 125.207 72.3833 125.024V113.809C72.386 113.628 72.46 113.455 72.5892 113.328C72.7184 113.2 72.8925 113.129 73.0739 113.129Z" fill="#E0E0E0"/>
<path d="M77.5394 113.129C77.7216 113.129 77.8965 113.201 78.0259 113.329C78.1552 113.458 78.2286 113.632 78.23 113.814V125.03C78.2272 125.211 78.1533 125.384 78.0241 125.511C77.8948 125.639 77.7207 125.71 77.5394 125.71C77.3576 125.71 77.1833 125.638 77.0547 125.509C76.9262 125.381 76.854 125.206 76.854 125.024V113.809C76.8554 113.628 76.9282 113.455 77.0566 113.328C77.185 113.201 77.3585 113.129 77.5394 113.129Z" fill="#E0E0E0"/>
<path d="M117.26 106.644H37.0396V108.934H117.26V106.644Z" fill="#EBEBEB"/>
<path d="M117.259 106.644H110.857V108.934H117.259V106.644Z" fill="#E0E0E0"/>
<path d="M130.5 180C186.1 180 231.172 177.368 231.172 174.122C231.172 170.876 186.1 168.245 130.5 168.245C74.9002 168.245 29.8276 170.876 29.8276 174.122C29.8276 177.368 74.9002 180 130.5 180Z" fill="#F5F5F5"/>
<path d="M180.397 12.3691L180.218 12.8568L190.445 16.5951L190.623 16.1074L180.397 12.3691Z" fill="#5A53DD"/>
<path d="M174.539 10.2258L174.361 10.7135L177.623 11.9061L177.802 11.4184L174.539 10.2258Z" fill="#5A53DD"/>
<path d="M142.219 0.34862L196.244 20.0791C197.715 20.6208 198.912 21.7229 199.573 23.1444C200.233 24.566 200.304 26.1913 199.77 27.665L158.408 140.856C157.867 142.327 156.765 143.524 155.343 144.184C153.921 144.845 152.296 144.916 150.822 144.381L96.8232 124.651C95.353 124.108 94.1572 123.006 93.4967 121.585C92.8362 120.163 92.7646 118.539 93.2976 117.065L134.654 3.87415C135.196 2.40807 136.294 1.21519 137.711 0.554975C139.128 -0.105244 140.748 -0.179407 142.219 0.34862Z" fill="#5A53DD"/>
<path d="M156.311 139.999L197.626 26.9744C197.807 26.4791 197.889 25.9529 197.867 25.4258C197.845 24.8988 197.719 24.3813 197.496 23.9029C197.274 23.4245 196.96 22.9947 196.571 22.6379C196.183 22.2811 195.728 22.0045 195.232 21.8237L140.48 1.81284C139.984 1.63159 139.458 1.54988 138.93 1.57237C138.403 1.59487 137.885 1.72114 137.407 1.94396C136.928 2.16677 136.499 2.48176 136.142 2.87088C135.786 3.26 135.509 3.71562 135.329 4.21166L94.0196 117.231C93.8375 117.726 93.755 118.253 93.7769 118.78C93.7987 119.307 93.9244 119.825 94.1468 120.304C94.3692 120.782 94.6839 121.212 95.0728 121.569C95.4617 121.925 95.9173 122.202 96.4133 122.382L151.16 142.398C151.656 142.579 152.182 142.661 152.71 142.638C153.237 142.616 153.755 142.49 154.233 142.267C154.712 142.044 155.141 141.729 155.498 141.34C155.854 140.951 156.131 140.495 156.311 139.999Z" fill="white"/>
<path d="M173.97 13.2565C173.211 14.2733 172.144 15.0187 170.929 15.3825C169.713 15.7463 168.413 15.709 167.22 15.2763L166.129 14.8765C164.936 14.4395 163.915 13.6289 163.219 12.5652C162.523 11.5016 162.189 10.2417 162.266 8.9729L173.97 13.2565Z" fill="#5A53DD"/>
<path opacity="0.1" d="M154.722 139.443C154.968 139.532 155.239 139.521 155.476 139.411C155.713 139.301 155.898 139.102 155.989 138.857L196.566 27.8362C196.655 27.5903 196.643 27.3193 196.533 27.082C196.424 26.8448 196.224 26.6605 195.979 26.5693C195.733 26.4803 195.462 26.4921 195.225 26.602C194.988 26.7118 194.804 26.911 194.712 27.156L154.135 138.171C154.044 138.418 154.055 138.69 154.165 138.929C154.275 139.167 154.475 139.352 154.722 139.443Z" fill="#263238"/>
<path opacity="0.1" d="M95.5929 117.828C95.8388 117.917 96.1099 117.905 96.3471 117.796C96.5844 117.686 96.7687 117.487 96.8598 117.241L137.437 6.22103C137.526 5.97588 137.514 5.70554 137.404 5.46912C137.294 5.23269 137.095 5.0494 136.85 4.95932C136.605 4.87035 136.334 4.88208 136.096 4.99197C135.859 5.10185 135.675 5.30098 135.584 5.54604L95.0062 116.567C94.9174 116.812 94.9293 117.082 95.0393 117.318C95.1492 117.555 95.3483 117.738 95.5929 117.828Z" fill="#263238"/>
<g opacity="0.9">
<path d="M156.118 133.4L159.057 24.1343C159.089 22.8478 158.61 21.6012 157.724 20.6678C156.838 19.7343 155.619 19.1902 154.332 19.1549L102.566 17.7634C101.279 17.7285 100.031 18.2061 99.0962 19.0912C98.1614 19.9762 97.6165 21.1963 97.5812 22.4831L94.6735 131.749C94.64 133.036 95.1188 134.284 96.0047 135.218C96.8906 136.153 98.1112 136.698 99.3985 136.733L151.16 138.125C152.443 138.151 153.684 137.669 154.613 136.784C155.542 135.899 156.083 134.682 156.118 133.4Z" fill="#5A53DD"/>
<path opacity="0.1" d="M156.118 133.4L159.057 24.1343C159.089 22.8478 158.61 21.6012 157.724 20.6678C156.838 19.7343 155.619 19.1902 154.332 19.1549L102.566 17.7634C101.279 17.7285 100.031 18.2061 99.0962 19.0912C98.1614 19.9762 97.6165 21.1963 97.5812 22.4831L94.6735 131.749C94.64 133.036 95.1188 134.284 96.0047 135.218C96.8906 136.153 98.1112 136.698 99.3985 136.733L151.16 138.125C152.443 138.151 153.684 137.669 154.613 136.784C155.542 135.899 156.083 134.682 156.118 133.4Z" fill="black"/>
<path opacity="0.2" d="M154.334 107.681L154.935 85.3472C155.004 82.7501 152.956 80.5882 150.359 80.5184L103.235 79.2515C100.638 79.1816 98.4762 81.2304 98.4064 83.8275L97.8059 106.162C97.7361 108.759 99.7849 110.921 102.382 110.991L149.505 112.257C152.102 112.327 154.264 110.278 154.334 107.681Z" fill="#263238"/>
<path d="M137.666 125.513C137.634 126.718 137.961 127.905 138.604 128.924C139.248 129.943 140.179 130.748 141.281 131.238C142.382 131.727 143.604 131.879 144.792 131.673C145.98 131.468 147.08 130.915 147.953 130.084C148.826 129.253 149.433 128.182 149.697 127.006C149.961 125.83 149.87 124.602 149.435 123.477C149.001 122.353 148.243 121.383 147.257 120.69C146.271 119.996 145.101 119.611 143.896 119.583C142.284 119.544 140.722 120.147 139.554 121.259C138.386 122.37 137.706 123.9 137.666 125.513Z" fill="white"/>
<path d="M111.593 129.125C114.035 126.811 114.139 122.956 111.825 120.515C109.511 118.073 105.656 117.969 103.215 120.283C100.773 122.597 100.67 126.452 102.983 128.893C105.297 131.335 109.152 131.438 111.593 129.125Z" fill="white"/>
<path d="M119.493 125.025C119.461 126.229 119.788 127.417 120.432 128.436C121.075 129.455 122.007 130.26 123.108 130.75C124.209 131.239 125.431 131.391 126.619 131.185C127.807 130.98 128.907 130.427 129.78 129.596C130.653 128.765 131.26 127.694 131.524 126.518C131.788 125.341 131.697 124.114 131.263 122.989C130.828 121.865 130.07 120.895 129.084 120.201C128.098 119.508 126.928 119.123 125.723 119.095C124.111 119.056 122.549 119.659 121.381 120.77C120.213 121.882 119.534 123.412 119.493 125.025Z" fill="white"/>
<path d="M156.248 36.5334C156.291 34.9753 155.714 33.4637 154.643 32.3313C153.572 31.1989 152.095 30.5383 150.537 30.4948L105.764 29.2902C104.206 29.2483 102.695 29.8262 101.563 30.897C100.431 31.9678 99.7701 33.444 99.7253 35.0017C99.6834 36.5594 100.261 38.0702 101.332 39.2023C102.403 40.3344 103.879 40.9954 105.437 41.0402L150.23 42.2552C151.786 42.2915 153.293 41.7097 154.421 40.6373C155.549 39.5649 156.206 38.0892 156.248 36.5334Z" fill="white"/>
<path d="M155.823 52.3488C155.865 50.7911 155.287 49.2803 154.216 48.1482C153.145 47.0161 151.669 46.3551 150.111 46.3102L105.344 45.1056C103.786 45.0637 102.275 45.6416 101.143 46.7124C100.011 47.7832 99.3502 49.2594 99.3054 50.8171C99.2634 52.3749 99.8413 53.8856 100.912 55.0177C101.983 56.1498 103.459 56.8109 105.017 56.8557L149.784 58.0551C151.341 58.097 152.851 57.5199 153.983 56.4502C155.115 55.3805 155.777 53.9056 155.823 52.3488Z" fill="white"/>
<path d="M155.422 68.1644C155.466 66.6062 154.888 65.0947 153.817 63.9623C152.746 62.8298 151.269 62.1692 149.711 62.1258L104.944 60.9212C103.386 60.8807 101.876 61.459 100.744 62.5295C99.6126 63.6 98.9511 65.0754 98.905 66.6326C98.8631 68.1904 99.4409 69.7011 100.512 70.8332C101.583 71.9654 103.059 72.6264 104.616 72.6712L149.384 73.8706C150.941 73.9126 152.451 73.3354 153.583 72.2657C154.715 71.196 155.376 69.7211 155.422 68.1644Z" fill="white"/>
</g>
<path d="M59.7247 42.7067L59.112 43.4025L58.463 44.1554L57.1857 45.713C56.3549 46.7515 55.5345 47.7899 54.7817 48.8803C53.2721 50.9228 51.9988 53.1297 50.9861 55.4589C50.7682 55.994 50.5776 56.5399 50.415 57.0944C50.2713 57.585 50.1706 58.087 50.1138 58.595C49.9969 59.8033 49.9882 61.0197 50.0879 62.2296C50.3234 64.9123 50.717 67.5788 51.2665 70.2152L47.8968 71.5808C47.1378 70.2875 46.4699 68.9429 45.8977 67.5568C45.3111 66.1484 44.8269 64.6994 44.4491 63.2213C44.0306 61.6438 43.7937 60.0237 43.743 58.3925C43.7124 57.4792 43.7803 56.5653 43.9455 55.6666C44.1037 54.8354 44.3083 54.0138 44.5581 53.2054C45.5563 50.2187 46.9536 47.3806 48.7119 44.7681C49.5583 43.496 50.4409 42.2654 51.3859 41.0919C51.8532 40.5 52.3361 39.9202 52.8346 39.3525C53.0838 39.067 53.3538 38.7814 53.5926 38.501C53.8315 38.2206 54.1119 37.9818 54.4234 37.6339L59.7247 42.7067Z" fill="#263238"/>
<path d="M51.8481 70.2724L53.25 71.5445L48.3225 74.1406C48.0958 73.7259 47.9214 73.2846 47.8033 72.8269C47.7243 72.4981 47.7117 72.1569 47.7661 71.8231C47.8205 71.4894 47.9409 71.1698 48.1202 70.8831C48.2996 70.5965 48.5343 70.3484 48.8106 70.1535C49.087 69.9586 49.3994 69.8207 49.7296 69.7479C50.099 69.6603 50.4839 69.6622 50.8524 69.7534C51.2209 69.8446 51.5622 70.0226 51.8481 70.2724Z" fill="#FFB573"/>
<path d="M55.1397 74.7377L50.9755 76.6899L48.3223 74.1302L53.2497 71.5444L55.1397 74.7377Z" fill="#FFB573"/>
<path d="M73.1255 23.6876C73.1255 24.0355 73.2709 24.3211 73.4941 24.3211C73.7174 24.3211 73.9199 24.0511 73.9407 23.7084C73.9614 23.3657 73.8005 23.075 73.572 23.075C73.3436 23.075 73.1463 23.3449 73.1255 23.6876Z" fill="#263238"/>
<path d="M73.2401 24.3158C73.584 25.3771 74.077 26.384 74.7043 27.3065C74.4633 27.4709 74.1892 27.5808 73.9014 27.6283C73.6135 27.6758 73.3187 27.6599 73.0376 27.5817L73.2401 24.3158Z" fill="#FF5652"/>
<path d="M71.9889 21.7457C72.0148 21.7509 72.0415 21.7508 72.0674 21.7454C72.0933 21.7401 72.1178 21.7296 72.1395 21.7146C72.3464 21.5619 72.5868 21.4611 72.8406 21.4204C73.0945 21.3798 73.3544 21.4005 73.5985 21.4809C73.6496 21.5001 73.7061 21.4989 73.7563 21.4777C73.8066 21.4564 73.8467 21.4167 73.8685 21.3667C73.8798 21.3429 73.8862 21.3171 73.8873 21.2907C73.8884 21.2644 73.8842 21.2382 73.8751 21.2135C73.8659 21.1888 73.8518 21.1662 73.8337 21.1471C73.8157 21.1279 73.794 21.1125 73.7699 21.1019C73.462 21.0017 73.1351 20.9749 72.815 21.0236C72.495 21.0723 72.1908 21.1951 71.9266 21.3823C71.9037 21.3961 71.8836 21.4144 71.8678 21.436C71.8519 21.4577 71.8405 21.4823 71.8342 21.5083C71.828 21.5344 71.8269 21.5615 71.8312 21.588C71.8355 21.6145 71.845 21.6399 71.8591 21.6627C71.8741 21.6845 71.8933 21.7031 71.9156 21.7174C71.9379 21.7317 71.9628 21.7413 71.9889 21.7457Z" fill="#263238"/>
<path d="M63.1358 25.0065C63.5512 28.1945 63.6914 34.6277 61.3652 36.4294C61.3652 36.4294 62.1233 39.0255 67.9438 39.7576C74.3458 40.552 71.2097 36.985 71.2097 36.985C67.7673 35.7181 68.0217 33.1583 68.7901 30.8166L63.1358 25.0065Z" fill="#FFB573"/>
<path d="M47.6583 165.223H47.6998C47.7793 165.187 47.8463 165.128 47.8925 165.054C47.9387 164.981 47.962 164.895 47.9594 164.807C47.9661 164.74 47.9575 164.672 47.9341 164.608C47.9107 164.544 47.8732 164.486 47.8244 164.439C47.3831 163.992 45.9448 164.081 45.8877 164.086C45.8678 164.086 45.8484 164.092 45.8318 164.103C45.8153 164.114 45.8022 164.13 45.7943 164.148C45.7842 164.164 45.7788 164.183 45.7788 164.203C45.7788 164.222 45.7842 164.241 45.7943 164.257C46.1162 164.553 47.1287 165.368 47.6583 165.223ZM46.137 164.267C46.6198 164.267 47.4142 164.309 47.6946 164.574C47.7229 164.601 47.7445 164.634 47.758 164.671C47.7715 164.708 47.7765 164.748 47.7725 164.787C47.7725 164.979 47.6739 165.01 47.6479 165.02C47.3467 165.135 46.6146 164.688 46.137 164.267Z" fill="#5A53DD"/>
<path d="M46.6093 164.164C47.1285 164.029 47.6789 163.769 47.7983 163.478C47.8288 163.409 47.8335 163.331 47.8116 163.259C47.7897 163.187 47.7426 163.124 47.6789 163.084C47.6181 163.036 47.5479 163 47.4728 162.981C47.3977 162.961 47.3194 162.957 47.2428 162.969C46.6041 163.063 45.8408 164.07 45.8097 164.117C45.7994 164.132 45.7939 164.15 45.7939 164.169C45.7939 164.187 45.7994 164.205 45.8097 164.221C45.8179 164.236 45.8298 164.25 45.8442 164.26C45.8587 164.269 45.8754 164.276 45.8928 164.278C46.1357 164.272 46.3766 164.234 46.6093 164.164ZM47.1908 163.188H47.2635C47.3124 163.178 47.3627 163.179 47.4112 163.19C47.4596 163.202 47.5049 163.224 47.5439 163.255C47.6478 163.338 47.6218 163.395 47.6114 163.421C47.5024 163.691 46.656 164.018 46.1057 164.081C46.3865 163.696 46.7598 163.389 47.1908 163.188Z" fill="#5A53DD"/>
<path d="M73.7957 169.968C74.2453 170.028 74.7004 169.912 75.0678 169.647C75.1143 169.581 75.1393 169.503 75.1393 169.423C75.1393 169.343 75.1143 169.265 75.0678 169.2C75.0355 169.141 74.9909 169.09 74.9372 169.05C74.8835 169.009 74.8218 168.981 74.7563 168.966C74.0501 168.769 72.5184 169.621 72.4561 169.657C72.438 169.669 72.4232 169.685 72.4131 169.704C72.4031 169.723 72.3983 169.744 72.399 169.766C72.4018 169.786 72.4108 169.805 72.4247 169.82C72.4387 169.835 72.4569 169.845 72.4769 169.849C72.9123 169.927 73.3535 169.967 73.7957 169.968ZM74.5122 169.138C74.576 169.13 74.6406 169.13 74.7043 169.138C74.7452 169.146 74.7836 169.164 74.8168 169.189C74.85 169.214 74.8773 169.246 74.8965 169.283C74.964 169.408 74.938 169.47 74.8965 169.506C74.6836 169.782 73.5984 169.787 72.8196 169.678C73.3441 169.391 73.9187 169.208 74.5122 169.138Z" fill="#5A53DD"/>
<path d="M72.5079 169.844H72.5494C73.0686 169.616 74.1382 168.686 74.1071 168.203C74.1071 168.089 74.0188 167.949 73.7384 167.918C73.5323 167.899 73.3272 167.963 73.1673 168.094C72.6065 168.541 72.4456 169.693 72.4352 169.745C72.4343 169.762 72.4377 169.779 72.4449 169.795C72.4522 169.81 72.4631 169.823 72.4767 169.834C72.4863 169.839 72.4969 169.843 72.5079 169.844ZM73.6242 168.105H73.6865C73.8682 168.105 73.8734 168.198 73.8786 168.219C73.915 168.51 73.1881 169.257 72.6481 169.553C72.7166 169.061 72.9319 168.602 73.2659 168.234C73.3677 168.153 73.4941 168.109 73.6242 168.11V168.105Z" fill="#5A53DD"/>
<path d="M67.8037 169.745H72.0873L72.9129 159.828H68.6293L67.8037 169.745Z" fill="#FFB573"/>
<path d="M41.0688 164.018L45.1448 164.813L48.9039 155.114L44.828 154.319L41.0688 164.018Z" fill="#FFB573"/>
<path d="M45.8923 163.582L41.8631 161.111C41.7891 161.067 41.7026 161.05 41.6177 161.063C41.5328 161.075 41.4546 161.116 41.3958 161.178L38.5972 164.008C38.5293 164.074 38.4772 164.154 38.445 164.243C38.4128 164.332 38.4012 164.427 38.4112 164.521C38.4212 164.615 38.4525 164.706 38.5027 164.786C38.553 164.866 38.6208 164.934 38.7011 164.984C40.1237 165.82 40.861 166.157 42.6316 167.243C43.7219 167.912 45.965 169.709 47.5902 170.42C49.2153 171.132 50.1863 169.595 49.5996 169.153C46.9308 167.186 46.6867 165.519 46.3233 164.169C46.2592 163.926 46.1051 163.716 45.8923 163.582Z" fill="#263238"/>
<path d="M72.0772 169.252H67.4042C67.3184 169.252 67.2349 169.28 67.1672 169.333C67.0994 169.386 67.0513 169.459 67.0304 169.543L66.0283 173.354C66.002 173.444 65.9973 173.538 66.0147 173.63C66.0321 173.722 66.071 173.809 66.1282 173.883C66.1855 173.957 66.2594 174.016 66.344 174.056C66.4287 174.096 66.5215 174.115 66.615 174.112C68.3025 174.086 70.7688 173.987 72.8457 173.987C75.3224 173.987 75.7274 174.122 78.635 174.122C80.3952 174.122 80.9508 172.341 80.2239 172.18C76.9008 171.448 75.9039 171.37 73.0793 169.584C72.7827 169.383 72.4356 169.268 72.0772 169.252Z" fill="#263238"/>
<path d="M78.2455 51.274C78.1832 52.7278 78.0846 54.3322 77.9288 56.1028C77.5238 60.9056 76.7605 66.8923 75.4521 74.3327H52.5439C52.5439 71.0824 55.0155 56.1599 53.2345 40.8272C53.1283 39.7939 53.4289 38.7598 54.0726 37.9445C54.7163 37.1292 55.6524 36.5969 56.6822 36.4605C57.8452 36.31 59.1485 36.1801 60.4258 36.1178C63.67 35.9308 66.9222 35.9308 70.1664 36.1178C71.5964 36.2562 73.0178 36.4729 74.424 36.7669C75.231 36.9321 75.9716 37.3307 76.5541 37.9132C77.1365 38.4956 77.5351 39.2362 77.7003 40.0432C78.1105 42.1149 78.4792 45.5729 78.2455 51.274Z" fill="#263238"/>
<path opacity="0.3" d="M73.5984 74.4002C73.5814 74.3965 73.5664 74.3863 73.5567 74.3718C73.5471 74.3572 73.5434 74.3395 73.5465 74.3223C74.7459 67.4738 75.5818 61.3417 76.0232 56.0976C76.1686 54.4257 76.2724 52.8005 76.3347 51.2688C76.5787 45.3704 76.1582 41.9228 75.7636 40.0536C75.7621 40.0454 75.7623 40.037 75.7641 40.0288C75.7659 40.0207 75.7693 40.013 75.7742 40.0063C75.779 39.9995 75.7852 39.9937 75.7923 39.9894C75.7994 39.985 75.8073 39.9821 75.8155 39.9809C75.8237 39.9786 75.8323 39.9779 75.8407 39.9791C75.8491 39.9802 75.8572 39.983 75.8645 39.9874C75.8718 39.9918 75.8782 39.9976 75.8831 40.0045C75.8881 40.0114 75.8916 40.0193 75.8934 40.0276C76.4593 42.7016 76.6566 46.5958 76.4645 51.274C76.4022 52.8317 76.2984 54.4361 76.153 56.108C75.7116 61.3521 74.8757 67.4894 73.6711 74.3431C73.6705 74.3518 73.6681 74.3603 73.664 74.368C73.6599 74.3757 73.6543 74.3824 73.6474 74.3878C73.6406 74.3932 73.6327 74.3971 73.6242 74.3992C73.6158 74.4014 73.607 74.4017 73.5984 74.4002Z" fill="black"/>
<path opacity="0.2" d="M74.185 47.7847C74.1279 51.0194 75.7946 58.2834 77.3627 61.6012C77.6015 59.6126 77.7936 57.7849 77.9338 56.1026C78.0532 54.6644 78.1415 53.3404 78.2038 52.115L74.185 47.7847Z" fill="black"/>
<path d="M92.8459 55.6978L96.6726 53.4236L97.3683 58.6574C97.3683 58.6574 94.336 59.5037 92.6382 58.4808L92.8459 55.6978Z" fill="#FFB573"/>
<path d="M101.704 53.7974L100.442 57.9772L97.3686 58.6574L96.6729 53.4236L101.704 53.7974Z" fill="#FFB573"/>
<path d="M77.0824 38.9994C77.2797 39.4564 77.4096 39.7887 77.5394 40.1313C77.6692 40.474 77.7886 40.796 77.9028 41.1127L78.5674 43.0027C79.0036 44.2436 79.4241 45.4638 79.8707 46.6372C80.3172 47.8107 80.7637 49.0153 81.257 50.1316C81.7027 51.1969 82.2232 52.2292 82.8147 53.221C83.046 53.6088 83.3064 53.9785 83.5935 54.3269C83.7025 54.4619 83.8012 54.5554 83.8427 54.6021C83.8843 54.6488 83.8739 54.6385 83.8427 54.6385C83.8116 54.6385 83.8427 54.6385 83.8739 54.6385L83.9518 54.6852C84.2793 54.8507 84.6291 54.9679 84.9902 55.0331C85.5052 55.1202 86.0258 55.1705 86.5479 55.1836C88.9977 55.1599 91.4406 54.9201 93.8482 54.4671H93.9728C94.3922 54.3986 94.8225 54.4775 95.1902 54.6905C95.558 54.9034 95.8407 55.2373 95.99 55.6351C96.1394 56.033 96.1463 56.4704 96.0095 56.8728C95.8726 57.2751 95.6006 57.6177 95.2397 57.8421C94.625 58.2324 93.9907 58.5912 93.3393 58.9169C92.7007 59.244 92.0465 59.5399 91.3715 59.8099C89.9847 60.3858 88.5398 60.8106 87.0619 61.0768C86.2484 61.2261 85.4227 61.2991 84.5956 61.2949C83.6286 61.3059 82.6657 61.1693 81.7399 60.8899L81.3505 60.7549C81.2041 60.7096 81.0617 60.6523 80.9247 60.5836C80.6295 60.4475 80.3449 60.2895 80.0732 60.1111C79.6156 59.806 79.1879 59.4583 78.7959 59.0726C78.1558 58.4585 77.5768 57.7838 77.0669 57.058C75.431 54.6217 74.0743 52.0092 73.0221 49.2697C72.5029 47.9768 72.0148 46.6736 71.5683 45.4067L70.9141 43.5115L70.6025 42.608C70.5091 42.3277 70.4 42.0317 70.3377 41.8759L70.3014 41.7721C70.0011 40.8921 70.0465 39.9308 70.4283 39.083C70.8101 38.2352 71.4999 37.5642 72.3579 37.2058C73.2158 36.8474 74.178 36.8285 75.0494 37.1529C75.9208 37.4772 76.6364 38.1206 77.0513 38.9527L77.0824 38.9994Z" fill="#263238"/>
<path opacity="0.2" d="M72.913 159.828L72.4872 164.942H68.2036L68.6294 159.828H72.913Z" fill="black"/>
<path opacity="0.2" d="M44.8281 154.324L48.904 155.119L46.9621 160.114L42.8862 159.319L44.8281 154.324Z" fill="black"/>
<path d="M61.6613 22.7167C61.6613 26.9639 61.4432 29.4666 63.4474 31.6837C66.4693 35.0223 71.8225 33.1894 73.0894 28.9785C74.2369 25.183 74.0448 18.8744 69.974 17.0987C65.9033 15.3229 61.6613 18.4694 61.6613 22.7167Z" fill="#FFB573"/>
<path d="M71.2618 24.8506C71.6253 23.8537 73.0791 19.5701 70.3843 18.2305C67.6896 16.8909 64.1536 16.4807 61.9573 17.4309C59.761 18.3811 58.167 21.8651 58.167 21.8651C58.167 21.8651 59.2054 29.2017 63.4838 30.5205C67.7622 31.8394 72.6118 26.7562 71.2618 24.8506Z" fill="#263238"/>
<path d="M70.2234 18.7809C70.685 18.6323 71.1185 18.4077 71.5059 18.1163C73.0636 16.6053 70.3065 15.5928 67.5754 15.3436C64.4601 15.0684 60.057 16.299 58.2969 18.5784C59.9636 19.4351 67.8454 19.4714 70.2234 18.7809Z" fill="#263238"/>
<path d="M69.969 18.3552C70.3801 18.3528 70.7877 18.279 71.1736 18.1372C73.2505 17.0987 70.8568 15.7332 68.7176 14.8193C66.2929 13.7809 62.3935 13.6614 60.3789 15.0945C61.5056 16.2368 67.8661 18.3137 69.969 18.3552Z" fill="#263238"/>
<path d="M69.3979 24.2639C69.4001 25.1972 69.7165 26.1026 70.2962 26.8341C71.0698 27.7739 71.9785 27.2287 72.2018 26.1124C72.4043 25.1051 72.2485 23.402 71.262 22.8672C70.2754 22.3324 69.4083 23.1216 69.3979 24.2639Z" fill="#FFB573"/>
<path d="M67.3261 74.3328C67.3261 74.3328 68.0323 106.748 63.6916 118.7C56.8794 137.652 49.4596 159.605 49.4596 159.605L41.6401 157.866C41.6401 157.866 47.9435 133.955 51.3652 118.01C54.4805 103.679 52.0713 86.0361 52.5438 74.3328H67.3261Z" fill="#5A53DD"/>
<g opacity="0.3">
<path d="M67.3261 74.3328C67.3261 74.3328 68.0323 106.748 63.6916 118.7C56.8794 137.652 49.4596 159.605 49.4596 159.605L41.6401 157.866C41.6401 157.866 47.9435 133.955 51.3652 118.01C54.4805 103.679 52.0713 86.0361 52.5438 74.3328H67.3261Z" fill="white"/>
</g>
<path opacity="0.2" d="M67.3624 81.5757C65.2284 80.9475 63.5306 81.1863 63.0165 83.1074C61.6717 88.1283 64.5742 101.374 66.0228 107.433C67.0665 98.7101 67.3261 88.3257 67.3624 81.5757Z" fill="black"/>
<path d="M51.5782 157.232C51.6145 157.232 49.6415 159.771 49.6415 159.771L41.0898 157.871L42.066 154.937L51.5782 157.232Z" fill="#5A53DD"/>
<path d="M75.4627 74.3328C75.4627 74.3328 80.2188 101.571 80.1357 114.635C80.0474 129.282 74.1179 163.961 74.1179 163.961H66.8487C66.8487 163.961 67.7626 129.111 67.9807 115.767C68.2195 101.229 60.374 74.3432 60.374 74.3432L75.4627 74.3328Z" fill="#5A53DD"/>
<g opacity="0.3">
<path d="M75.4627 74.3328C75.4627 74.3328 80.2188 101.571 80.1357 114.635C80.0474 129.282 74.1179 163.961 74.1179 163.961H66.8487C66.8487 163.961 67.7626 129.111 67.9807 115.767C68.2195 101.229 60.374 74.3432 60.374 74.3432L75.4627 74.3328Z" fill="white"/>
</g>
<path d="M75.6389 161.064C75.6701 161.064 75.1197 164.075 75.1197 164.075H66.2929L66.1631 161.386L75.6389 161.064Z" fill="#5A53DD"/>
<path d="M67.2951 83.6527C67.2731 83.6595 67.2495 83.6595 67.2276 83.6527L64.2057 81.8718C64.189 81.8606 64.1749 81.846 64.1642 81.829C64.1535 81.812 64.1464 81.793 64.1434 81.7732L63.5203 76.9028C63.5177 76.8843 63.5191 76.8654 63.5245 76.8475C63.5299 76.8296 63.5391 76.813 63.5515 76.799C63.5642 76.7857 63.5795 76.7752 63.5965 76.768C63.6135 76.7609 63.6317 76.7573 63.6501 76.7575H69.4446C69.4769 76.756 69.5084 76.7671 69.5326 76.7884C69.5568 76.8097 69.5718 76.8395 69.5745 76.8717L70.13 81.5862C70.1325 81.6102 70.1285 81.6344 70.1185 81.6563C70.1084 81.6782 70.0927 81.6971 70.0729 81.7108L67.3626 83.6112C67.3452 83.632 67.3215 83.6466 67.2951 83.6527ZM64.3926 81.6589L67.2899 83.3672L69.886 81.5551L69.3668 77.0326H63.8007L64.3926 81.6589Z" fill="white"/>
</svg>
