<svg width="46" height="46" viewBox="0 0 46 46" fill="none" xmlns="http://www.w3.org/2000/svg">
<circle cx="22.8235" cy="23.3847" r="22.6008" fill="white"/>
<g clip-path="url(#clip0_64_14608)">
<path d="M14.1567 21.6973C13.2576 21.6973 12.5317 22.451 12.5317 23.3848C12.5317 24.3185 13.2576 25.0723 14.1567 25.0723C15.0559 25.0723 15.7817 24.3185 15.7817 23.3848C15.7817 22.451 15.0559 21.6973 14.1567 21.6973ZM14.1567 14.9473C13.2576 14.9473 12.5317 15.701 12.5317 16.6348C12.5317 17.5685 13.2576 18.3223 14.1567 18.3223C15.0559 18.3223 15.7817 17.5685 15.7817 16.6348C15.7817 15.701 15.0559 14.9473 14.1567 14.9473ZM14.1567 28.4473C13.2522 28.4473 12.5317 29.2066 12.5317 30.1348C12.5317 31.0629 13.263 31.8223 14.1567 31.8223C15.0505 31.8223 15.7817 31.0629 15.7817 30.1348C15.7817 29.2066 15.0613 28.4473 14.1567 28.4473ZM17.4067 31.2598H32.5734V29.0098H17.4067V31.2598ZM17.4067 24.5098H32.5734V22.2598H17.4067V24.5098ZM17.4067 15.5098V17.7598H32.5734V15.5098H17.4067Z" fill="black" fill-opacity="0.54"/>
</g>
<defs>
<clipPath id="clip0_64_14608">
<rect width="26" height="27" fill="white" transform="translate(9.82349 9.88477)"/>
</clipPath>
</defs>
</svg>
