<svg width="40" height="40" viewBox="0 0 40 40" fill="none" xmlns="http://www.w3.org/2000/svg">
<rect x="1" y="1" width="38" height="38" rx="19" stroke="white" stroke-width="2"/>
<circle cx="20" cy="20" r="16" fill="white"/>
<path d="M25.5 15.5V24.5C25.5 24.7652 25.3946 25.0196 25.2071 25.2071C25.0196 25.3946 24.7652 25.5 24.5 25.5H15.5C15.2348 25.5 14.9804 25.3946 14.7929 25.2071C14.6054 25.0196 14.5 24.7652 14.5 24.5V15.5C14.5 15.2348 14.6054 14.9804 14.7929 14.7929C14.9804 14.6054 15.2348 14.5 15.5 14.5H24.5C24.7652 14.5 25.0196 14.6054 25.2071 14.7929C25.3946 14.9804 25.5 15.2348 25.5 15.5Z" fill="#5A53DD"/>
</svg>
