<svg width="40" height="40" viewBox="0 0 40 40" fill="none" xmlns="http://www.w3.org/2000/svg">
<rect x="1" y="1" width="38" height="38" rx="19" stroke="white" stroke-width="2"/>
<circle cx="20" cy="20" r="16" fill="#EB5757"/>
<path d="M14.39 19.19C14.39 18.57 14.04 18.18 13.26 18.18H12.09V20.23H13.26C14.04 20.23 14.39 19.82 14.39 19.19ZM10.69 17.02H13.31C14.99 17.02 15.83 17.99 15.83 19.16C15.83 20.01 15.36 20.87 14.24 21.17L15.91 24H14.29L12.75 21.28H12.09V24H10.69V17.02ZM21.1463 17.01V18.15H18.4963V19.9H20.8463V21.01H18.4963V22.86H21.1463V24H17.0963V17.01H21.1463ZM22.0785 20.5C22.0785 18.41 23.6085 16.93 25.6185 16.93C27.1685 16.93 28.4285 17.76 28.8985 19.19H27.2885C26.9585 18.52 26.3585 18.19 25.6085 18.19C24.3885 18.19 23.5185 19.08 23.5185 20.5C23.5185 21.91 24.3885 22.81 25.6085 22.81C26.3585 22.81 26.9585 22.48 27.2885 21.8H28.8985C28.4285 23.24 27.1685 24.06 25.6185 24.06C23.6085 24.06 22.0785 22.59 22.0785 20.5Z" fill="white"/>
</svg>
