<svg width="49" height="49" viewBox="0 0 49 49" fill="none" xmlns="http://www.w3.org/2000/svg">
<g clip-path="url(#clip0_6681_17482)">
<path d="M31.2905 48.8447C30.5832 49.2026 29.719 48.9203 29.3611 48.2121L22.7021 35.0501V47.5641C22.7021 48.3566 22.0599 48.9997 21.2665 48.9997C20.4741 48.9997 19.831 48.3566 19.831 47.5641V35.0501L13.172 48.2121C12.815 48.9193 11.9518 49.2035 11.2436 48.8447C10.5353 48.4867 10.2521 47.6235 10.61 46.9162L19.986 28.3853C20.2483 27.8647 20.7574 27.6006 21.2665 27.5996C21.7738 27.5987 22.281 27.858 22.548 28.3853L31.9231 46.9162C32.281 47.6235 31.9977 48.4867 31.2905 48.8447Z" fill="#3C6EAF"/>
<path d="M31.2915 48.8447C30.5843 49.2026 29.7201 48.9203 29.3621 48.2121L22.7031 35.0501V47.5641C22.7031 48.3566 22.061 48.9997 21.2676 48.9997V27.5996C21.7748 27.5987 22.282 27.858 22.549 28.3853L31.9241 46.9162C32.2821 47.6235 31.9988 48.4867 31.2915 48.8447Z" fill="#004881"/>
<path d="M33.6381 1.43555C33.6381 2.22797 32.995 2.87109 32.2026 2.87109H19.0472C16.7082 2.87109 14.8047 4.77463 14.8047 7.11457V9.13391C14.8047 9.92729 14.1616 10.5695 13.3691 10.5695C12.5758 10.5695 11.9336 9.92729 11.9336 9.13391V7.11457C11.9336 3.1917 15.1243 0 19.0472 0H32.2026C32.995 0 33.6381 0.643125 33.6381 1.43555Z" fill="#3C6EAF"/>
<path d="M42.7611 14.4041L40.7072 12.5078H35.3574C34.565 12.5078 33.9219 13.15 33.9219 13.9434V24.2256C33.9219 25.018 34.565 25.6612 35.3574 25.6612H40.7072L42.7611 23.3847V14.4041Z" fill="#6AA9FF"/>
<path d="M49.0007 10.1139V28.0524C49.0007 29.1744 47.7765 29.8484 46.8339 29.2869L40.707 25.6598V12.5064L46.8339 8.87834C47.789 8.3112 49.0007 9.00256 49.0007 10.1139Z" fill="#5F69E3"/>
<path d="M8.61328 12.0059V18.7022C8.61328 19.4946 7.97016 20.1378 7.17773 20.1378H1.43555C0.643125 20.1378 0 19.4946 0 18.7022V12.0059C0 11.2134 0.643125 10.5703 1.43555 10.5703H7.17773C7.97016 10.5703 8.61328 11.2134 8.61328 12.0059Z" fill="#E50058"/>
<path d="M36.7921 11.535V26.634C36.7921 28.749 35.0714 30.4698 32.9563 30.4698H9.57797C7.46293 30.4698 5.74219 28.749 5.74219 26.634V11.535C5.74219 9.41996 7.46293 7.69922 9.57797 7.69922H32.9563C35.0714 7.69922 36.7921 9.41996 36.7921 11.535Z" fill="#FAAFD8"/>
<path d="M36.7925 11.535V26.634C36.7925 28.749 35.0718 30.4698 32.9568 30.4698H21.2676V7.69922H32.9568C35.0718 7.69922 36.7925 9.41996 36.7925 11.535Z" fill="#FF92CE"/>
<path d="M24.8801 14.877V23.292C24.8801 24.0845 24.237 24.7276 23.4445 24.7276H12.8789C12.0865 24.7276 11.4434 24.0845 11.4434 23.292V14.877C11.4434 14.0845 12.0865 13.4414 12.8789 13.4414H23.4445C24.237 13.4414 24.8801 14.0845 24.8801 14.877Z" fill="#7ED8F6"/>
<path d="M24.8813 14.877V23.292C24.8813 24.0845 24.2382 24.7276 23.4458 24.7276H21.2676V13.4414H23.4458C24.2382 13.4414 24.8813 14.0845 24.8813 14.877Z" fill="#6AA9FF"/>
<path d="M29.6152 16.3125C30.4081 16.3125 31.0508 15.6698 31.0508 14.877C31.0508 14.0841 30.4081 13.4414 29.6152 13.4414C28.8224 13.4414 28.1797 14.0841 28.1797 14.877C28.1797 15.6698 28.8224 16.3125 29.6152 16.3125Z" fill="#E50058"/>
<path d="M29.6152 22.0547C30.4081 22.0547 31.0508 21.412 31.0508 20.6191C31.0508 19.8263 30.4081 19.1836 29.6152 19.1836C28.8224 19.1836 28.1797 19.8263 28.1797 20.6191C28.1797 21.412 28.8224 22.0547 29.6152 22.0547Z" fill="#00CAB0"/>
<path d="M33.6391 1.43555C33.6391 2.22797 32.996 2.87109 32.2036 2.87109H21.2676V0H32.2036C32.996 0 33.6391 0.643125 33.6391 1.43555Z" fill="#004881"/>
</g>
<defs>
<clipPath id="clip0_6681_17482">
<rect width="49" height="49" fill="white"/>
</clipPath>
</defs>
</svg>
