<svg width="31" height="31" viewBox="0 0 31 31" fill="none" xmlns="http://www.w3.org/2000/svg">
<path d="M27.4952 16.3333C27.3554 16.3333 27.0756 16.4722 26.9357 16.6111L25.5368 18L28.4745 20.9167L29.8733 19.5278C30.1531 19.25 30.1531 18.6944 29.8733 18.4167L28.0548 16.6111C27.9149 16.4722 27.775 16.3333 27.4952 16.3333ZM24.8374 18.8333L16.3042 27.1667V30.0833H19.2418L27.775 21.6111L24.8374 18.8333ZM13.5064 28.5555C6.37214 27.8611 0.916504 21.8889 0.916504 14.8055C0.916504 7.16666 7.21147 0.916656 14.9053 0.916656C22.3194 0.916656 28.3346 6.6111 28.8941 13.8333C28.4745 13.6944 28.0548 13.5555 27.4952 13.5555C26.3761 13.5555 25.5368 14.1111 24.9773 14.6667L21.2003 18.4167L15.6048 15.0833V7.8611H13.5064V16.1944L19.6615 19.9444L13.5064 26.0555V28.5555Z" fill="#1976D2"/>
</svg>
