<svg width="17" height="18" viewBox="0 0 17 18" fill="none" xmlns="http://www.w3.org/2000/svg">
<g clip-path="url(#clip0_223_480)">
<path d="M16.8513 5.44354L12.2471 0.662345C12.1736 0.586247 12.0791 0.533801 11.9756 0.511716C11.8722 0.489631 11.7645 0.49891 11.6663 0.538366C11.568 0.578032 11.4838 0.64615 11.4245 0.733986C11.3652 0.821822 11.3335 0.925372 11.3334 1.03136V3.3335H11.1564C7.3484 3.3335 4.25018 6.43172 4.25018 10.2397V11.3022C4.25018 11.5486 4.4237 11.7541 4.66379 11.8101C4.70284 11.8199 4.74175 11.8242 4.78066 11.8242C4.98117 11.8242 5.17312 11.7066 5.26585 11.5217C6.2618 9.52917 8.26419 8.29174 10.4919 8.29174H11.3334V10.5937C11.3334 10.6997 11.3651 10.8032 11.4244 10.8909C11.4837 10.9787 11.568 11.0467 11.6663 11.0861C11.8654 11.1675 12.0969 11.118 12.2471 10.9621L16.8513 6.18091C17.0496 5.97482 17.0496 5.65043 16.8513 5.44357V5.44354Z" fill="#5A53DD"/>
<path d="M14.875 17.4999H2.12516C0.9536 17.4999 0.000183105 16.5466 0.000183105 15.3749V5.45847C0.000183105 4.28691 0.9536 3.3335 2.12516 3.3335H4.25013C4.64183 3.3335 4.95841 3.65008 4.95841 4.04178C4.95841 4.43347 4.64183 4.75006 4.25013 4.75006H2.12516C1.73413 4.75006 1.41674 5.06744 1.41674 5.45847V15.3749C1.41674 15.766 1.73413 16.0833 2.12516 16.0833H14.875C15.2659 16.0833 15.5833 15.766 15.5833 15.3749V9.70842C15.5833 9.31673 15.8999 9.00001 16.2916 9.00001C16.6834 9.00001 17 9.31673 17 9.70842V15.3749C17 16.5466 16.0466 17.4999 14.875 17.4999Z" fill="#5A53DD"/>
</g>
<defs>
<clipPath id="clip0_223_480">
<rect width="17" height="17" fill="white" transform="translate(0 0.5)"/>
</clipPath>
</defs>
</svg>
