<svg width="17" height="17" viewBox="0 0 17 17" fill="none" xmlns="http://www.w3.org/2000/svg">
<g clip-path="url(#clip0_225_4634)">
<path d="M16.8513 4.94354L12.2471 0.162345C12.1736 0.0862472 12.0791 0.0338014 11.9756 0.011716C11.8722 -0.0103694 11.7645 -0.00109042 11.6663 0.0383662C11.568 0.0780324 11.4838 0.14615 11.4245 0.233986C11.3652 0.321822 11.3335 0.425372 11.3334 0.53136V2.8335H11.1564C7.3484 2.8335 4.25018 5.93172 4.25018 9.73967V10.8022C4.25018 11.0486 4.4237 11.2541 4.66379 11.3101C4.70284 11.3199 4.74175 11.3242 4.78066 11.3242C4.98117 11.3242 5.17312 11.2066 5.26585 11.0217C6.2618 9.02917 8.2642 7.79174 10.4919 7.79174H11.3334V10.0937C11.3334 10.1997 11.3651 10.3032 11.4244 10.3909C11.4837 10.4787 11.568 10.5467 11.6663 10.5861C11.8654 10.6675 12.0969 10.618 12.2471 10.4621L16.8513 5.68091C17.0496 5.47482 17.0496 5.15043 16.8513 4.94357V4.94354Z" fill="white"/>
<path d="M14.875 16.9999H2.12516C0.953599 16.9999 0.000183105 16.0466 0.000183105 14.8749V4.95847C0.000183105 3.78691 0.953599 2.8335 2.12516 2.8335H4.25013C4.64183 2.8335 4.95841 3.15008 4.95841 3.54178C4.95841 3.93347 4.64183 4.25006 4.25013 4.25006H2.12516C1.73413 4.25006 1.41674 4.56744 1.41674 4.95847V14.8749C1.41674 15.266 1.73413 15.5833 2.12516 15.5833H14.875C15.2659 15.5833 15.5833 15.266 15.5833 14.8749V9.20842C15.5833 8.81673 15.8999 8.50001 16.2916 8.50001C16.6834 8.50001 17 8.81673 17 9.20842V14.8749C17 16.0466 16.0466 16.9999 14.875 16.9999Z" fill="white"/>
</g>
<defs>
<clipPath id="clip0_225_4634">
<rect width="17" height="17" fill="white"/>
</clipPath>
</defs>
</svg>
