<svg width="32" height="33" viewBox="0 0 32 33" fill="none" xmlns="http://www.w3.org/2000/svg">
<rect y="0.5" width="32" height="32" rx="16" fill="#5A53DD"/>
<path d="M23.7506 15.2442C23.7506 15.3158 23.72 15.3839 23.6666 15.4311L17.3597 21.0258C17.3236 21.0577 17.2791 21.0785 17.2315 21.0858C17.1839 21.093 17.1352 21.0864 17.0912 21.0666C17.0473 21.0468 17.01 21.0148 16.9839 20.9743C16.9577 20.9339 16.9438 20.8868 16.9438 20.8386V17.9498C13.3891 17.9077 10.1931 20.088 8.94158 23.4373C8.92377 23.485 8.89181 23.5262 8.84998 23.5552C8.80815 23.5843 8.75844 23.5998 8.70752 23.5998C8.70158 23.5998 8.69564 23.5998 8.68971 23.5992C8.63589 23.5954 8.58474 23.5743 8.5439 23.5391C8.50306 23.5038 8.47473 23.4563 8.46314 23.4036C7.87877 20.7527 8.52033 18.0152 10.2241 15.8933C11.8822 13.828 14.32 12.6148 16.9438 12.5402V9.64953C16.9438 9.55109 17.0016 9.46203 17.0913 9.4214C17.1352 9.40165 17.1839 9.39501 17.2315 9.40227C17.2791 9.40954 17.3237 9.43039 17.3597 9.46234L23.6666 15.0573C23.693 15.0808 23.7141 15.1096 23.7286 15.1418C23.7431 15.174 23.7506 15.2089 23.7506 15.2442Z" fill="white"/>
</svg>
