<svg width="53" height="59" viewBox="0 0 53 59" fill="none" xmlns="http://www.w3.org/2000/svg">
<rect width="53" height="59" fill="#5A53DD"/>
<g clip-path="url(#clip0_225_4639)">
<path d="M34.8513 25.9435L30.2471 21.1623C30.1736 21.0862 30.0791 21.0338 29.9756 21.0117C29.8722 20.9896 29.7645 20.9989 29.6663 21.0384C29.568 21.078 29.4838 21.1462 29.4245 21.234C29.3652 21.3218 29.3335 21.4254 29.3334 21.5314V23.8335H29.1564C25.3484 23.8335 22.2502 26.9317 22.2502 30.7397V31.8022C22.2502 32.0486 22.4237 32.2541 22.6638 32.3101C22.7028 32.3199 22.7417 32.3242 22.7807 32.3242C22.9812 32.3242 23.1731 32.2066 23.2659 32.0217C24.2618 30.0292 26.2642 28.7917 28.4919 28.7917H29.3334V31.0937C29.3334 31.1997 29.3651 31.3032 29.4244 31.3909C29.4837 31.4787 29.568 31.5467 29.6663 31.5861C29.8654 31.6675 30.0969 31.618 30.2471 31.4621L34.8513 26.6809C35.0496 26.4748 35.0496 26.1504 34.8513 25.9436V25.9435Z" fill="white"/>
<path d="M32.875 37.9999H20.1252C18.9536 37.9999 18.0002 37.0466 18.0002 35.8749V25.9585C18.0002 24.7869 18.9536 23.8335 20.1252 23.8335H22.2501C22.6418 23.8335 22.9584 24.1501 22.9584 24.5418C22.9584 24.9335 22.6418 25.2501 22.2501 25.2501H20.1252C19.7341 25.2501 19.4167 25.5674 19.4167 25.9585V35.8749C19.4167 36.266 19.7341 36.5833 20.1252 36.5833H32.875C33.2659 36.5833 33.5833 36.266 33.5833 35.8749V30.2084C33.5833 29.8167 33.8999 29.5 34.2916 29.5C34.6834 29.5 35 29.8167 35 30.2084V35.8749C35 37.0466 34.0466 37.9999 32.875 37.9999Z" fill="white"/>
</g>
<defs>
<clipPath id="clip0_225_4639">
<rect width="17" height="17" fill="white" transform="translate(18 21)"/>
</clipPath>
</defs>
</svg>
