<svg width="30" height="30" viewBox="0 0 30 30" fill="none" xmlns="http://www.w3.org/2000/svg">
<path fill-rule="evenodd" clip-rule="evenodd" d="M27.5529 15.2456C27.5529 22.4539 21.7095 28.2973 14.5013 28.2973C7.29305 28.2973 1.44964 22.4539 1.44964 15.2456C1.44964 8.03744 7.29305 2.19403 14.5013 2.19403C21.7095 2.19403 27.5529 8.03744 27.5529 15.2456ZM29.0025 15.2456C29.0025 23.2545 22.5101 29.7469 14.5013 29.7469C6.49244 29.7469 0 23.2545 0 15.2456C0 7.23682 6.49244 0.744385 14.5013 0.744385C22.5101 0.744385 29.0025 7.23682 29.0025 15.2456ZM11.8592 8.96751L21.1208 14.4059C21.9496 14.8894 21.9469 16.081 21.1208 16.5645L11.8592 22.0003C11.0251 22.4916 9.95427 21.901 9.95427 20.921V10.0468C9.95427 8.95445 11.1067 8.52586 11.8592 8.96751Z" fill="#FBE6B7"/>
</svg>
