<svg width="40" height="40" viewBox="0 0 40 40" fill="none" xmlns="http://www.w3.org/2000/svg">
<rect width="40" height="40" rx="20" fill="white"/>
<path d="M10.003 19.7155C10.0403 17.8733 10.059 16.9522 10.6709 16.1636C10.7826 16.0197 10.9465 15.8487 11.0839 15.7327C11.8364 15.0974 12.8299 15.0974 14.8171 15.0974C15.527 15.0974 15.882 15.0974 16.2204 15.0045C16.2907 14.9852 16.3602 14.963 16.4289 14.9378C16.7594 14.8167 17.0557 14.6084 17.6485 14.1916C19.9872 12.5474 21.1565 11.7253 22.138 12.0824C22.3261 12.1509 22.5083 12.2497 22.671 12.3716C23.5194 13.0074 23.5839 14.4868 23.7128 17.4454C23.7606 18.5409 23.7931 19.4785 23.7931 20C23.7931 20.5215 23.7606 21.4591 23.7128 22.5546C23.5839 25.5132 23.5194 26.9926 22.671 27.6284C22.5083 27.7503 22.3261 27.8491 22.138 27.9176C21.1565 28.2747 19.9872 27.4526 17.6485 25.8084C17.0557 25.3916 16.7594 25.1833 16.4289 25.0622C16.3602 25.037 16.2907 25.0148 16.2204 24.9955C15.882 24.9026 15.527 24.9026 14.8171 24.9026C12.8299 24.9026 11.8364 24.9026 11.0839 24.2673C10.9465 24.1513 10.7826 23.9803 10.6709 23.8364C10.059 23.0478 10.0403 22.1267 10.003 20.2845C10.001 20.1878 10 20.0928 10 20C10 19.9072 10.001 19.8122 10.003 19.7155Z" fill="#5A53DD"/>
<path fill-rule="evenodd" clip-rule="evenodd" d="M27.4895 13.5522C27.7821 13.2922 28.217 13.3343 28.4608 13.6463L27.931 14.1171C28.4608 13.6463 28.4606 13.646 28.4608 13.6463L28.4619 13.6477L28.4631 13.6492L28.4658 13.6528L28.4727 13.6618C28.4779 13.6688 28.4844 13.6776 28.4921 13.6881C28.5075 13.7093 28.5275 13.7377 28.5515 13.7736C28.5995 13.8453 28.6635 13.9467 28.7379 14.0789C28.8868 14.3435 29.077 14.7309 29.2644 15.2504C29.6397 16.2911 30 17.8514 30 20.0002C30 22.1491 29.6397 23.7094 29.2644 24.7501C29.077 25.2695 28.8868 25.657 28.7379 25.9216C28.6635 26.0538 28.5995 26.1552 28.5515 26.2269C28.5275 26.2627 28.5075 26.2912 28.4921 26.3123C28.4844 26.3229 28.4779 26.3317 28.4727 26.3386L28.4658 26.3477L28.4631 26.3513L28.4619 26.3528C28.4616 26.3531 28.4608 26.3541 27.931 25.8833L28.4608 26.3541C28.217 26.6661 27.7821 26.7083 27.4895 26.4483C27.1983 26.1895 27.1578 25.729 27.3977 25.417C27.3983 25.4163 27.3994 25.4148 27.4009 25.4127C27.4058 25.406 27.4154 25.3925 27.4291 25.372C27.4565 25.3311 27.5003 25.2625 27.5552 25.1649C27.6649 24.9698 27.8195 24.6587 27.977 24.2221C28.2913 23.3508 28.6207 21.9695 28.6207 20.0002C28.6207 18.0309 28.2913 16.6497 27.977 15.7784C27.8195 15.3418 27.6649 15.0307 27.5552 14.8356C27.5003 14.738 27.4565 14.6693 27.4291 14.6284C27.4154 14.608 27.4058 14.5945 27.4009 14.5878C27.3994 14.5856 27.3983 14.5842 27.3977 14.5834C27.3977 14.5834 27.3977 14.5834 27.3977 14.5834" fill="#5A53DD"/>
<path fill-rule="evenodd" clip-rule="evenodd" d="M25.7571 16.416C26.0901 16.2187 26.51 16.3466 26.6949 16.7017L26.0921 17.0588C26.6949 16.7017 26.6948 16.7013 26.6949 16.7017L26.6956 16.7029L26.6963 16.7043L26.6978 16.7073L26.7014 16.7143L26.7102 16.7323C26.7169 16.7461 26.7251 16.7635 26.7345 16.7846C26.7533 16.8268 26.7772 16.8836 26.8042 16.9557C26.8584 17.1 26.9251 17.3049 26.99 17.5748C27.1199 18.115 27.2415 18.9119 27.2415 20.0003C27.2415 21.0888 27.1199 21.8857 26.99 22.4259C26.9251 22.6958 26.8584 22.9007 26.8042 23.045C26.7772 23.1171 26.7533 23.1739 26.7345 23.2161C26.7251 23.2372 26.7169 23.2546 26.7102 23.2684L26.7014 23.2864L26.6978 23.2934L26.6963 23.2964L26.6956 23.2978C26.6954 23.2981 26.6949 23.299 26.0921 22.9419L26.6949 23.299C26.51 23.6541 26.0901 23.782 25.7571 23.5847C25.427 23.3892 25.3063 22.9474 25.4846 22.5938L25.4892 22.5838C25.4955 22.5697 25.5075 22.5415 25.5236 22.4987C25.5557 22.4132 25.6039 22.2688 25.6539 22.0606C25.7539 21.6448 25.8622 20.9709 25.8622 20.0003C25.8622 19.0298 25.7539 18.3559 25.6539 17.9401C25.6039 17.7319 25.5557 17.5875 25.5236 17.502C25.5075 17.4592 25.4955 17.431 25.4892 17.4169L25.4846 17.4069C25.3063 17.0533 25.427 16.6115 25.7571 16.416Z" fill="#5A53DD"/>
</svg>
