<svg width="22" height="22" viewBox="0 0 22 22" fill="none" xmlns="http://www.w3.org/2000/svg">
<path d="M7.21875 1.03125L6.53125 3.09375L6.875 4.46875L5.5 5.15625L4.125 4.46875L4.46875 3.09375L3.78125 1.03125L2.40625 3.78125L2.75 5.84375L3.78125 6.53125V11.3438H7.21875V6.53125L8.25 5.84375L8.59375 3.78125L7.21875 1.03125Z" fill="#EFAF22"/>
<path d="M13.4062 15.8125V13.75H12.2719C12.1386 13.1037 11.8831 12.4888 11.5191 11.9384L12.3234 11.1341L10.8659 9.67656L10.0616 10.4809C9.51117 10.1169 8.89629 9.86139 8.25 9.72812V8.59375H6.1875V9.72812C5.54121 9.86139 4.92633 10.1169 4.37594 10.4809L3.57156 9.67656L2.11406 11.1341L2.91844 11.9384C2.55441 12.4888 2.29889 13.1037 2.16563 13.75H1.03125V15.8125H2.16563C2.29889 16.4588 2.55441 17.0737 2.91844 17.6241L2.11406 18.4284L3.57156 19.8859L4.37594 19.0816C4.92633 19.4456 5.54121 19.7011 6.1875 19.8344V20.9688H8.25V19.8344C8.89629 19.7011 9.51117 19.4456 10.0616 19.0816L10.8659 19.8859L12.3234 18.4284L11.5191 17.6241C11.8831 17.0737 12.1386 16.4588 12.2719 15.8125H13.4062Z" fill="#758DAF"/>
<path d="M7.21875 17.875C8.92738 17.875 10.3125 16.4899 10.3125 14.7812C10.3125 13.0726 8.92738 11.6875 7.21875 11.6875C5.51012 11.6875 4.125 13.0726 4.125 14.7812C4.125 16.4899 5.51012 17.875 7.21875 17.875Z" fill="#EFEFEF"/>
<path d="M4.125 14.7812C4.125 15.6018 4.45095 16.3887 5.03114 16.9689C5.61133 17.5491 6.39824 17.875 7.21875 17.875V11.6875C6.39824 11.6875 5.61133 12.0134 5.03114 12.5936C4.45095 13.1738 4.125 13.9607 4.125 14.7812Z" fill="#EFAF22"/>
<path d="M20.9688 6.875V4.8125H19.7931C19.7094 4.53002 19.5941 4.25788 19.4494 4.00125L20.2812 3.16938L18.8306 1.71875L17.9988 2.54375C17.7421 2.39903 17.47 2.28372 17.1875 2.2V1.03125H15.125V2.20688C14.8425 2.2906 14.5704 2.40591 14.3137 2.55063L13.4819 1.71875L12.0312 3.16938L12.8631 4.00125C12.7184 4.25788 12.6031 4.53002 12.5194 4.8125H11.3438V6.875H12.5194C12.6031 7.15748 12.7184 7.42962 12.8631 7.68625L12.0312 8.51813L13.4819 9.96875L14.3137 9.13687C14.5704 9.28159 14.8425 9.3969 15.125 9.48062V10.6562H17.1875V9.48062C17.47 9.3969 17.7421 9.28159 17.9988 9.13687L18.8306 9.96875L20.2812 8.51813L19.4562 7.68625C19.601 7.42962 19.7163 7.15748 19.8 6.875H20.9688Z" fill="#A09F9D"/>
<path d="M16.1562 7.90625C17.2953 7.90625 18.2188 6.98284 18.2188 5.84375C18.2188 4.70466 17.2953 3.78125 16.1562 3.78125C15.0172 3.78125 14.0938 4.70466 14.0938 5.84375C14.0938 6.98284 15.0172 7.90625 16.1562 7.90625Z" fill="#EFEFEF"/>
<path d="M7.90625 14.4375H15.8125V15.125H7.90625V14.4375Z" fill="#7BC6FD"/>
<path d="M8.9375 15.4688L7.21875 15.8125L5.5 14.7812L7.21875 13.75L8.9375 14.0938V15.4688Z" fill="#F95F5F"/>
<path d="M19.5938 16.1562H14.7812V13.4062H19.5938C19.9584 13.4062 20.3082 13.5511 20.566 13.809C20.8239 14.0668 20.9688 14.4166 20.9688 14.7812C20.9688 15.1459 20.8239 15.4957 20.566 15.7535C20.3082 16.0114 19.9584 16.1562 19.5938 16.1562Z" fill="#47B744"/>
</svg>
