<svg width="53" height="48" viewBox="0 0 53 48" fill="none" xmlns="http://www.w3.org/2000/svg">
<path fill-rule="evenodd" clip-rule="evenodd" d="M36.1234 38.4788C37.0503 37.4911 37.6437 36.2372 37.8199 34.8941L47.9274 39.3856C48.4221 39.606 48.9641 39.6993 49.5041 39.657C50.044 39.6147 50.5649 39.4381 51.0192 39.1433C51.4736 38.8484 51.847 38.4447 52.1057 37.9688C52.3643 37.493 52.4999 36.96 52.5001 36.4183V12.1668C52.4996 11.6256 52.364 11.0931 52.1056 10.6176C51.8471 10.1421 51.474 9.73869 51.0201 9.44395C50.5662 9.1492 50.0459 8.97247 49.5064 8.9298C48.9668 8.88713 48.4252 8.97987 47.9306 9.1996L37.8199 13.6911C37.6133 12.1281 36.8458 10.6935 35.6602 9.65436C34.4746 8.61522 32.9517 8.04241 31.3751 8.0426H14.3841L16.7046 11.2926H31.3751C32.2371 11.2926 33.0637 11.635 33.6732 12.2445C34.2827 12.854 34.6251 13.6806 34.6251 14.5426V34.0426C34.6257 34.636 34.4639 35.2182 34.1571 35.7261L36.1234 38.4788ZM5.14112 11.8776C4.71161 12.1768 4.36081 12.5754 4.1186 13.0394C3.8764 13.5034 3.74998 14.0192 3.75012 14.5426V34.0426C3.75012 34.9046 4.09253 35.7312 4.70202 36.3407C5.31152 36.9502 6.13817 37.2926 7.00012 37.2926H23.2956L25.6161 40.5426H7.00012C5.27621 40.5426 3.62291 39.8578 2.40393 38.6388C1.18494 37.4198 0.500122 35.7665 0.500122 34.0426V14.5426C0.500122 12.3488 1.58562 10.4086 3.25287 9.2321L5.13787 11.8776H5.14112ZM49.2501 36.4151L37.8751 31.3613V17.2238L49.2501 12.1668V36.4183V36.4151ZM34.9274 47.9851L2.42737 2.4851L5.07287 0.600098L37.5729 46.1001L34.9274 47.9851Z" fill="#B5B5B5"/>
</svg>
