<svg width="40" height="40" viewBox="0 0 40 40" fill="none" xmlns="http://www.w3.org/2000/svg">
<path d="M38.5167 7.38867H1.48333C0.663333 7.38867 0 8.05367 0 8.87367V31.1287C0 31.9487 0.663333 32.6137 1.48333 32.6137H38.5167C39.3367 32.6137 40 31.9487 40 31.1287V8.87367C40 8.05367 39.3367 7.38867 38.5167 7.38867ZM7.84667 25.312L5.65833 16.837C5.52333 16.3137 5.40833 16.1237 5.005 15.902C4.34333 15.5453 3.255 15.2103 2.29333 15.0003L2.36 14.692H7.03333C7.62833 14.692 8.165 15.0887 8.3 15.7753L9.45667 21.922L12.3167 14.692H15.2033L10.7533 25.312H7.84667ZM14.1083 25.312L16.3817 14.692H19.13L16.8567 25.312H14.1083ZM21.7983 25.4803C20.57 25.4653 19.3833 25.2103 18.7417 24.9153L19.2383 22.587C19.8783 22.8853 20.68 23.2803 22.0617 23.2587C22.8517 23.2453 23.6983 22.9337 23.705 22.2203C23.7083 21.7537 23.3517 21.4203 22.28 20.9003C21.2383 20.392 19.8567 19.5387 19.875 18.0103C19.8917 15.9437 21.8033 14.5003 24.5183 14.5003C25.575 14.5003 26.4267 14.7303 27.0883 14.9703L26.6067 17.222C25.3767 16.657 24.2917 16.6953 23.8967 16.7487C23.1033 16.8503 22.74 17.2553 22.7317 17.6387C22.7033 18.892 26.5933 19.0453 26.58 21.847C26.5733 24.052 24.685 25.4803 21.7983 25.4803ZM33.7533 25.312L33.4217 23.7253H29.8967L29.325 25.312H26.4417L30.5617 15.4703C30.7583 15.0003 31.2017 14.692 31.73 14.692H34.075L36.2933 25.312H33.7533ZM30.6867 21.5487H32.965L32.1333 17.5603L30.6867 21.5487Z" fill="white"/>
</svg>
