<svg width="226" height="41" viewBox="0 0 226 41" fill="none" xmlns="http://www.w3.org/2000/svg">
<path d="M59.1682 29.1734H67.4222V32.9994H53.8672V29.4464L62.0652 17.6404H53.8672V13.8144H67.4222V17.3674L59.1682 29.1734ZM79.5482 33.1904C77.7442 33.1904 76.0862 32.7714 74.5742 31.9334C73.0913 31.1061 71.8556 29.8987 70.9942 28.4354C70.1192 26.9234 69.6822 25.2284 69.6822 23.3524C69.6822 21.4754 70.1192 19.7904 70.9942 18.2964C71.8556 16.8331 73.0913 15.6257 74.5742 14.7984C76.0862 13.9604 77.7442 13.5414 79.5482 13.5414C81.3512 13.5414 83.0002 13.9604 84.4942 14.7984C85.9808 15.6112 87.2113 16.8226 88.0472 18.2964C88.9212 19.7904 89.3592 21.4764 89.3592 23.3524C89.3592 25.2284 88.9212 26.9224 88.0472 28.4354C87.2011 29.9013 85.9731 31.1102 84.4942 31.9334C83.0002 32.7714 81.3512 33.1904 79.5482 33.1904ZM79.5482 28.9274C81.0782 28.9274 82.2982 28.4174 83.2102 27.3974C84.1392 26.3774 84.6042 25.0284 84.6042 23.3524C84.6042 21.6574 84.1392 20.3094 83.2102 19.3074C82.2992 18.2874 81.0782 17.7774 79.5482 17.7774C77.9992 17.7774 76.7602 18.2774 75.8312 19.2804C74.9202 20.2824 74.4642 21.6404 74.4642 23.3524C74.4642 25.0464 74.9202 26.4044 75.8312 27.4244C76.7612 28.4264 77.9992 28.9274 79.5482 28.9274ZM101.032 33.1904C99.2282 33.1904 97.5702 32.7714 96.0582 31.9334C94.5753 31.1061 93.3396 29.8987 92.4782 28.4354C91.6032 26.9234 91.1662 25.2284 91.1662 23.3524C91.1662 21.4754 91.6032 19.7904 92.4782 18.2964C93.3396 16.8331 94.5753 15.6257 96.0582 14.7984C97.5702 13.9604 99.2282 13.5414 101.032 13.5414C102.836 13.5414 104.485 13.9604 105.978 14.7984C107.465 15.6109 108.696 16.8224 109.531 18.2964C110.406 19.7904 110.843 21.4764 110.843 23.3524C110.843 25.2284 110.406 26.9224 109.531 28.4354C108.685 29.9014 107.457 31.1104 105.978 31.9334C104.485 32.7714 102.836 33.1904 101.032 33.1904ZM101.032 28.9274C102.562 28.9274 103.783 28.4174 104.694 27.3974C105.623 26.3774 106.088 25.0284 106.088 23.3524C106.088 21.6574 105.623 20.3094 104.694 19.3074C103.783 18.2874 102.562 17.7774 101.032 17.7774C99.4832 17.7774 98.2442 18.2774 97.3152 19.2804C96.4052 20.2824 95.9492 21.6404 95.9492 23.3524C95.9492 25.0464 96.4042 26.4044 97.3152 27.4244C98.2452 28.4264 99.4832 28.9274 101.032 28.9274ZM135.17 13.8144V32.9994H130.496V21.4934L126.206 32.9994H122.434L118.116 21.4664V32.9994H113.443V13.8144H118.963L124.347 27.0964L129.676 13.8144H135.17ZM140.88 16.1644C140.061 16.1644 139.386 15.9274 138.858 15.4544C138.611 15.224 138.416 14.9444 138.284 14.6337C138.152 14.3229 138.087 13.9879 138.093 13.6504C138.093 12.9214 138.348 12.3204 138.858 11.8464C139.386 11.3544 140.061 11.1084 140.88 11.1084C141.682 11.1084 142.338 11.3544 142.848 11.8464C143.377 12.3204 143.641 12.9214 143.641 13.6504C143.641 14.3604 143.377 14.9624 142.848 15.4544C142.338 15.9274 141.682 16.1644 140.88 16.1644ZM143.203 17.7494V32.9994H138.53V17.7494H143.203ZM163.753 32.9994H159.08L151.263 21.1654V32.9994H146.59V13.8144H151.263L159.08 25.7024V13.8144H163.753V32.9994ZM177.605 29.3924H183.727V32.9994H172.932V13.8144H177.605V29.3924ZM190.629 13.8144V32.9994H185.956V13.8144H190.629ZM212.026 13.8144L205.221 32.9994H199.372L192.567 13.8144H197.541L202.296 28.2984L207.079 13.8144H212.026ZM218.652 17.5584V21.4384H224.91V25.0464H218.652V29.2554H225.73V32.9994H213.979V13.8144H225.73V17.5584H218.652Z" fill="#5A53DD"/>
<path d="M59.1673 29.1735L58.9923 29.0515L58.7573 29.3865H59.1673V29.1735ZM67.4213 29.1735H67.6343V28.9595H67.4213V29.1735ZM67.4213 32.9995V33.2135H67.6343V32.9995H67.4213ZM53.8663 32.9995H53.6523V33.2135H53.8663V32.9995ZM53.8663 29.4465L53.6903 29.3245L53.6523 29.3795V29.4465H53.8663ZM62.0643 17.6405L62.2393 17.7625L62.4723 17.4275H62.0643V17.6405ZM53.8663 17.6405H53.6523V17.8545H53.8663V17.6405ZM53.8663 13.8145V13.6015H53.6523V13.8145H53.8663ZM67.4213 13.8145H67.6343V13.6015H67.4213V13.8145ZM67.4213 17.3675L67.5963 17.4895L67.6343 17.4345V17.3675H67.4213ZM59.1673 29.3875H67.4213V28.9595H59.1673V29.3865V29.3875ZM67.2073 29.1735V32.9995H67.6343V29.1735H67.2073ZM67.4213 32.7855H53.8663V33.2135H67.4213V32.7855ZM54.0793 32.9995V29.4465H53.6523V32.9995H54.0793ZM54.0413 29.5685L62.2393 17.7625L61.8893 17.5185L53.6903 29.3245L54.0413 29.5685ZM62.0643 17.4275H53.8663V17.8545H62.0643V17.4275ZM54.0793 17.6405V13.8145H53.6523V17.6405H54.0793ZM53.8663 14.0285H67.4213V13.5995H53.8663V14.0265V14.0285ZM67.2073 13.8145V17.3675H67.6343V13.8145H67.2073ZM67.2463 17.2445L58.9923 29.0515L59.3423 29.2955L67.5963 17.4895L67.2463 17.2445ZM70.9933 28.4355L70.8083 28.5425L70.8093 28.5455L70.9933 28.4355ZM70.9933 18.2965L70.8093 18.1865V18.1885L70.9933 18.2965ZM88.0463 18.2965L87.8613 18.4025V18.4045L88.0463 18.2965ZM88.0463 28.4355L88.2303 28.5435V28.5425L88.0463 28.4355ZM83.2093 27.3965L83.0513 27.2535L83.0493 27.2545L83.2093 27.3975V27.3965ZM83.2093 19.3075L83.0493 19.4495L83.0523 19.4525L83.2093 19.3075ZM75.8293 19.2805L75.6733 19.1355L75.6723 19.1365L75.8293 19.2805ZM75.8293 27.4245L75.6713 27.5665L75.6733 27.5695L75.8293 27.4245ZM79.5473 32.9775C77.7773 32.9775 76.1553 32.5675 74.6773 31.7475L74.4693 32.1205C76.0153 32.9765 77.7093 33.4045 79.5473 33.4045V32.9775ZM74.6773 31.7475C73.227 30.9382 72.0185 29.757 71.1763 28.3255L70.8093 28.5455C71.6903 30.0407 72.9536 31.2753 74.4693 32.1205L74.6773 31.7475ZM71.1773 28.3285C70.3233 26.8515 69.8943 25.1945 69.8943 23.3525H69.4673C69.4673 25.2635 69.9143 26.9955 70.8083 28.5425L71.1773 28.3285ZM69.8943 23.3525C69.8943 21.5105 70.3243 19.8625 71.1773 18.4045L70.8093 18.1885C69.9143 19.7185 69.4673 21.4415 69.4673 23.3525H69.8943ZM71.1763 18.4055C72.0188 16.9747 73.2272 15.7942 74.6773 14.9855L74.4683 14.6125C72.953 15.4579 71.6901 16.6914 70.8093 18.1865L71.1763 18.4055ZM74.6773 14.9855C76.1573 14.1655 77.7773 13.7555 79.5463 13.7555V13.3275C77.7083 13.3275 76.0153 13.7555 74.4693 14.6115L74.6773 14.9855ZM79.5463 13.7555C81.3163 13.7555 82.9283 14.1655 84.3893 14.9855L84.5983 14.6125C83.0703 13.7555 81.3843 13.3275 79.5463 13.3275L79.5473 13.7545L79.5463 13.7555ZM84.3893 14.9855C85.8414 15.7795 87.0451 16.9629 87.8613 18.4025L88.2313 18.1905C87.3764 16.6828 86.1179 15.4434 84.5973 14.6115L84.3893 14.9855ZM87.8613 18.4045C88.7143 19.8625 89.1443 21.5105 89.1443 23.3525H89.5713C89.5713 21.4415 89.1253 19.7175 88.2313 18.1885L87.8613 18.4045ZM89.1443 23.3525C89.1443 25.1945 88.7163 26.8515 87.8613 28.3285L88.2303 28.5425C89.1243 26.9955 89.5713 25.2635 89.5713 23.3525H89.1443ZM87.8623 28.3275C87.0355 29.7608 85.8352 30.9428 84.3893 31.7475L84.5983 32.1195C86.11 31.2778 87.3652 30.0419 88.2303 28.5435L87.8623 28.3275ZM84.3893 31.7475C82.9293 32.5675 81.3163 32.9775 79.5473 32.9775V33.4045C81.3853 33.4045 83.0713 32.9765 84.5983 32.1195L84.3893 31.7475ZM79.5473 29.1405C81.1303 29.1405 82.4113 28.6105 83.3683 27.5395L83.0493 27.2545C82.1843 28.2245 81.0243 28.7145 79.5473 28.7145V29.1405ZM83.3673 27.5405C84.3393 26.4735 84.8163 25.0705 84.8163 23.3525H84.3893C84.3893 24.9875 83.9373 26.2815 83.0513 27.2535L83.3673 27.5405ZM84.8163 23.3525C84.8163 21.6175 84.3393 20.2125 83.3663 19.1625L83.0523 19.4525C83.9373 20.4065 84.3893 21.6985 84.3893 23.3525H84.8163ZM83.3683 19.1655C82.4113 18.0945 81.1303 17.5635 79.5473 17.5635V17.9905C81.0243 17.9905 82.1843 18.4795 83.0493 19.4495L83.3683 19.1655ZM79.5473 17.5635C77.9473 17.5635 76.6493 18.0835 75.6733 19.1355L75.9863 19.4255C76.8703 18.4735 78.0503 17.9905 79.5473 17.9905V17.5635ZM75.6723 19.1365C74.7163 20.1875 74.2503 21.6015 74.2503 23.3525H74.6773C74.6773 21.6785 75.1213 20.3775 75.9873 19.4235L75.6723 19.1365ZM74.2503 23.3525C74.2503 25.0865 74.7183 26.4985 75.6713 27.5665L75.9903 27.2825C75.1203 26.3095 74.6773 25.0075 74.6773 23.3525H74.2503ZM75.6733 27.5695C76.6483 28.6215 77.9473 29.1405 79.5473 29.1405V28.7145C78.0493 28.7145 76.8703 28.2315 75.9873 27.2795L75.6733 27.5695ZM92.4773 28.4355L92.2923 28.5425L92.2943 28.5455L92.4773 28.4355ZM92.4773 18.2965L92.2943 18.1865L92.2933 18.1885L92.4773 18.2965ZM109.53 18.2965L109.345 18.4025L109.346 18.4045L109.53 18.2965ZM109.53 28.4355L109.715 28.5435V28.5425L109.53 28.4355ZM104.693 27.3965L104.535 27.2535L104.534 27.2545L104.693 27.3975V27.3965ZM104.693 19.3075L104.534 19.4495L104.536 19.4525L104.693 19.3075ZM97.3143 19.2805L97.1583 19.1355L97.1563 19.1365L97.3143 19.2805ZM97.3143 27.4245L97.1543 27.5665L97.1583 27.5695L97.3143 27.4245ZM101.031 32.9775C99.2613 32.9775 97.6403 32.5675 96.1613 31.7475L95.9533 32.1195C97.4993 32.9755 99.1933 33.4045 101.031 33.4045V32.9775ZM96.1613 31.7475C94.7114 30.9381 93.5032 29.7569 92.6613 28.3255L92.2943 28.5455C93.175 30.0406 94.4379 31.2742 95.9533 32.1195L96.1613 31.7475ZM92.6613 28.3285C91.8073 26.8515 91.3793 25.1945 91.3793 23.3525H90.9523C90.9523 25.2635 91.3973 26.9955 92.2923 28.5425L92.6613 28.3285ZM91.3793 23.3525C91.3793 21.5105 91.8073 19.8625 92.6613 18.4045L92.2933 18.1885C91.3973 19.7185 90.9523 21.4415 90.9523 23.3525H91.3793ZM92.6603 18.4055C93.5028 16.9747 94.7112 15.7942 96.1613 14.9855L95.9533 14.6115C94.4376 15.4566 93.1753 16.6913 92.2943 18.1865L92.6603 18.4055ZM96.1613 14.9855C97.6413 14.1655 99.2623 13.7555 101.031 13.7555V13.3275C99.1933 13.3275 97.4993 13.7555 95.9533 14.6115L96.1613 14.9855ZM101.031 13.7555C102.8 13.7555 104.413 14.1655 105.873 14.9855L106.082 14.6125C104.554 13.7555 102.869 13.3275 101.031 13.3275V13.7555ZM105.873 14.9855C107.326 15.7795 108.529 16.9628 109.345 18.4025L109.716 18.1905C108.861 16.6828 107.602 15.4434 106.081 14.6115L105.873 14.9855ZM109.346 18.4045C110.2 19.8625 110.629 21.5105 110.629 23.3525H111.056C111.056 21.4415 110.61 19.7175 109.715 18.1885L109.346 18.4045ZM110.629 23.3525C110.629 25.1945 110.2 26.8515 109.345 28.3285L109.715 28.5425C110.61 26.9955 111.056 25.2635 111.056 23.3525H110.629ZM109.346 28.3275C108.519 29.7608 107.319 30.9428 105.873 31.7475L106.082 32.1195C107.594 31.2776 108.85 30.0418 109.715 28.5435L109.346 28.3275ZM105.873 31.7475C104.413 32.5675 102.8 32.9775 101.031 32.9775V33.4045C102.869 33.4045 104.554 32.9765 106.082 32.1195L105.873 31.7475ZM101.031 29.1405C102.614 29.1405 103.896 28.6105 104.852 27.5395L104.534 27.2545C103.668 28.2245 102.509 28.7145 101.031 28.7145V29.1405ZM104.851 27.5405C105.823 26.4735 106.3 25.0705 106.3 23.3525H105.873C105.873 24.9875 105.421 26.2815 104.535 27.2535L104.851 27.5405ZM106.3 23.3525C106.3 21.6175 105.824 20.2125 104.85 19.1625L104.536 19.4525C105.421 20.4065 105.873 21.6985 105.873 23.3525H106.3ZM104.852 19.1655C103.896 18.0945 102.614 17.5635 101.031 17.5635V17.9905C102.509 17.9905 103.668 18.4795 104.534 19.4495L104.852 19.1655ZM101.031 17.5635C99.4313 17.5635 98.1333 18.0835 97.1583 19.1355L97.4713 19.4255C98.3543 18.4735 99.5333 17.9905 101.031 17.9905V17.5635ZM97.1563 19.1365C96.2013 20.1875 95.7343 21.6015 95.7343 23.3525H96.1613C96.1613 21.6785 96.6063 20.3775 97.4723 19.4235L97.1563 19.1365ZM95.7343 23.3525C95.7343 25.0865 96.2013 26.4985 97.1543 27.5665L97.4743 27.2825C96.6053 26.3095 96.1613 25.0075 96.1613 23.3525H95.7343ZM97.1583 27.5695C98.1333 28.6215 99.4323 29.1405 101.031 29.1405V28.7145C99.5333 28.7145 98.3543 28.2315 97.4713 27.2795L97.1583 27.5695ZM135.169 13.8145H135.382V13.6015H135.169V13.8145ZM135.169 32.9995V33.2135H135.382V32.9995H135.169ZM130.495 32.9995H130.282V33.2135H130.495V32.9995ZM130.495 21.4935H130.709L130.295 21.4195L130.495 21.4935ZM126.205 32.9995V33.2135H126.353L126.405 33.0735L126.205 32.9995ZM122.433 32.9995L122.233 33.0745L122.285 33.2135H122.433V32.9995ZM118.115 21.4665L118.315 21.3915L117.902 21.4665H118.115ZM118.115 32.9995V33.2135H118.329V32.9995H118.115ZM113.442 32.9995H113.228V33.2135H113.442V32.9995ZM113.442 13.8145V13.6015H113.228V13.8145H113.442ZM118.962 13.8145L119.16 13.7345L119.106 13.6015H118.962V13.8145ZM124.346 27.0965L124.148 27.1765L124.347 27.6665L124.544 27.1765L124.346 27.0965ZM129.675 13.8145V13.6015H129.531L129.477 13.7345L129.675 13.8145ZM134.955 13.8145V32.9995H135.382V13.8145H134.955ZM135.169 32.7855H130.495V33.2135H135.169V32.7855ZM130.709 32.9995V21.4935H130.282V32.9995H130.709ZM130.295 21.4195L126.005 32.9245L126.405 33.0735L130.695 21.5685L130.295 21.4195ZM126.205 32.7855H122.433V33.2135H126.205V32.7855ZM122.633 32.9255L118.315 21.3915L117.915 21.5415L122.233 33.0745L122.633 32.9255ZM117.902 21.4665V32.9995H118.329V21.4665H117.902ZM118.115 32.7865H113.442V33.2135H118.115V32.7865ZM113.655 32.9995V13.8145H113.228V32.9995H113.655ZM113.442 14.0285H118.962V13.5995H113.442V14.0265V14.0285ZM118.765 13.8945L124.148 27.1765L124.544 27.0165L119.16 13.7345L118.765 13.8945ZM124.544 27.1765L129.874 13.8945L129.477 13.7345L124.148 27.0165L124.544 27.1765ZM129.675 14.0285H135.169V13.5995H129.675V14.0265V14.0285ZM138.857 15.4545L138.709 15.6075L138.715 15.6135L138.857 15.4545ZM142.847 11.8465L142.699 12.0005L142.705 12.0055L142.847 11.8465ZM142.847 15.4545L142.992 15.6105H142.993L142.847 15.4545ZM143.202 17.7495H143.416V17.5365H143.202V17.7495ZM143.202 32.9995V33.2135H143.416V32.9995H143.202ZM138.529 32.9995H138.316V33.2135H138.529V32.9995ZM138.529 17.7495V17.5365H138.316V17.7495H138.529ZM140.879 15.9515C140.104 15.9515 139.483 15.7285 139 15.2955L138.715 15.6135C139.288 16.1275 140.016 16.3785 140.879 16.3785V15.9515ZM139.005 15.3005C138.779 15.0901 138.6 14.8344 138.479 14.5501C138.359 14.2658 138.299 13.9593 138.305 13.6505H137.878C137.878 14.4185 138.157 15.0755 138.709 15.6075L139.005 15.3005ZM138.305 13.6505C138.305 12.9785 138.538 12.4345 139.002 12.0035L138.712 11.6905C138.156 12.2065 137.878 12.8655 137.878 13.6505H138.305ZM139.002 12.0035C139.485 11.5535 140.106 11.3225 140.879 11.3225V10.8955C140.014 10.8955 139.285 11.1565 138.712 11.6905L139.002 12.0035ZM140.879 11.3225C141.634 11.3225 142.234 11.5525 142.699 12.0005L142.995 11.6935C142.44 11.1575 141.729 10.8955 140.879 10.8955V11.3225ZM142.705 12.0055C143.186 12.4375 143.426 12.9805 143.426 13.6505H143.853C143.853 12.8625 143.565 12.2035 142.99 11.6875L142.705 12.0055ZM143.426 13.6505C143.426 14.3005 143.187 14.8455 142.702 15.2985L142.993 15.6105C143.564 15.0785 143.853 14.4205 143.853 13.6505H143.426ZM142.702 15.2985C142.237 15.7305 141.636 15.9515 140.879 15.9515V16.3785C141.726 16.3785 142.437 16.1265 142.992 15.6105L142.702 15.2985ZM142.989 17.7495V32.9995H143.416V17.7495H142.989ZM143.202 32.7855H138.529V33.2135H143.202V32.7855ZM138.743 32.9995V17.7495H138.316V32.9995H138.743ZM138.529 17.9635H143.202V17.5365H138.529V17.9635ZM163.752 32.9995V33.2135H163.965V32.9995H163.752ZM159.079 32.9995L158.9 33.1175L158.964 33.2135H159.079V32.9995ZM151.262 21.1655L151.441 21.0485L151.049 20.4555V21.1655H151.262ZM151.262 32.9995V33.2135H151.476V32.9995H151.262ZM146.589 32.9995H146.376V33.2135H146.589V32.9995ZM146.589 13.8145V13.6015H146.376V13.8145H146.589ZM151.262 13.8145L151.441 13.6975L151.378 13.6005H151.262V13.8145ZM159.079 25.7025L158.9 25.8195L159.292 26.4155V25.7025H159.079ZM159.079 13.8145V13.6015H158.865V13.8145H159.079ZM163.752 13.8145H163.965V13.6015H163.752V13.8145ZM163.752 32.7855H159.079V33.2135H163.752V32.7855ZM159.257 32.8815L151.441 21.0485L151.084 21.2835L158.9 33.1175L159.257 32.8815ZM151.049 21.1655V32.9995H151.476V21.1655H151.049ZM151.262 32.7865H146.589V33.2135H151.262V32.7865ZM146.803 32.9995V13.8145H146.376V32.9995H146.803ZM146.589 14.0285H151.262V13.6005L146.589 13.5995V14.0265V14.0285ZM151.084 13.9315L158.9 25.8195L159.257 25.5855L151.441 13.6975L151.084 13.9315ZM159.292 25.7025V13.8145H158.865V25.7025H159.292ZM159.079 14.0275H163.752V13.6005H159.079V14.0275ZM163.538 13.8145V32.9995H163.965V13.8145H163.538ZM177.604 29.3925H177.39V29.6055H177.604V29.3925ZM183.726 29.3925H183.939V29.1785H183.726V29.3925ZM183.726 32.9995V33.2135H183.939V32.9995H183.726ZM172.931 32.9995H172.717V33.2135H172.931V32.9995ZM172.931 13.8145V13.6015H172.717V13.8145H172.931ZM177.604 13.8145H177.817V13.6015H177.604V13.8145ZM177.604 29.6055H183.726V29.1785H177.604V29.6055ZM183.512 29.3925V32.9995H183.939V29.3925H183.512ZM183.726 32.7855H172.931V33.2135H183.726V32.7855ZM173.144 32.9995V13.8145H172.717V32.9995H173.144ZM172.931 14.0285H177.604V13.5995H172.931V14.0265V14.0285ZM177.39 13.8145V29.3925H177.817V13.8145H177.39ZM190.628 13.8145H190.842V13.6015H190.628V13.8145ZM190.628 32.9995V33.2135H190.842V32.9995H190.628ZM185.955 32.9995H185.741V33.2135H185.955V32.9995ZM185.955 13.8145V13.6015H185.741V13.8145H185.955ZM190.414 13.8145V32.9995H190.842V13.8145H190.414ZM190.628 32.7855H185.955V33.2135H190.628V32.7855ZM186.168 32.9995V13.8145H185.741V32.9995H186.168ZM185.955 14.0285H190.628V13.5995H185.955V14.0265V14.0285ZM212.025 13.8145L212.226 13.8855L212.327 13.6015H212.025V13.8145ZM205.22 32.9995V33.2135H205.37L205.421 33.0705L205.22 32.9995ZM199.371 32.9995L199.17 33.0705L199.22 33.2135H199.371V32.9995ZM192.566 13.8145V13.6015H192.264L192.365 13.8855L192.566 13.8145ZM197.54 13.8145L197.743 13.7475L197.695 13.6015H197.54V13.8145ZM202.295 28.2985L202.093 28.3655L202.295 28.9815L202.498 28.3655L202.295 28.2985ZM207.078 13.8145V13.6015H206.924L206.875 13.7475L207.078 13.8145ZM211.823 13.7435L205.018 32.9285L205.421 33.0705L212.226 13.8855L211.823 13.7435ZM205.22 32.7855H199.371V33.2135H205.22V32.7855ZM199.572 32.9285L192.767 13.7435L192.365 13.8855L199.17 33.0705L199.572 32.9285ZM192.566 14.0285H197.54V13.5995H192.566V14.0265V14.0285ZM197.337 13.8815L202.093 28.3655L202.498 28.2325L197.743 13.7475L197.337 13.8815ZM202.498 28.3655L207.281 13.8815L206.875 13.7475L202.093 28.2325L202.498 28.3655ZM207.078 14.0275H212.025V13.6005H207.078V14.0275ZM218.651 17.5585V17.3455H218.437V17.5585H218.651ZM218.651 21.4385H218.437V21.6525H218.651V21.4395V21.4385ZM224.909 21.4385H225.123V21.2255H224.909V21.4395V21.4385ZM224.909 25.0465V25.2605H225.123V25.0465H224.909ZM218.651 25.0465V24.8335H218.437V25.0465H218.651ZM218.651 29.2555H218.437V29.4685H218.651V29.2555ZM225.729 29.2555H225.943V29.0415H225.729V29.2555ZM225.729 32.9995V33.2135H225.943V32.9995H225.729ZM213.978 32.9995H213.764V33.2135H213.978V32.9995ZM213.978 13.8145V13.6015H213.764V13.8145H213.978ZM225.729 13.8145H225.943V13.6015H225.729V13.8145ZM225.729 17.5585V17.7725H225.943V17.5585H225.729ZM218.437 17.5585V21.4385H218.864V17.5585H218.437ZM218.651 21.6525H224.909V21.2255H218.651V21.6525ZM224.696 21.4395V25.0465H225.123V21.4395H224.696ZM224.909 24.8335H218.651V25.2605H224.909V24.8335ZM218.437 25.0465V29.2555H218.864V25.0465H218.437ZM218.651 29.4685H225.729V29.0415H218.651V29.4685ZM225.516 29.2555V32.9995H225.943V29.2555H225.516ZM225.729 32.7855H213.978V33.2135H225.729V32.7855ZM214.191 32.9995V13.8145H213.764V32.9995H214.191ZM213.978 14.0285H225.729V13.5995H213.978V14.0265V14.0285ZM225.516 13.8145V17.5585H225.943V13.8145H225.516ZM225.729 17.3445H218.651V17.7725H225.729V17.3455V17.3445Z" fill="#5A53DD"/>
<path d="M39.3588 20.4968C39.3588 30.6378 31.1388 38.8588 20.9968 38.8588C10.8558 38.8588 2.63477 30.6388 2.63477 20.4968C2.63477 10.3558 10.8548 2.13477 20.9968 2.13477C31.1378 2.13477 39.3588 10.3548 39.3588 20.4968Z" stroke="#5A53DD" stroke-width="4.27"/>
<path d="M17.4715 15.8848L27.4585 21.7398L17.3945 27.4608L17.4715 15.8848Z" fill="#5A53DD" stroke="#5A53DD" stroke-width="4.27"/>
</svg>
